<svg width="181" height="144" viewBox="0 0 181 144" fill="none" xmlns="http://www.w3.org/2000/svg">
<path d="M6.09961 12.2168H2.83887L2.82129 10.6084H5.66895C6.14941 10.6084 6.55664 10.5381 6.89062 10.3975C7.23047 10.251 7.48828 10.043 7.66406 9.77344C7.83984 9.49805 7.92773 9.16699 7.92773 8.78027C7.92773 8.35254 7.8457 8.00391 7.68164 7.73438C7.51758 7.46484 7.26562 7.26855 6.92578 7.14551C6.5918 7.02246 6.16406 6.96094 5.64258 6.96094H3.50684V18H1.30078V5.20312H5.64258C6.3457 5.20312 6.97266 5.27051 7.52344 5.40527C8.08008 5.54004 8.55176 5.75098 8.93848 6.03809C9.33105 6.31934 9.62695 6.67676 9.82617 7.11035C10.0312 7.54395 10.1338 8.05957 10.1338 8.65723C10.1338 9.18457 10.0078 9.66797 9.75586 10.1074C9.50391 10.541 9.13184 10.8955 8.63965 11.1709C8.14746 11.4463 7.53516 11.6104 6.80273 11.6631L6.09961 12.2168ZM6.00293 18H2.14453L3.1377 16.251H6.00293C6.50098 16.251 6.91699 16.1689 7.25098 16.0049C7.58496 15.835 7.83398 15.6035 7.99805 15.3105C8.16797 15.0117 8.25293 14.6631 8.25293 14.2646C8.25293 13.8486 8.17969 13.4883 8.0332 13.1836C7.88672 12.873 7.65527 12.6357 7.33887 12.4717C7.02246 12.3018 6.60938 12.2168 6.09961 12.2168H3.62109L3.63867 10.6084H6.86426L7.36523 11.2148C8.06836 11.2383 8.64551 11.3936 9.09668 11.6807C9.55371 11.9678 9.89355 12.3398 10.1162 12.7969C10.3389 13.2539 10.4502 13.7461 10.4502 14.2734C10.4502 15.0879 10.2715 15.7705 9.91406 16.3213C9.5625 16.8721 9.05566 17.291 8.39355 17.5781C7.73145 17.8594 6.93457 18 6.00293 18ZM12.0586 13.3506V13.1484C12.0586 12.4629 12.1582 11.8271 12.3574 11.2412C12.5566 10.6494 12.8438 10.1367 13.2188 9.70312C13.5996 9.26367 14.0625 8.92383 14.6074 8.68359C15.1582 8.4375 15.7793 8.31445 16.4707 8.31445C17.168 8.31445 17.7891 8.4375 18.334 8.68359C18.8848 8.92383 19.3506 9.26367 19.7314 9.70312C20.1123 10.1367 20.4023 10.6494 20.6016 11.2412C20.8008 11.8271 20.9004 12.4629 20.9004 13.1484V13.3506C20.9004 14.0361 20.8008 14.6719 20.6016 15.2578C20.4023 15.8438 20.1123 16.3564 19.7314 16.7959C19.3506 17.2295 18.8877 17.5693 18.3428 17.8154C17.7979 18.0557 17.1797 18.1758 16.4883 18.1758C15.791 18.1758 15.167 18.0557 14.6162 17.8154C14.0713 17.5693 13.6084 17.2295 13.2275 16.7959C12.8467 16.3564 12.5566 15.8438 12.3574 15.2578C12.1582 14.6719 12.0586 14.0361 12.0586 13.3506ZM14.1768 13.1484V13.3506C14.1768 13.7783 14.2207 14.1826 14.3086 14.5635C14.3965 14.9443 14.5342 15.2783 14.7217 15.5654C14.9092 15.8525 15.1494 16.0781 15.4424 16.2422C15.7354 16.4062 16.084 16.4883 16.4883 16.4883C16.8809 16.4883 17.2207 16.4062 17.5078 16.2422C17.8008 16.0781 18.041 15.8525 18.2285 15.5654C18.416 15.2783 18.5537 14.9443 18.6416 14.5635C18.7354 14.1826 18.7822 13.7783 18.7822 13.3506V13.1484C18.7822 12.7266 18.7354 12.3281 18.6416 11.9531C18.5537 11.5723 18.4131 11.2354 18.2197 10.9424C18.0322 10.6494 17.792 10.4209 17.499 10.2568C17.2119 10.0869 16.8691 10.002 16.4707 10.002C16.0723 10.002 15.7266 10.0869 15.4336 10.2568C15.1465 10.4209 14.9092 10.6494 14.7217 10.9424C14.5342 11.2354 14.3965 11.5723 14.3086 11.9531C14.2207 12.3281 14.1768 12.7266 14.1768 13.1484ZM28.7666 8.49023H30.6914V17.7363C30.6914 18.5918 30.5098 19.3184 30.1465 19.916C29.7832 20.5137 29.2764 20.9678 28.626 21.2783C27.9756 21.5947 27.2227 21.7529 26.3672 21.7529C26.0039 21.7529 25.5996 21.7002 25.1543 21.5947C24.7148 21.4893 24.2871 21.3193 23.8711 21.085C23.4609 20.8564 23.1182 20.5547 22.8428 20.1797L23.8359 18.9316C24.1758 19.3359 24.5508 19.6318 24.9609 19.8193C25.3711 20.0068 25.8018 20.1006 26.2529 20.1006C26.7393 20.1006 27.1523 20.0098 27.4922 19.8281C27.8379 19.6523 28.1045 19.3916 28.292 19.0459C28.4795 18.7002 28.5732 18.2783 28.5732 17.7803V10.6436L28.7666 8.49023ZM22.3066 13.3506V13.166C22.3066 12.4453 22.3945 11.7891 22.5703 11.1973C22.7461 10.5996 22.998 10.0869 23.3262 9.65918C23.6543 9.22559 24.0527 8.89453 24.5215 8.66602C24.9902 8.43164 25.5205 8.31445 26.1123 8.31445C26.7275 8.31445 27.252 8.42578 27.6855 8.64844C28.125 8.87109 28.4912 9.19043 28.7842 9.60645C29.0771 10.0166 29.3057 10.5088 29.4697 11.083C29.6396 11.6514 29.7656 12.2842 29.8477 12.9814V13.5703C29.7715 14.25 29.6426 14.8711 29.4609 15.4336C29.2793 15.9961 29.0391 16.4824 28.7402 16.8926C28.4414 17.3027 28.0723 17.6191 27.6328 17.8418C27.1992 18.0645 26.6865 18.1758 26.0947 18.1758C25.5146 18.1758 24.9902 18.0557 24.5215 17.8154C24.0586 17.5752 23.6602 17.2383 23.3262 16.8047C22.998 16.3711 22.7461 15.8613 22.5703 15.2754C22.3945 14.6836 22.3066 14.042 22.3066 13.3506ZM24.4248 13.166V13.3506C24.4248 13.7842 24.4658 14.1885 24.5479 14.5635C24.6357 14.9385 24.7676 15.2695 24.9434 15.5566C25.125 15.8379 25.3535 16.0605 25.6289 16.2246C25.9102 16.3828 26.2412 16.4619 26.6221 16.4619C27.1201 16.4619 27.5273 16.3564 27.8438 16.1455C28.166 15.9346 28.4121 15.6504 28.582 15.293C28.7578 14.9297 28.8809 14.5254 28.9512 14.0801V12.4893C28.916 12.1436 28.8428 11.8213 28.7314 11.5225C28.626 11.2236 28.4824 10.9629 28.3008 10.7402C28.1191 10.5117 27.8906 10.3359 27.6152 10.2129C27.3398 10.084 27.0146 10.0195 26.6396 10.0195C26.2588 10.0195 25.9277 10.1016 25.6465 10.2656C25.3652 10.4297 25.1338 10.6553 24.9521 10.9424C24.7764 11.2295 24.6445 11.5635 24.5566 11.9443C24.4688 12.3252 24.4248 12.7324 24.4248 13.166ZM34.9014 4.5V5.73926C34.9014 6.1084 34.834 6.49219 34.6992 6.89062C34.5703 7.2832 34.3887 7.66113 34.1543 8.02441C33.9199 8.38184 33.6504 8.69238 33.3457 8.95605L32.2822 8.28809C32.5225 7.9248 32.7158 7.54102 32.8623 7.13672C33.0146 6.72656 33.0908 6.2666 33.0908 5.75684V4.5H34.9014ZM39.2168 4.5V18H37.0898V4.5H39.2168ZM46.8984 16.0928V11.5576C46.8984 11.2178 46.8369 10.9248 46.7139 10.6787C46.5908 10.4326 46.4033 10.2422 46.1514 10.1074C45.9053 9.97266 45.5947 9.90527 45.2197 9.90527C44.874 9.90527 44.5752 9.96387 44.3232 10.0811C44.0713 10.1982 43.875 10.3564 43.7344 10.5557C43.5938 10.7549 43.5234 10.9805 43.5234 11.2324H41.4141C41.4141 10.8574 41.5049 10.4941 41.6865 10.1426C41.8682 9.79102 42.1318 9.47754 42.4775 9.20215C42.8232 8.92676 43.2363 8.70996 43.7168 8.55176C44.1973 8.39355 44.7363 8.31445 45.334 8.31445C46.0488 8.31445 46.6816 8.43457 47.2324 8.6748C47.7891 8.91504 48.2256 9.27832 48.542 9.76465C48.8643 10.2451 49.0254 10.8486 49.0254 11.5752V15.8027C49.0254 16.2363 49.0547 16.626 49.1133 16.9717C49.1777 17.3115 49.2686 17.6074 49.3857 17.8594V18H47.2148C47.1152 17.7715 47.0361 17.4814 46.9775 17.1299C46.9248 16.7725 46.8984 16.4268 46.8984 16.0928ZM47.2061 12.2168L47.2236 13.5264H45.7031C45.3105 13.5264 44.9648 13.5645 44.666 13.6406C44.3672 13.7109 44.1182 13.8164 43.9189 13.957C43.7197 14.0977 43.5703 14.2676 43.4707 14.4668C43.3711 14.666 43.3213 14.8916 43.3213 15.1436C43.3213 15.3955 43.3799 15.627 43.4971 15.8379C43.6143 16.043 43.7842 16.2041 44.0068 16.3213C44.2354 16.4385 44.5107 16.4971 44.833 16.4971C45.2666 16.4971 45.6445 16.4092 45.9668 16.2334C46.2949 16.0518 46.5527 15.832 46.7402 15.5742C46.9277 15.3105 47.0273 15.0615 47.0391 14.8271L47.7246 15.7676C47.6543 16.0078 47.5342 16.2656 47.3643 16.541C47.1943 16.8164 46.9717 17.0801 46.6963 17.332C46.4268 17.5781 46.1016 17.7803 45.7207 17.9385C45.3457 18.0967 44.9121 18.1758 44.4199 18.1758C43.7988 18.1758 43.2451 18.0527 42.7588 17.8066C42.2725 17.5547 41.8916 17.2178 41.6162 16.7959C41.3408 16.3682 41.2031 15.8848 41.2031 15.3457C41.2031 14.8418 41.2969 14.3965 41.4844 14.0098C41.6777 13.6172 41.959 13.2891 42.3281 13.0254C42.7031 12.7617 43.1602 12.5625 43.6992 12.4277C44.2383 12.2871 44.8535 12.2168 45.5449 12.2168H47.2061ZM53.3408 10.5205V18H51.2227V8.49023H53.2178L53.3408 10.5205ZM52.9629 12.8936L52.2773 12.8848C52.2832 12.2109 52.377 11.5928 52.5586 11.0303C52.7461 10.4678 53.0039 9.98438 53.332 9.58008C53.666 9.17578 54.0645 8.86523 54.5273 8.64844C54.9902 8.42578 55.5059 8.31445 56.0742 8.31445C56.5312 8.31445 56.9443 8.37891 57.3135 8.50781C57.6885 8.63086 58.0078 8.83301 58.2715 9.11426C58.541 9.39551 58.7461 9.76172 58.8867 10.2129C59.0273 10.6582 59.0977 11.2061 59.0977 11.8564V18H56.9707V11.8477C56.9707 11.3906 56.9033 11.0303 56.7686 10.7666C56.6396 10.4971 56.4492 10.3066 56.1973 10.1953C55.9512 10.0781 55.6436 10.0195 55.2744 10.0195C54.9111 10.0195 54.5859 10.0957 54.2988 10.248C54.0117 10.4004 53.7686 10.6084 53.5693 10.8721C53.376 11.1357 53.2266 11.4404 53.1211 11.7861C53.0156 12.1318 52.9629 12.501 52.9629 12.8936ZM63.5273 8.49023V18H61.4004V8.49023H63.5273ZM61.2598 5.99414C61.2598 5.67187 61.3652 5.40527 61.5762 5.19434C61.793 4.97754 62.0918 4.86914 62.4727 4.86914C62.8477 4.86914 63.1436 4.97754 63.3604 5.19434C63.5771 5.40527 63.6855 5.67187 63.6855 5.99414C63.6855 6.31055 63.5771 6.57422 63.3604 6.78516C63.1436 6.99609 62.8477 7.10156 62.4727 7.10156C62.0918 7.10156 61.793 6.99609 61.5762 6.78516C61.3652 6.57422 61.2598 6.31055 61.2598 5.99414ZM71.1826 15.4248C71.1826 15.2139 71.1299 15.0234 71.0244 14.8535C70.9189 14.6777 70.7168 14.5195 70.418 14.3789C70.125 14.2383 69.6914 14.1094 69.1172 13.9922C68.6133 13.8809 68.1504 13.749 67.7285 13.5967C67.3125 13.4385 66.9551 13.248 66.6562 13.0254C66.3574 12.8027 66.126 12.5391 65.9619 12.2344C65.7979 11.9297 65.7158 11.5781 65.7158 11.1797C65.7158 10.793 65.8008 10.4268 65.9707 10.0811C66.1406 9.73535 66.3838 9.43066 66.7002 9.16699C67.0166 8.90332 67.4004 8.69531 67.8516 8.54297C68.3086 8.39062 68.8184 8.31445 69.3809 8.31445C70.1777 8.31445 70.8604 8.44922 71.4287 8.71875C72.0029 8.98242 72.4424 9.34277 72.7471 9.7998C73.0518 10.251 73.2041 10.7607 73.2041 11.3291H71.0859C71.0859 11.0771 71.0215 10.8428 70.8926 10.626C70.7695 10.4033 70.582 10.2246 70.3301 10.0898C70.0781 9.94922 69.7617 9.87891 69.3809 9.87891C69.0176 9.87891 68.7158 9.9375 68.4756 10.0547C68.2412 10.166 68.0654 10.3125 67.9482 10.4941C67.8369 10.6758 67.7812 10.875 67.7812 11.0918C67.7812 11.25 67.8105 11.3936 67.8691 11.5225C67.9336 11.6455 68.0391 11.7598 68.1855 11.8652C68.332 11.9648 68.5312 12.0586 68.7832 12.1465C69.041 12.2344 69.3633 12.3193 69.75 12.4014C70.4766 12.5537 71.1006 12.75 71.6221 12.9902C72.1494 13.2246 72.5537 13.5293 72.835 13.9043C73.1162 14.2734 73.2568 14.7422 73.2568 15.3105C73.2568 15.7324 73.166 16.1191 72.9844 16.4707C72.8086 16.8164 72.5508 17.1182 72.2109 17.376C71.8711 17.6279 71.4639 17.8242 70.9893 17.9648C70.5205 18.1055 69.9932 18.1758 69.4072 18.1758C68.5459 18.1758 67.8164 18.0234 67.2188 17.7188C66.6211 17.4082 66.167 17.0127 65.8564 16.5322C65.5518 16.0459 65.3994 15.542 65.3994 15.0205H67.4473C67.4707 15.4131 67.5791 15.7266 67.7725 15.9609C67.9717 16.1895 68.2178 16.3564 68.5107 16.4619C68.8096 16.5615 69.1172 16.6113 69.4336 16.6113C69.8145 16.6113 70.1338 16.5615 70.3916 16.4619C70.6494 16.3564 70.8457 16.2158 70.9805 16.04C71.1152 15.8584 71.1826 15.6533 71.1826 15.4248ZM77.2031 4.5V18H75.0938V4.5H77.2031ZM76.834 12.8936L76.1484 12.8848C76.1543 12.2285 76.2451 11.6221 76.4209 11.0654C76.6025 10.5088 76.8545 10.0254 77.1768 9.61523C77.5049 9.19922 77.8975 8.87988 78.3545 8.65723C78.8115 8.42871 79.3184 8.31445 79.875 8.31445C80.3438 8.31445 80.7656 8.37891 81.1406 8.50781C81.5215 8.63672 81.8496 8.84473 82.125 9.13184C82.4004 9.41309 82.6084 9.78223 82.749 10.2393C82.8955 10.6904 82.9688 11.2412 82.9688 11.8916V18H80.8418V11.874C80.8418 11.417 80.7744 11.0537 80.6396 10.7842C80.5107 10.5146 80.3203 10.3213 80.0684 10.2041C79.8164 10.0811 79.5088 10.0195 79.1455 10.0195C78.7646 10.0195 78.4277 10.0957 78.1348 10.248C77.8477 10.4004 77.6074 10.6084 77.4141 10.8721C77.2207 11.1357 77.0742 11.4404 76.9746 11.7861C76.8809 12.1318 76.834 12.501 76.834 12.8936Z" fill="white"/>
<path d="M36.4062 58.8984V60.2578H28.6094V58.8984H36.4062ZM33.2344 55.5781V63.8594H31.7891V55.5781H33.2344ZM39.4609 63.7891H39.6094C40.4427 63.7891 41.1198 63.6719 41.6406 63.4375C42.1615 63.2031 42.5625 62.888 42.8438 62.4922C43.125 62.0964 43.3177 61.651 43.4219 61.1562C43.526 60.6562 43.5781 60.1432 43.5781 59.6172V57.875C43.5781 57.3594 43.5182 56.901 43.3984 56.5C43.2839 56.099 43.1224 55.763 42.9141 55.4922C42.7109 55.2214 42.4792 55.0156 42.2188 54.875C41.9583 54.7344 41.6823 54.6641 41.3906 54.6641C41.0573 54.6641 40.7578 54.7318 40.4922 54.8672C40.2318 54.9974 40.0104 55.1823 39.8281 55.4219C39.651 55.6615 39.5156 55.9427 39.4219 56.2656C39.3281 56.5885 39.2812 56.9401 39.2812 57.3203C39.2812 57.6589 39.3229 57.987 39.4062 58.3047C39.4896 58.6224 39.6172 58.9089 39.7891 59.1641C39.9609 59.4193 40.1745 59.6224 40.4297 59.7734C40.6901 59.9193 40.9948 59.9922 41.3438 59.9922C41.6667 59.9922 41.9688 59.9297 42.25 59.8047C42.5365 59.6745 42.7891 59.5 43.0078 59.2812C43.2318 59.0573 43.4089 58.8047 43.5391 58.5234C43.6745 58.2422 43.7526 57.9479 43.7734 57.6406H44.4609C44.4609 58.0729 44.375 58.5 44.2031 58.9219C44.0365 59.3385 43.8021 59.7188 43.5 60.0625C43.1979 60.4062 42.8438 60.6823 42.4375 60.8906C42.0312 61.0938 41.5885 61.1953 41.1094 61.1953C40.5469 61.1953 40.0599 61.0859 39.6484 60.8672C39.237 60.6484 38.8984 60.3568 38.6328 59.9922C38.3724 59.6276 38.1771 59.2214 38.0469 58.7734C37.9219 58.3203 37.8594 57.862 37.8594 57.3984C37.8594 56.8568 37.9349 56.349 38.0859 55.875C38.237 55.401 38.4609 54.9844 38.7578 54.625C39.0547 54.2604 39.4219 53.9766 39.8594 53.7734C40.3021 53.5703 40.8125 53.4688 41.3906 53.4688C42.0417 53.4688 42.5964 53.599 43.0547 53.8594C43.513 54.1198 43.8854 54.4688 44.1719 54.9062C44.4635 55.3438 44.6771 55.8359 44.8125 56.3828C44.9479 56.9297 45.0156 57.4922 45.0156 58.0703V58.5938C45.0156 59.1823 44.9766 59.7812 44.8984 60.3906C44.8255 60.9948 44.6823 61.5729 44.4688 62.125C44.2604 62.6771 43.9557 63.1719 43.5547 63.6094C43.1536 64.0417 42.6302 64.3854 41.9844 64.6406C41.3438 64.8906 40.5521 65.0156 39.6094 65.0156H39.4609V63.7891ZM48.4609 63.7891H48.6094C49.4427 63.7891 50.1198 63.6719 50.6406 63.4375C51.1615 63.2031 51.5625 62.888 51.8438 62.4922C52.125 62.0964 52.3177 61.651 52.4219 61.1562C52.526 60.6562 52.5781 60.1432 52.5781 59.6172V57.875C52.5781 57.3594 52.5182 56.901 52.3984 56.5C52.2839 56.099 52.1224 55.763 51.9141 55.4922C51.7109 55.2214 51.4792 55.0156 51.2188 54.875C50.9583 54.7344 50.6823 54.6641 50.3906 54.6641C50.0573 54.6641 49.7578 54.7318 49.4922 54.8672C49.2318 54.9974 49.0104 55.1823 48.8281 55.4219C48.651 55.6615 48.5156 55.9427 48.4219 56.2656C48.3281 56.5885 48.2812 56.9401 48.2812 57.3203C48.2812 57.6589 48.3229 57.987 48.4062 58.3047C48.4896 58.6224 48.6172 58.9089 48.7891 59.1641C48.9609 59.4193 49.1745 59.6224 49.4297 59.7734C49.6901 59.9193 49.9948 59.9922 50.3438 59.9922C50.6667 59.9922 50.9688 59.9297 51.25 59.8047C51.5365 59.6745 51.7891 59.5 52.0078 59.2812C52.2318 59.0573 52.4089 58.8047 52.5391 58.5234C52.6745 58.2422 52.7526 57.9479 52.7734 57.6406H53.4609C53.4609 58.0729 53.375 58.5 53.2031 58.9219C53.0365 59.3385 52.8021 59.7188 52.5 60.0625C52.1979 60.4062 51.8438 60.6823 51.4375 60.8906C51.0312 61.0938 50.5885 61.1953 50.1094 61.1953C49.5469 61.1953 49.0599 61.0859 48.6484 60.8672C48.237 60.6484 47.8984 60.3568 47.6328 59.9922C47.3724 59.6276 47.1771 59.2214 47.0469 58.7734C46.9219 58.3203 46.8594 57.862 46.8594 57.3984C46.8594 56.8568 46.9349 56.349 47.0859 55.875C47.237 55.401 47.4609 54.9844 47.7578 54.625C48.0547 54.2604 48.4219 53.9766 48.8594 53.7734C49.3021 53.5703 49.8125 53.4688 50.3906 53.4688C51.0417 53.4688 51.5964 53.599 52.0547 53.8594C52.513 54.1198 52.8854 54.4688 53.1719 54.9062C53.4635 55.3438 53.6771 55.8359 53.8125 56.3828C53.9479 56.9297 54.0156 57.4922 54.0156 58.0703V58.5938C54.0156 59.1823 53.9766 59.7812 53.8984 60.3906C53.8255 60.9948 53.6823 61.5729 53.4688 62.125C53.2604 62.6771 52.9557 63.1719 52.5547 63.6094C52.1536 64.0417 51.6302 64.3854 50.9844 64.6406C50.3438 64.8906 49.5521 65.0156 48.6094 65.0156H48.4609V63.7891ZM63.1953 61.9219C63.1953 62.6146 63.0339 63.2031 62.7109 63.6875C62.3932 64.1667 61.9609 64.5312 61.4141 64.7812C60.8724 65.0312 60.2604 65.1562 59.5781 65.1562C58.8958 65.1562 58.2812 65.0312 57.7344 64.7812C57.1875 64.5312 56.7552 64.1667 56.4375 63.6875C56.1198 63.2031 55.9609 62.6146 55.9609 61.9219C55.9609 61.4688 56.0469 61.0547 56.2188 60.6797C56.3958 60.2995 56.6432 59.9688 56.9609 59.6875C57.2839 59.4062 57.6641 59.1901 58.1016 59.0391C58.5443 58.8828 59.0312 58.8047 59.5625 58.8047C60.2604 58.8047 60.8828 58.9401 61.4297 59.2109C61.9766 59.4766 62.4062 59.8438 62.7188 60.3125C63.0365 60.7812 63.1953 61.3177 63.1953 61.9219ZM61.7422 61.8906C61.7422 61.4688 61.651 61.0964 61.4688 60.7734C61.2865 60.4453 61.0312 60.1901 60.7031 60.0078C60.375 59.8255 59.9948 59.7344 59.5625 59.7344C59.1198 59.7344 58.737 59.8255 58.4141 60.0078C58.0964 60.1901 57.849 60.4453 57.6719 60.7734C57.4948 61.0964 57.4062 61.4688 57.4062 61.8906C57.4062 62.3281 57.4922 62.7031 57.6641 63.0156C57.8411 63.3229 58.0911 63.5599 58.4141 63.7266C58.7422 63.888 59.1302 63.9688 59.5781 63.9688C60.026 63.9688 60.4115 63.888 60.7344 63.7266C61.0573 63.5599 61.3047 63.3229 61.4766 63.0156C61.6536 62.7031 61.7422 62.3281 61.7422 61.8906ZM62.9297 56.5859C62.9297 57.138 62.7839 57.6354 62.4922 58.0781C62.2005 58.5208 61.8021 58.8698 61.2969 59.125C60.7917 59.3802 60.2188 59.5078 59.5781 59.5078C58.9271 59.5078 58.3464 59.3802 57.8359 59.125C57.3307 58.8698 56.9349 58.5208 56.6484 58.0781C56.362 57.6354 56.2188 57.138 56.2188 56.5859C56.2188 55.9245 56.362 55.362 56.6484 54.8984C56.9401 54.4349 57.3385 54.0807 57.8438 53.8359C58.349 53.5911 58.9245 53.4688 59.5703 53.4688C60.2214 53.4688 60.7995 53.5911 61.3047 53.8359C61.8099 54.0807 62.2057 54.4349 62.4922 54.8984C62.7839 55.362 62.9297 55.9245 62.9297 56.5859ZM61.4844 56.6094C61.4844 56.2292 61.4036 55.8932 61.2422 55.6016C61.0807 55.3099 60.8568 55.0807 60.5703 54.9141C60.2839 54.7422 59.9505 54.6562 59.5703 54.6562C59.1901 54.6562 58.8568 54.737 58.5703 54.8984C58.2891 55.0547 58.0677 55.2786 57.9062 55.5703C57.75 55.862 57.6719 56.2083 57.6719 56.6094C57.6719 57 57.75 57.3411 57.9062 57.6328C58.0677 57.9245 58.2917 58.151 58.5781 58.3125C58.8646 58.474 59.1979 58.5547 59.5781 58.5547C59.9583 58.5547 60.2891 58.474 60.5703 58.3125C60.8568 58.151 61.0807 57.9245 61.2422 57.6328C61.4036 57.3411 61.4844 57 61.4844 56.6094ZM67.1328 58.6016H68.1641C68.6693 58.6016 69.0859 58.5182 69.4141 58.3516C69.7474 58.1797 69.9948 57.9479 70.1562 57.6562C70.3229 57.3594 70.4062 57.026 70.4062 56.6562C70.4062 56.2188 70.3333 55.8516 70.1875 55.5547C70.0417 55.2578 69.8229 55.0339 69.5312 54.8828C69.2396 54.7318 68.8698 54.6562 68.4219 54.6562C68.0156 54.6562 67.6562 54.737 67.3438 54.8984C67.0365 55.0547 66.7943 55.2786 66.6172 55.5703C66.4453 55.862 66.3594 56.2057 66.3594 56.6016H64.9141C64.9141 56.0234 65.0599 55.4974 65.3516 55.0234C65.6432 54.5495 66.0521 54.1719 66.5781 53.8906C67.1094 53.6094 67.724 53.4688 68.4219 53.4688C69.1094 53.4688 69.7109 53.5911 70.2266 53.8359C70.7422 54.0755 71.1432 54.4349 71.4297 54.9141C71.7161 55.388 71.8594 55.9792 71.8594 56.6875C71.8594 56.974 71.7917 57.2812 71.6562 57.6094C71.526 57.9323 71.3203 58.2344 71.0391 58.5156C70.763 58.7969 70.4036 59.0286 69.9609 59.2109C69.5182 59.388 68.987 59.4766 68.3672 59.4766H67.1328V58.6016ZM67.1328 59.7891V58.9219H68.3672C69.0911 58.9219 69.6901 59.0078 70.1641 59.1797C70.638 59.3516 71.0104 59.5807 71.2812 59.8672C71.5573 60.1536 71.75 60.4688 71.8594 60.8125C71.974 61.151 72.0312 61.4896 72.0312 61.8281C72.0312 62.3594 71.9401 62.8307 71.7578 63.2422C71.5807 63.6536 71.3281 64.0026 71 64.2891C70.6771 64.5755 70.2969 64.7917 69.8594 64.9375C69.4219 65.0833 68.9453 65.1562 68.4297 65.1562C67.9349 65.1562 67.4688 65.0859 67.0312 64.9453C66.599 64.8047 66.2161 64.6016 65.8828 64.3359C65.5495 64.0651 65.2891 63.7344 65.1016 63.3438C64.9141 62.9479 64.8203 62.4974 64.8203 61.9922H66.2656C66.2656 62.388 66.3516 62.7344 66.5234 63.0312C66.7005 63.3281 66.9505 63.5599 67.2734 63.7266C67.6016 63.888 67.987 63.9688 68.4297 63.9688C68.8724 63.9688 69.2526 63.8932 69.5703 63.7422C69.8932 63.5859 70.1406 63.3516 70.3125 63.0391C70.4896 62.7266 70.5781 62.3333 70.5781 61.8594C70.5781 61.3854 70.4792 60.9974 70.2812 60.6953C70.0833 60.388 69.8021 60.1615 69.4375 60.0156C69.0781 59.8646 68.6536 59.7891 68.1641 59.7891H67.1328ZM76.1328 58.6016H77.1641C77.6693 58.6016 78.0859 58.5182 78.4141 58.3516C78.7474 58.1797 78.9948 57.9479 79.1562 57.6562C79.3229 57.3594 79.4062 57.026 79.4062 56.6562C79.4062 56.2188 79.3333 55.8516 79.1875 55.5547C79.0417 55.2578 78.8229 55.0339 78.5312 54.8828C78.2396 54.7318 77.8698 54.6562 77.4219 54.6562C77.0156 54.6562 76.6562 54.737 76.3438 54.8984C76.0365 55.0547 75.7943 55.2786 75.6172 55.5703C75.4453 55.862 75.3594 56.2057 75.3594 56.6016H73.9141C73.9141 56.0234 74.0599 55.4974 74.3516 55.0234C74.6432 54.5495 75.0521 54.1719 75.5781 53.8906C76.1094 53.6094 76.724 53.4688 77.4219 53.4688C78.1094 53.4688 78.7109 53.5911 79.2266 53.8359C79.7422 54.0755 80.1432 54.4349 80.4297 54.9141C80.7161 55.388 80.8594 55.9792 80.8594 56.6875C80.8594 56.974 80.7917 57.2812 80.6562 57.6094C80.526 57.9323 80.3203 58.2344 80.0391 58.5156C79.763 58.7969 79.4036 59.0286 78.9609 59.2109C78.5182 59.388 77.987 59.4766 77.3672 59.4766H76.1328V58.6016ZM76.1328 59.7891V58.9219H77.3672C78.0911 58.9219 78.6901 59.0078 79.1641 59.1797C79.638 59.3516 80.0104 59.5807 80.2812 59.8672C80.5573 60.1536 80.75 60.4688 80.8594 60.8125C80.974 61.151 81.0312 61.4896 81.0312 61.8281C81.0312 62.3594 80.9401 62.8307 80.7578 63.2422C80.5807 63.6536 80.3281 64.0026 80 64.2891C79.6771 64.5755 79.2969 64.7917 78.8594 64.9375C78.4219 65.0833 77.9453 65.1562 77.4297 65.1562C76.9349 65.1562 76.4688 65.0859 76.0312 64.9453C75.599 64.8047 75.2161 64.6016 74.8828 64.3359C74.5495 64.0651 74.2891 63.7344 74.1016 63.3438C73.9141 62.9479 73.8203 62.4974 73.8203 61.9922H75.2656C75.2656 62.388 75.3516 62.7344 75.5234 63.0312C75.7005 63.3281 75.9505 63.5599 76.2734 63.7266C76.6016 63.888 76.987 63.9688 77.4297 63.9688C77.8724 63.9688 78.2526 63.8932 78.5703 63.7422C78.8932 63.5859 79.1406 63.3516 79.3125 63.0391C79.4896 62.7266 79.5781 62.3333 79.5781 61.8594C79.5781 61.3854 79.4792 60.9974 79.2812 60.6953C79.0833 60.388 78.8021 60.1615 78.4375 60.0156C78.0781 59.8646 77.6536 59.7891 77.1641 59.7891H76.1328ZM88.5703 53.6094H88.6953V54.8359H88.5703C87.8047 54.8359 87.1641 54.9609 86.6484 55.2109C86.1328 55.4557 85.724 55.7865 85.4219 56.2031C85.1198 56.6146 84.901 57.0781 84.7656 57.5938C84.6354 58.1094 84.5703 58.6328 84.5703 59.1641V60.8359C84.5703 61.3411 84.6302 61.7891 84.75 62.1797C84.8698 62.5651 85.0339 62.8906 85.2422 63.1562C85.4505 63.4219 85.6849 63.6224 85.9453 63.7578C86.2109 63.8932 86.487 63.9609 86.7734 63.9609C87.1068 63.9609 87.4036 63.8984 87.6641 63.7734C87.9245 63.6432 88.1432 63.4635 88.3203 63.2344C88.5026 63 88.6406 62.724 88.7344 62.4062C88.8281 62.0885 88.875 61.7396 88.875 61.3594C88.875 61.0208 88.8333 60.6953 88.75 60.3828C88.6667 60.0651 88.5391 59.7839 88.3672 59.5391C88.1953 59.2891 87.9792 59.0938 87.7188 58.9531C87.4635 58.8073 87.1589 58.7344 86.8047 58.7344C86.4036 58.7344 86.0286 58.8333 85.6797 59.0312C85.3359 59.224 85.0521 59.4792 84.8281 59.7969C84.6094 60.1094 84.4844 60.4505 84.4531 60.8203L83.6875 60.8125C83.7604 60.2292 83.8958 59.7318 84.0938 59.3203C84.2969 58.9036 84.5469 58.5651 84.8438 58.3047C85.1458 58.0391 85.4818 57.8464 85.8516 57.7266C86.2266 57.6016 86.6224 57.5391 87.0391 57.5391C87.6068 57.5391 88.0964 57.6458 88.5078 57.8594C88.9193 58.0729 89.2578 58.3594 89.5234 58.7188C89.7891 59.0729 89.9844 59.474 90.1094 59.9219C90.2396 60.3646 90.3047 60.8203 90.3047 61.2891C90.3047 61.8255 90.2292 62.3281 90.0781 62.7969C89.9271 63.2656 89.7005 63.6771 89.3984 64.0312C89.1016 64.3854 88.7344 64.6615 88.2969 64.8594C87.8594 65.0573 87.3516 65.1562 86.7734 65.1562C86.1589 65.1562 85.6224 65.0312 85.1641 64.7812C84.7057 64.526 84.3255 64.1875 84.0234 63.7656C83.7214 63.3438 83.4948 62.875 83.3438 62.3594C83.1927 61.8438 83.1172 61.3203 83.1172 60.7891V60.1094C83.1172 59.3073 83.1979 58.5208 83.3594 57.75C83.5208 56.9792 83.7995 56.2812 84.1953 55.6562C84.5964 55.0312 85.151 54.5339 85.8594 54.1641C86.5677 53.7943 87.4714 53.6094 88.5703 53.6094ZM93.4609 63.7891H93.6094C94.4427 63.7891 95.1198 63.6719 95.6406 63.4375C96.1615 63.2031 96.5625 62.888 96.8438 62.4922C97.125 62.0964 97.3177 61.651 97.4219 61.1562C97.526 60.6562 97.5781 60.1432 97.5781 59.6172V57.875C97.5781 57.3594 97.5182 56.901 97.3984 56.5C97.2839 56.099 97.1224 55.763 96.9141 55.4922C96.7109 55.2214 96.4792 55.0156 96.2188 54.875C95.9583 54.7344 95.6823 54.6641 95.3906 54.6641C95.0573 54.6641 94.7578 54.7318 94.4922 54.8672C94.2318 54.9974 94.0104 55.1823 93.8281 55.4219C93.651 55.6615 93.5156 55.9427 93.4219 56.2656C93.3281 56.5885 93.2812 56.9401 93.2812 57.3203C93.2812 57.6589 93.3229 57.987 93.4062 58.3047C93.4896 58.6224 93.6172 58.9089 93.7891 59.1641C93.9609 59.4193 94.1745 59.6224 94.4297 59.7734C94.6901 59.9193 94.9948 59.9922 95.3438 59.9922C95.6667 59.9922 95.9688 59.9297 96.25 59.8047C96.5365 59.6745 96.7891 59.5 97.0078 59.2812C97.2318 59.0573 97.4089 58.8047 97.5391 58.5234C97.6745 58.2422 97.7526 57.9479 97.7734 57.6406H98.4609C98.4609 58.0729 98.375 58.5 98.2031 58.9219C98.0365 59.3385 97.8021 59.7188 97.5 60.0625C97.1979 60.4062 96.8438 60.6823 96.4375 60.8906C96.0312 61.0938 95.5885 61.1953 95.1094 61.1953C94.5469 61.1953 94.0599 61.0859 93.6484 60.8672C93.237 60.6484 92.8984 60.3568 92.6328 59.9922C92.3724 59.6276 92.1771 59.2214 92.0469 58.7734C91.9219 58.3203 91.8594 57.862 91.8594 57.3984C91.8594 56.8568 91.9349 56.349 92.0859 55.875C92.237 55.401 92.4609 54.9844 92.7578 54.625C93.0547 54.2604 93.4219 53.9766 93.8594 53.7734C94.3021 53.5703 94.8125 53.4688 95.3906 53.4688C96.0417 53.4688 96.5964 53.599 97.0547 53.8594C97.513 54.1198 97.8854 54.4688 98.1719 54.9062C98.4635 55.3438 98.6771 55.8359 98.8125 56.3828C98.9479 56.9297 99.0156 57.4922 99.0156 58.0703V58.5938C99.0156 59.1823 98.9766 59.7812 98.8984 60.3906C98.8255 60.9948 98.6823 61.5729 98.4688 62.125C98.2604 62.6771 97.9557 63.1719 97.5547 63.6094C97.1536 64.0417 96.6302 64.3854 95.9844 64.6406C95.3438 64.8906 94.5521 65.0156 93.6094 65.0156H93.4609V63.7891ZM102.852 59.5859L101.695 59.2891L102.266 53.625H108.102V54.9609H103.492L103.148 58.0547C103.357 57.9349 103.62 57.8229 103.938 57.7188C104.26 57.6146 104.63 57.5625 105.047 57.5625C105.573 57.5625 106.044 57.6536 106.461 57.8359C106.878 58.013 107.232 58.2682 107.523 58.6016C107.82 58.9349 108.047 59.3359 108.203 59.8047C108.359 60.2734 108.438 60.7969 108.438 61.375C108.438 61.9219 108.362 62.4245 108.211 62.8828C108.065 63.3411 107.844 63.7422 107.547 64.0859C107.25 64.4245 106.875 64.6875 106.422 64.875C105.974 65.0625 105.445 65.1562 104.836 65.1562C104.378 65.1562 103.943 65.0938 103.531 64.9688C103.125 64.8385 102.76 64.6432 102.438 64.3828C102.12 64.1172 101.859 63.7891 101.656 63.3984C101.458 63.0026 101.333 62.5391 101.281 62.0078H102.656C102.719 62.4349 102.844 62.7943 103.031 63.0859C103.219 63.3776 103.464 63.599 103.766 63.75C104.073 63.8958 104.43 63.9688 104.836 63.9688C105.18 63.9688 105.484 63.9089 105.75 63.7891C106.016 63.6693 106.24 63.4974 106.422 63.2734C106.604 63.0495 106.742 62.7786 106.836 62.4609C106.935 62.1432 106.984 61.7865 106.984 61.3906C106.984 61.0312 106.935 60.6979 106.836 60.3906C106.737 60.0833 106.589 59.8151 106.391 59.5859C106.198 59.3568 105.961 59.1797 105.68 59.0547C105.398 58.9245 105.076 58.8594 104.711 58.8594C104.227 58.8594 103.859 58.9245 103.609 59.0547C103.365 59.1849 103.112 59.362 102.852 59.5859ZM111.461 63.7891H111.609C112.443 63.7891 113.12 63.6719 113.641 63.4375C114.161 63.2031 114.562 62.888 114.844 62.4922C115.125 62.0964 115.318 61.651 115.422 61.1562C115.526 60.6562 115.578 60.1432 115.578 59.6172V57.875C115.578 57.3594 115.518 56.901 115.398 56.5C115.284 56.099 115.122 55.763 114.914 55.4922C114.711 55.2214 114.479 55.0156 114.219 54.875C113.958 54.7344 113.682 54.6641 113.391 54.6641C113.057 54.6641 112.758 54.7318 112.492 54.8672C112.232 54.9974 112.01 55.1823 111.828 55.4219C111.651 55.6615 111.516 55.9427 111.422 56.2656C111.328 56.5885 111.281 56.9401 111.281 57.3203C111.281 57.6589 111.323 57.987 111.406 58.3047C111.49 58.6224 111.617 58.9089 111.789 59.1641C111.961 59.4193 112.174 59.6224 112.43 59.7734C112.69 59.9193 112.995 59.9922 113.344 59.9922C113.667 59.9922 113.969 59.9297 114.25 59.8047C114.536 59.6745 114.789 59.5 115.008 59.2812C115.232 59.0573 115.409 58.8047 115.539 58.5234C115.674 58.2422 115.753 57.9479 115.773 57.6406H116.461C116.461 58.0729 116.375 58.5 116.203 58.9219C116.036 59.3385 115.802 59.7188 115.5 60.0625C115.198 60.4062 114.844 60.6823 114.438 60.8906C114.031 61.0938 113.589 61.1953 113.109 61.1953C112.547 61.1953 112.06 61.0859 111.648 60.8672C111.237 60.6484 110.898 60.3568 110.633 59.9922C110.372 59.6276 110.177 59.2214 110.047 58.7734C109.922 58.3203 109.859 57.862 109.859 57.3984C109.859 56.8568 109.935 56.349 110.086 55.875C110.237 55.401 110.461 54.9844 110.758 54.625C111.055 54.2604 111.422 53.9766 111.859 53.7734C112.302 53.5703 112.812 53.4688 113.391 53.4688C114.042 53.4688 114.596 53.599 115.055 53.8594C115.513 54.1198 115.885 54.4688 116.172 54.9062C116.464 55.3438 116.677 55.8359 116.812 56.3828C116.948 56.9297 117.016 57.4922 117.016 58.0703V58.5938C117.016 59.1823 116.977 59.7812 116.898 60.3906C116.826 60.9948 116.682 61.5729 116.469 62.125C116.26 62.6771 115.956 63.1719 115.555 63.6094C115.154 64.0417 114.63 64.3854 113.984 64.6406C113.344 64.8906 112.552 65.0156 111.609 65.0156H111.461V63.7891ZM120.852 59.5859L119.695 59.2891L120.266 53.625H126.102V54.9609H121.492L121.148 58.0547C121.357 57.9349 121.62 57.8229 121.938 57.7188C122.26 57.6146 122.63 57.5625 123.047 57.5625C123.573 57.5625 124.044 57.6536 124.461 57.8359C124.878 58.013 125.232 58.2682 125.523 58.6016C125.82 58.9349 126.047 59.3359 126.203 59.8047C126.359 60.2734 126.438 60.7969 126.438 61.375C126.438 61.9219 126.362 62.4245 126.211 62.8828C126.065 63.3411 125.844 63.7422 125.547 64.0859C125.25 64.4245 124.875 64.6875 124.422 64.875C123.974 65.0625 123.445 65.1562 122.836 65.1562C122.378 65.1562 121.943 65.0938 121.531 64.9688C121.125 64.8385 120.76 64.6432 120.438 64.3828C120.12 64.1172 119.859 63.7891 119.656 63.3984C119.458 63.0026 119.333 62.5391 119.281 62.0078H120.656C120.719 62.4349 120.844 62.7943 121.031 63.0859C121.219 63.3776 121.464 63.599 121.766 63.75C122.073 63.8958 122.43 63.9688 122.836 63.9688C123.18 63.9688 123.484 63.9089 123.75 63.7891C124.016 63.6693 124.24 63.4974 124.422 63.2734C124.604 63.0495 124.742 62.7786 124.836 62.4609C124.935 62.1432 124.984 61.7865 124.984 61.3906C124.984 61.0312 124.935 60.6979 124.836 60.3906C124.737 60.0833 124.589 59.8151 124.391 59.5859C124.198 59.3568 123.961 59.1797 123.68 59.0547C123.398 58.9245 123.076 58.8594 122.711 58.8594C122.227 58.8594 121.859 58.9245 121.609 59.0547C121.365 59.1849 121.112 59.362 120.852 59.5859ZM129.852 59.5859L128.695 59.2891L129.266 53.625H135.102V54.9609H130.492L130.148 58.0547C130.357 57.9349 130.62 57.8229 130.938 57.7188C131.26 57.6146 131.63 57.5625 132.047 57.5625C132.573 57.5625 133.044 57.6536 133.461 57.8359C133.878 58.013 134.232 58.2682 134.523 58.6016C134.82 58.9349 135.047 59.3359 135.203 59.8047C135.359 60.2734 135.438 60.7969 135.438 61.375C135.438 61.9219 135.362 62.4245 135.211 62.8828C135.065 63.3411 134.844 63.7422 134.547 64.0859C134.25 64.4245 133.875 64.6875 133.422 64.875C132.974 65.0625 132.445 65.1562 131.836 65.1562C131.378 65.1562 130.943 65.0938 130.531 64.9688C130.125 64.8385 129.76 64.6432 129.438 64.3828C129.12 64.1172 128.859 63.7891 128.656 63.3984C128.458 63.0026 128.333 62.5391 128.281 62.0078H129.656C129.719 62.4349 129.844 62.7943 130.031 63.0859C130.219 63.3776 130.464 63.599 130.766 63.75C131.073 63.8958 131.43 63.9688 131.836 63.9688C132.18 63.9688 132.484 63.9089 132.75 63.7891C133.016 63.6693 133.24 63.4974 133.422 63.2734C133.604 63.0495 133.742 62.7786 133.836 62.4609C133.935 62.1432 133.984 61.7865 133.984 61.3906C133.984 61.0312 133.935 60.6979 133.836 60.3906C133.737 60.0833 133.589 59.8151 133.391 59.5859C133.198 59.3568 132.961 59.1797 132.68 59.0547C132.398 58.9245 132.076 58.8594 131.711 58.8594C131.227 58.8594 130.859 58.9245 130.609 59.0547C130.365 59.1849 130.112 59.362 129.852 59.5859ZM144.164 58.4062V60.1406C144.164 61.0729 144.081 61.8594 143.914 62.5C143.747 63.1406 143.508 63.6562 143.195 64.0469C142.883 64.4375 142.505 64.7214 142.062 64.8984C141.625 65.0703 141.13 65.1562 140.578 65.1562C140.141 65.1562 139.737 65.1016 139.367 64.9922C138.997 64.8828 138.664 64.7083 138.367 64.4688C138.076 64.224 137.826 63.9062 137.617 63.5156C137.409 63.125 137.25 62.651 137.141 62.0938C137.031 61.5365 136.977 60.8854 136.977 60.1406V58.4062C136.977 57.474 137.06 56.6927 137.227 56.0625C137.398 55.4323 137.641 54.9271 137.953 54.5469C138.266 54.1615 138.641 53.8854 139.078 53.7188C139.521 53.5521 140.016 53.4688 140.562 53.4688C141.005 53.4688 141.411 53.5234 141.781 53.6328C142.156 53.737 142.49 53.9062 142.781 54.1406C143.073 54.3698 143.32 54.6771 143.523 55.0625C143.732 55.4427 143.891 55.9089 144 56.4609C144.109 57.013 144.164 57.6615 144.164 58.4062ZM142.711 60.375V58.1641C142.711 57.6536 142.68 57.2057 142.617 56.8203C142.56 56.4297 142.474 56.0964 142.359 55.8203C142.245 55.5443 142.099 55.3203 141.922 55.1484C141.75 54.9766 141.549 54.8516 141.32 54.7734C141.096 54.6901 140.844 54.6484 140.562 54.6484C140.219 54.6484 139.914 54.7135 139.648 54.8438C139.383 54.9688 139.159 55.1693 138.977 55.4453C138.799 55.7214 138.664 56.0833 138.57 56.5312C138.477 56.9792 138.43 57.5234 138.43 58.1641V60.375C138.43 60.8854 138.458 61.3359 138.516 61.7266C138.578 62.1172 138.669 62.4557 138.789 62.7422C138.909 63.0234 139.055 63.2552 139.227 63.4375C139.398 63.6198 139.596 63.7552 139.82 63.8438C140.049 63.9271 140.302 63.9688 140.578 63.9688C140.932 63.9688 141.242 63.901 141.508 63.7656C141.773 63.6302 141.995 63.4193 142.172 63.1328C142.354 62.8411 142.49 62.4688 142.578 62.0156C142.667 61.5573 142.711 61.0104 142.711 60.375Z" fill="white"/>
<path d="M19.231 63.2617L16.691 62.9717C16.081 62.9017 15.481 63.1117 15.051 63.5417L13.211 65.3817C10.381 63.9417 8.06102 61.6317 6.62102 58.7917L8.47102 56.9417C8.90102 56.5117 9.11102 55.9117 9.04102 55.3017L8.75102 52.7817C8.63102 51.7717 7.78102 51.0117 6.76102 51.0117H5.03102C3.90102 51.0117 2.96102 51.9517 3.03102 53.0817C3.56102 61.6217 10.391 68.4417 18.921 68.9717C20.051 69.0417 20.991 68.1017 20.991 66.9717V65.2417C21.001 64.2317 20.241 63.3817 19.231 63.2617Z" fill="white"/>
<path d="M36.4062 94.8984V96.2578H28.6094V94.8984H36.4062ZM33.2344 91.5781V99.8594H31.7891V91.5781H33.2344ZM39.4609 99.7891H39.6094C40.4427 99.7891 41.1198 99.6719 41.6406 99.4375C42.1615 99.2031 42.5625 98.888 42.8438 98.4922C43.125 98.0964 43.3177 97.651 43.4219 97.1562C43.526 96.6562 43.5781 96.1432 43.5781 95.6172V93.875C43.5781 93.3594 43.5182 92.901 43.3984 92.5C43.2839 92.099 43.1224 91.763 42.9141 91.4922C42.7109 91.2214 42.4792 91.0156 42.2188 90.875C41.9583 90.7344 41.6823 90.6641 41.3906 90.6641C41.0573 90.6641 40.7578 90.7318 40.4922 90.8672C40.2318 90.9974 40.0104 91.1823 39.8281 91.4219C39.651 91.6615 39.5156 91.9427 39.4219 92.2656C39.3281 92.5885 39.2812 92.9401 39.2812 93.3203C39.2812 93.6589 39.3229 93.987 39.4062 94.3047C39.4896 94.6224 39.6172 94.9089 39.7891 95.1641C39.9609 95.4193 40.1745 95.6224 40.4297 95.7734C40.6901 95.9193 40.9948 95.9922 41.3438 95.9922C41.6667 95.9922 41.9688 95.9297 42.25 95.8047C42.5365 95.6745 42.7891 95.5 43.0078 95.2812C43.2318 95.0573 43.4089 94.8047 43.5391 94.5234C43.6745 94.2422 43.7526 93.9479 43.7734 93.6406H44.4609C44.4609 94.0729 44.375 94.5 44.2031 94.9219C44.0365 95.3385 43.8021 95.7188 43.5 96.0625C43.1979 96.4062 42.8438 96.6823 42.4375 96.8906C42.0312 97.0938 41.5885 97.1953 41.1094 97.1953C40.5469 97.1953 40.0599 97.0859 39.6484 96.8672C39.237 96.6484 38.8984 96.3568 38.6328 95.9922C38.3724 95.6276 38.1771 95.2214 38.0469 94.7734C37.9219 94.3203 37.8594 93.862 37.8594 93.3984C37.8594 92.8568 37.9349 92.349 38.0859 91.875C38.237 91.401 38.4609 90.9844 38.7578 90.625C39.0547 90.2604 39.4219 89.9766 39.8594 89.7734C40.3021 89.5703 40.8125 89.4688 41.3906 89.4688C42.0417 89.4688 42.5964 89.599 43.0547 89.8594C43.513 90.1198 43.8854 90.4688 44.1719 90.9062C44.4635 91.3438 44.6771 91.8359 44.8125 92.3828C44.9479 92.9297 45.0156 93.4922 45.0156 94.0703V94.5938C45.0156 95.1823 44.9766 95.7812 44.8984 96.3906C44.8255 96.9948 44.6823 97.5729 44.4688 98.125C44.2604 98.6771 43.9557 99.1719 43.5547 99.6094C43.1536 100.042 42.6302 100.385 41.9844 100.641C41.3438 100.891 40.5521 101.016 39.6094 101.016H39.4609V99.7891ZM48.4609 99.7891H48.6094C49.4427 99.7891 50.1198 99.6719 50.6406 99.4375C51.1615 99.2031 51.5625 98.888 51.8438 98.4922C52.125 98.0964 52.3177 97.651 52.4219 97.1562C52.526 96.6562 52.5781 96.1432 52.5781 95.6172V93.875C52.5781 93.3594 52.5182 92.901 52.3984 92.5C52.2839 92.099 52.1224 91.763 51.9141 91.4922C51.7109 91.2214 51.4792 91.0156 51.2188 90.875C50.9583 90.7344 50.6823 90.6641 50.3906 90.6641C50.0573 90.6641 49.7578 90.7318 49.4922 90.8672C49.2318 90.9974 49.0104 91.1823 48.8281 91.4219C48.651 91.6615 48.5156 91.9427 48.4219 92.2656C48.3281 92.5885 48.2812 92.9401 48.2812 93.3203C48.2812 93.6589 48.3229 93.987 48.4062 94.3047C48.4896 94.6224 48.6172 94.9089 48.7891 95.1641C48.9609 95.4193 49.1745 95.6224 49.4297 95.7734C49.6901 95.9193 49.9948 95.9922 50.3438 95.9922C50.6667 95.9922 50.9688 95.9297 51.25 95.8047C51.5365 95.6745 51.7891 95.5 52.0078 95.2812C52.2318 95.0573 52.4089 94.8047 52.5391 94.5234C52.6745 94.2422 52.7526 93.9479 52.7734 93.6406H53.4609C53.4609 94.0729 53.375 94.5 53.2031 94.9219C53.0365 95.3385 52.8021 95.7188 52.5 96.0625C52.1979 96.4062 51.8438 96.6823 51.4375 96.8906C51.0312 97.0938 50.5885 97.1953 50.1094 97.1953C49.5469 97.1953 49.0599 97.0859 48.6484 96.8672C48.237 96.6484 47.8984 96.3568 47.6328 95.9922C47.3724 95.6276 47.1771 95.2214 47.0469 94.7734C46.9219 94.3203 46.8594 93.862 46.8594 93.3984C46.8594 92.8568 46.9349 92.349 47.0859 91.875C47.237 91.401 47.4609 90.9844 47.7578 90.625C48.0547 90.2604 48.4219 89.9766 48.8594 89.7734C49.3021 89.5703 49.8125 89.4688 50.3906 89.4688C51.0417 89.4688 51.5964 89.599 52.0547 89.8594C52.513 90.1198 52.8854 90.4688 53.1719 90.9062C53.4635 91.3438 53.6771 91.8359 53.8125 92.3828C53.9479 92.9297 54.0156 93.4922 54.0156 94.0703V94.5938C54.0156 95.1823 53.9766 95.7812 53.8984 96.3906C53.8255 96.9948 53.6823 97.5729 53.4688 98.125C53.2604 98.6771 52.9557 99.1719 52.5547 99.6094C52.1536 100.042 51.6302 100.385 50.9844 100.641C50.3438 100.891 49.5521 101.016 48.6094 101.016H48.4609V99.7891ZM63.1953 97.9219C63.1953 98.6146 63.0339 99.2031 62.7109 99.6875C62.3932 100.167 61.9609 100.531 61.4141 100.781C60.8724 101.031 60.2604 101.156 59.5781 101.156C58.8958 101.156 58.2812 101.031 57.7344 100.781C57.1875 100.531 56.7552 100.167 56.4375 99.6875C56.1198 99.2031 55.9609 98.6146 55.9609 97.9219C55.9609 97.4688 56.0469 97.0547 56.2188 96.6797C56.3958 96.2995 56.6432 95.9688 56.9609 95.6875C57.2839 95.4062 57.6641 95.1901 58.1016 95.0391C58.5443 94.8828 59.0312 94.8047 59.5625 94.8047C60.2604 94.8047 60.8828 94.9401 61.4297 95.2109C61.9766 95.4766 62.4062 95.8438 62.7188 96.3125C63.0365 96.7812 63.1953 97.3177 63.1953 97.9219ZM61.7422 97.8906C61.7422 97.4688 61.651 97.0964 61.4688 96.7734C61.2865 96.4453 61.0312 96.1901 60.7031 96.0078C60.375 95.8255 59.9948 95.7344 59.5625 95.7344C59.1198 95.7344 58.737 95.8255 58.4141 96.0078C58.0964 96.1901 57.849 96.4453 57.6719 96.7734C57.4948 97.0964 57.4062 97.4688 57.4062 97.8906C57.4062 98.3281 57.4922 98.7031 57.6641 99.0156C57.8411 99.3229 58.0911 99.5599 58.4141 99.7266C58.7422 99.888 59.1302 99.9688 59.5781 99.9688C60.026 99.9688 60.4115 99.888 60.7344 99.7266C61.0573 99.5599 61.3047 99.3229 61.4766 99.0156C61.6536 98.7031 61.7422 98.3281 61.7422 97.8906ZM62.9297 92.5859C62.9297 93.138 62.7839 93.6354 62.4922 94.0781C62.2005 94.5208 61.8021 94.8698 61.2969 95.125C60.7917 95.3802 60.2188 95.5078 59.5781 95.5078C58.9271 95.5078 58.3464 95.3802 57.8359 95.125C57.3307 94.8698 56.9349 94.5208 56.6484 94.0781C56.362 93.6354 56.2188 93.138 56.2188 92.5859C56.2188 91.9245 56.362 91.362 56.6484 90.8984C56.9401 90.4349 57.3385 90.0807 57.8438 89.8359C58.349 89.5911 58.9245 89.4688 59.5703 89.4688C60.2214 89.4688 60.7995 89.5911 61.3047 89.8359C61.8099 90.0807 62.2057 90.4349 62.4922 90.8984C62.7839 91.362 62.9297 91.9245 62.9297 92.5859ZM61.4844 92.6094C61.4844 92.2292 61.4036 91.8932 61.2422 91.6016C61.0807 91.3099 60.8568 91.0807 60.5703 90.9141C60.2839 90.7422 59.9505 90.6562 59.5703 90.6562C59.1901 90.6562 58.8568 90.737 58.5703 90.8984C58.2891 91.0547 58.0677 91.2786 57.9062 91.5703C57.75 91.862 57.6719 92.2083 57.6719 92.6094C57.6719 93 57.75 93.3411 57.9062 93.6328C58.0677 93.9245 58.2917 94.151 58.5781 94.3125C58.8646 94.474 59.1979 94.5547 59.5781 94.5547C59.9583 94.5547 60.2891 94.474 60.5703 94.3125C60.8568 94.151 61.0807 93.9245 61.2422 93.6328C61.4036 93.3411 61.4844 93 61.4844 92.6094ZM67.1328 94.6016H68.1641C68.6693 94.6016 69.0859 94.5182 69.4141 94.3516C69.7474 94.1797 69.9948 93.9479 70.1562 93.6562C70.3229 93.3594 70.4062 93.026 70.4062 92.6562C70.4062 92.2188 70.3333 91.8516 70.1875 91.5547C70.0417 91.2578 69.8229 91.0339 69.5312 90.8828C69.2396 90.7318 68.8698 90.6562 68.4219 90.6562C68.0156 90.6562 67.6562 90.737 67.3438 90.8984C67.0365 91.0547 66.7943 91.2786 66.6172 91.5703C66.4453 91.862 66.3594 92.2057 66.3594 92.6016H64.9141C64.9141 92.0234 65.0599 91.4974 65.3516 91.0234C65.6432 90.5495 66.0521 90.1719 66.5781 89.8906C67.1094 89.6094 67.724 89.4688 68.4219 89.4688C69.1094 89.4688 69.7109 89.5911 70.2266 89.8359C70.7422 90.0755 71.1432 90.4349 71.4297 90.9141C71.7161 91.388 71.8594 91.9792 71.8594 92.6875C71.8594 92.974 71.7917 93.2812 71.6562 93.6094C71.526 93.9323 71.3203 94.2344 71.0391 94.5156C70.763 94.7969 70.4036 95.0286 69.9609 95.2109C69.5182 95.388 68.987 95.4766 68.3672 95.4766H67.1328V94.6016ZM67.1328 95.7891V94.9219H68.3672C69.0911 94.9219 69.6901 95.0078 70.1641 95.1797C70.638 95.3516 71.0104 95.5807 71.2812 95.8672C71.5573 96.1536 71.75 96.4688 71.8594 96.8125C71.974 97.151 72.0312 97.4896 72.0312 97.8281C72.0312 98.3594 71.9401 98.8307 71.7578 99.2422C71.5807 99.6536 71.3281 100.003 71 100.289C70.6771 100.576 70.2969 100.792 69.8594 100.938C69.4219 101.083 68.9453 101.156 68.4297 101.156C67.9349 101.156 67.4688 101.086 67.0312 100.945C66.599 100.805 66.2161 100.602 65.8828 100.336C65.5495 100.065 65.2891 99.7344 65.1016 99.3438C64.9141 98.9479 64.8203 98.4974 64.8203 97.9922H66.2656C66.2656 98.388 66.3516 98.7344 66.5234 99.0312C66.7005 99.3281 66.9505 99.5599 67.2734 99.7266C67.6016 99.888 67.987 99.9688 68.4297 99.9688C68.8724 99.9688 69.2526 99.8932 69.5703 99.7422C69.8932 99.5859 70.1406 99.3516 70.3125 99.0391C70.4896 98.7266 70.5781 98.3333 70.5781 97.8594C70.5781 97.3854 70.4792 96.9974 70.2812 96.6953C70.0833 96.388 69.8021 96.1615 69.4375 96.0156C69.0781 95.8646 68.6536 95.7891 68.1641 95.7891H67.1328ZM76.1328 94.6016H77.1641C77.6693 94.6016 78.0859 94.5182 78.4141 94.3516C78.7474 94.1797 78.9948 93.9479 79.1562 93.6562C79.3229 93.3594 79.4062 93.026 79.4062 92.6562C79.4062 92.2188 79.3333 91.8516 79.1875 91.5547C79.0417 91.2578 78.8229 91.0339 78.5312 90.8828C78.2396 90.7318 77.8698 90.6562 77.4219 90.6562C77.0156 90.6562 76.6562 90.737 76.3438 90.8984C76.0365 91.0547 75.7943 91.2786 75.6172 91.5703C75.4453 91.862 75.3594 92.2057 75.3594 92.6016H73.9141C73.9141 92.0234 74.0599 91.4974 74.3516 91.0234C74.6432 90.5495 75.0521 90.1719 75.5781 89.8906C76.1094 89.6094 76.724 89.4688 77.4219 89.4688C78.1094 89.4688 78.7109 89.5911 79.2266 89.8359C79.7422 90.0755 80.1432 90.4349 80.4297 90.9141C80.7161 91.388 80.8594 91.9792 80.8594 92.6875C80.8594 92.974 80.7917 93.2812 80.6562 93.6094C80.526 93.9323 80.3203 94.2344 80.0391 94.5156C79.763 94.7969 79.4036 95.0286 78.9609 95.2109C78.5182 95.388 77.987 95.4766 77.3672 95.4766H76.1328V94.6016ZM76.1328 95.7891V94.9219H77.3672C78.0911 94.9219 78.6901 95.0078 79.1641 95.1797C79.638 95.3516 80.0104 95.5807 80.2812 95.8672C80.5573 96.1536 80.75 96.4688 80.8594 96.8125C80.974 97.151 81.0312 97.4896 81.0312 97.8281C81.0312 98.3594 80.9401 98.8307 80.7578 99.2422C80.5807 99.6536 80.3281 100.003 80 100.289C79.6771 100.576 79.2969 100.792 78.8594 100.938C78.4219 101.083 77.9453 101.156 77.4297 101.156C76.9349 101.156 76.4688 101.086 76.0312 100.945C75.599 100.805 75.2161 100.602 74.8828 100.336C74.5495 100.065 74.2891 99.7344 74.1016 99.3438C73.9141 98.9479 73.8203 98.4974 73.8203 97.9922H75.2656C75.2656 98.388 75.3516 98.7344 75.5234 99.0312C75.7005 99.3281 75.9505 99.5599 76.2734 99.7266C76.6016 99.888 76.987 99.9688 77.4297 99.9688C77.8724 99.9688 78.2526 99.8932 78.5703 99.7422C78.8932 99.5859 79.1406 99.3516 79.3125 99.0391C79.4896 98.7266 79.5781 98.3333 79.5781 97.8594C79.5781 97.3854 79.4792 96.9974 79.2812 96.6953C79.0833 96.388 78.8021 96.1615 78.4375 96.0156C78.0781 95.8646 77.6536 95.7891 77.1641 95.7891H76.1328ZM88.5703 89.6094H88.6953V90.8359H88.5703C87.8047 90.8359 87.1641 90.9609 86.6484 91.2109C86.1328 91.4557 85.724 91.7865 85.4219 92.2031C85.1198 92.6146 84.901 93.0781 84.7656 93.5938C84.6354 94.1094 84.5703 94.6328 84.5703 95.1641V96.8359C84.5703 97.3411 84.6302 97.7891 84.75 98.1797C84.8698 98.5651 85.0339 98.8906 85.2422 99.1562C85.4505 99.4219 85.6849 99.6224 85.9453 99.7578C86.2109 99.8932 86.487 99.9609 86.7734 99.9609C87.1068 99.9609 87.4036 99.8984 87.6641 99.7734C87.9245 99.6432 88.1432 99.4635 88.3203 99.2344C88.5026 99 88.6406 98.724 88.7344 98.4062C88.8281 98.0885 88.875 97.7396 88.875 97.3594C88.875 97.0208 88.8333 96.6953 88.75 96.3828C88.6667 96.0651 88.5391 95.7839 88.3672 95.5391C88.1953 95.2891 87.9792 95.0938 87.7188 94.9531C87.4635 94.8073 87.1589 94.7344 86.8047 94.7344C86.4036 94.7344 86.0286 94.8333 85.6797 95.0312C85.3359 95.224 85.0521 95.4792 84.8281 95.7969C84.6094 96.1094 84.4844 96.4505 84.4531 96.8203L83.6875 96.8125C83.7604 96.2292 83.8958 95.7318 84.0938 95.3203C84.2969 94.9036 84.5469 94.5651 84.8438 94.3047C85.1458 94.0391 85.4818 93.8464 85.8516 93.7266C86.2266 93.6016 86.6224 93.5391 87.0391 93.5391C87.6068 93.5391 88.0964 93.6458 88.5078 93.8594C88.9193 94.0729 89.2578 94.3594 89.5234 94.7188C89.7891 95.0729 89.9844 95.474 90.1094 95.9219C90.2396 96.3646 90.3047 96.8203 90.3047 97.2891C90.3047 97.8255 90.2292 98.3281 90.0781 98.7969C89.9271 99.2656 89.7005 99.6771 89.3984 100.031C89.1016 100.385 88.7344 100.661 88.2969 100.859C87.8594 101.057 87.3516 101.156 86.7734 101.156C86.1589 101.156 85.6224 101.031 85.1641 100.781C84.7057 100.526 84.3255 100.188 84.0234 99.7656C83.7214 99.3438 83.4948 98.875 83.3438 98.3594C83.1927 97.8438 83.1172 97.3203 83.1172 96.7891V96.1094C83.1172 95.3073 83.1979 94.5208 83.3594 93.75C83.5208 92.9792 83.7995 92.2812 84.1953 91.6562C84.5964 91.0312 85.151 90.5339 85.8594 90.1641C86.5677 89.7943 87.4714 89.6094 88.5703 89.6094ZM93.4609 99.7891H93.6094C94.4427 99.7891 95.1198 99.6719 95.6406 99.4375C96.1615 99.2031 96.5625 98.888 96.8438 98.4922C97.125 98.0964 97.3177 97.651 97.4219 97.1562C97.526 96.6562 97.5781 96.1432 97.5781 95.6172V93.875C97.5781 93.3594 97.5182 92.901 97.3984 92.5C97.2839 92.099 97.1224 91.763 96.9141 91.4922C96.7109 91.2214 96.4792 91.0156 96.2188 90.875C95.9583 90.7344 95.6823 90.6641 95.3906 90.6641C95.0573 90.6641 94.7578 90.7318 94.4922 90.8672C94.2318 90.9974 94.0104 91.1823 93.8281 91.4219C93.651 91.6615 93.5156 91.9427 93.4219 92.2656C93.3281 92.5885 93.2812 92.9401 93.2812 93.3203C93.2812 93.6589 93.3229 93.987 93.4062 94.3047C93.4896 94.6224 93.6172 94.9089 93.7891 95.1641C93.9609 95.4193 94.1745 95.6224 94.4297 95.7734C94.6901 95.9193 94.9948 95.9922 95.3438 95.9922C95.6667 95.9922 95.9688 95.9297 96.25 95.8047C96.5365 95.6745 96.7891 95.5 97.0078 95.2812C97.2318 95.0573 97.4089 94.8047 97.5391 94.5234C97.6745 94.2422 97.7526 93.9479 97.7734 93.6406H98.4609C98.4609 94.0729 98.375 94.5 98.2031 94.9219C98.0365 95.3385 97.8021 95.7188 97.5 96.0625C97.1979 96.4062 96.8438 96.6823 96.4375 96.8906C96.0312 97.0938 95.5885 97.1953 95.1094 97.1953C94.5469 97.1953 94.0599 97.0859 93.6484 96.8672C93.237 96.6484 92.8984 96.3568 92.6328 95.9922C92.3724 95.6276 92.1771 95.2214 92.0469 94.7734C91.9219 94.3203 91.8594 93.862 91.8594 93.3984C91.8594 92.8568 91.9349 92.349 92.0859 91.875C92.237 91.401 92.4609 90.9844 92.7578 90.625C93.0547 90.2604 93.4219 89.9766 93.8594 89.7734C94.3021 89.5703 94.8125 89.4688 95.3906 89.4688C96.0417 89.4688 96.5964 89.599 97.0547 89.8594C97.513 90.1198 97.8854 90.4688 98.1719 90.9062C98.4635 91.3438 98.6771 91.8359 98.8125 92.3828C98.9479 92.9297 99.0156 93.4922 99.0156 94.0703V94.5938C99.0156 95.1823 98.9766 95.7812 98.8984 96.3906C98.8255 96.9948 98.6823 97.5729 98.4688 98.125C98.2604 98.6771 97.9557 99.1719 97.5547 99.6094C97.1536 100.042 96.6302 100.385 95.9844 100.641C95.3438 100.891 94.5521 101.016 93.6094 101.016H93.4609V99.7891ZM102.852 95.5859L101.695 95.2891L102.266 89.625H108.102V90.9609H103.492L103.148 94.0547C103.357 93.9349 103.62 93.8229 103.938 93.7188C104.26 93.6146 104.63 93.5625 105.047 93.5625C105.573 93.5625 106.044 93.6536 106.461 93.8359C106.878 94.013 107.232 94.2682 107.523 94.6016C107.82 94.9349 108.047 95.3359 108.203 95.8047C108.359 96.2734 108.438 96.7969 108.438 97.375C108.438 97.9219 108.362 98.4245 108.211 98.8828C108.065 99.3411 107.844 99.7422 107.547 100.086C107.25 100.424 106.875 100.688 106.422 100.875C105.974 101.062 105.445 101.156 104.836 101.156C104.378 101.156 103.943 101.094 103.531 100.969C103.125 100.839 102.76 100.643 102.438 100.383C102.12 100.117 101.859 99.7891 101.656 99.3984C101.458 99.0026 101.333 98.5391 101.281 98.0078H102.656C102.719 98.4349 102.844 98.7943 103.031 99.0859C103.219 99.3776 103.464 99.599 103.766 99.75C104.073 99.8958 104.43 99.9688 104.836 99.9688C105.18 99.9688 105.484 99.9089 105.75 99.7891C106.016 99.6693 106.24 99.4974 106.422 99.2734C106.604 99.0495 106.742 98.7786 106.836 98.4609C106.935 98.1432 106.984 97.7865 106.984 97.3906C106.984 97.0312 106.935 96.6979 106.836 96.3906C106.737 96.0833 106.589 95.8151 106.391 95.5859C106.198 95.3568 105.961 95.1797 105.68 95.0547C105.398 94.9245 105.076 94.8594 104.711 94.8594C104.227 94.8594 103.859 94.9245 103.609 95.0547C103.365 95.1849 103.112 95.362 102.852 95.5859ZM111.461 99.7891H111.609C112.443 99.7891 113.12 99.6719 113.641 99.4375C114.161 99.2031 114.562 98.888 114.844 98.4922C115.125 98.0964 115.318 97.651 115.422 97.1562C115.526 96.6562 115.578 96.1432 115.578 95.6172V93.875C115.578 93.3594 115.518 92.901 115.398 92.5C115.284 92.099 115.122 91.763 114.914 91.4922C114.711 91.2214 114.479 91.0156 114.219 90.875C113.958 90.7344 113.682 90.6641 113.391 90.6641C113.057 90.6641 112.758 90.7318 112.492 90.8672C112.232 90.9974 112.01 91.1823 111.828 91.4219C111.651 91.6615 111.516 91.9427 111.422 92.2656C111.328 92.5885 111.281 92.9401 111.281 93.3203C111.281 93.6589 111.323 93.987 111.406 94.3047C111.49 94.6224 111.617 94.9089 111.789 95.1641C111.961 95.4193 112.174 95.6224 112.43 95.7734C112.69 95.9193 112.995 95.9922 113.344 95.9922C113.667 95.9922 113.969 95.9297 114.25 95.8047C114.536 95.6745 114.789 95.5 115.008 95.2812C115.232 95.0573 115.409 94.8047 115.539 94.5234C115.674 94.2422 115.753 93.9479 115.773 93.6406H116.461C116.461 94.0729 116.375 94.5 116.203 94.9219C116.036 95.3385 115.802 95.7188 115.5 96.0625C115.198 96.4062 114.844 96.6823 114.438 96.8906C114.031 97.0938 113.589 97.1953 113.109 97.1953C112.547 97.1953 112.06 97.0859 111.648 96.8672C111.237 96.6484 110.898 96.3568 110.633 95.9922C110.372 95.6276 110.177 95.2214 110.047 94.7734C109.922 94.3203 109.859 93.862 109.859 93.3984C109.859 92.8568 109.935 92.349 110.086 91.875C110.237 91.401 110.461 90.9844 110.758 90.625C111.055 90.2604 111.422 89.9766 111.859 89.7734C112.302 89.5703 112.812 89.4688 113.391 89.4688C114.042 89.4688 114.596 89.599 115.055 89.8594C115.513 90.1198 115.885 90.4688 116.172 90.9062C116.464 91.3438 116.677 91.8359 116.812 92.3828C116.948 92.9297 117.016 93.4922 117.016 94.0703V94.5938C117.016 95.1823 116.977 95.7812 116.898 96.3906C116.826 96.9948 116.682 97.5729 116.469 98.125C116.26 98.6771 115.956 99.1719 115.555 99.6094C115.154 100.042 114.63 100.385 113.984 100.641C113.344 100.891 112.552 101.016 111.609 101.016H111.461V99.7891ZM124.57 89.6094H124.695V90.8359H124.57C123.805 90.8359 123.164 90.9609 122.648 91.2109C122.133 91.4557 121.724 91.7865 121.422 92.2031C121.12 92.6146 120.901 93.0781 120.766 93.5938C120.635 94.1094 120.57 94.6328 120.57 95.1641V96.8359C120.57 97.3411 120.63 97.7891 120.75 98.1797C120.87 98.5651 121.034 98.8906 121.242 99.1562C121.451 99.4219 121.685 99.6224 121.945 99.7578C122.211 99.8932 122.487 99.9609 122.773 99.9609C123.107 99.9609 123.404 99.8984 123.664 99.7734C123.924 99.6432 124.143 99.4635 124.32 99.2344C124.503 99 124.641 98.724 124.734 98.4062C124.828 98.0885 124.875 97.7396 124.875 97.3594C124.875 97.0208 124.833 96.6953 124.75 96.3828C124.667 96.0651 124.539 95.7839 124.367 95.5391C124.195 95.2891 123.979 95.0938 123.719 94.9531C123.464 94.8073 123.159 94.7344 122.805 94.7344C122.404 94.7344 122.029 94.8333 121.68 95.0312C121.336 95.224 121.052 95.4792 120.828 95.7969C120.609 96.1094 120.484 96.4505 120.453 96.8203L119.688 96.8125C119.76 96.2292 119.896 95.7318 120.094 95.3203C120.297 94.9036 120.547 94.5651 120.844 94.3047C121.146 94.0391 121.482 93.8464 121.852 93.7266C122.227 93.6016 122.622 93.5391 123.039 93.5391C123.607 93.5391 124.096 93.6458 124.508 93.8594C124.919 94.0729 125.258 94.3594 125.523 94.7188C125.789 95.0729 125.984 95.474 126.109 95.9219C126.24 96.3646 126.305 96.8203 126.305 97.2891C126.305 97.8255 126.229 98.3281 126.078 98.7969C125.927 99.2656 125.701 99.6771 125.398 100.031C125.102 100.385 124.734 100.661 124.297 100.859C123.859 101.057 123.352 101.156 122.773 101.156C122.159 101.156 121.622 101.031 121.164 100.781C120.706 100.526 120.326 100.188 120.023 99.7656C119.721 99.3438 119.495 98.875 119.344 98.3594C119.193 97.8438 119.117 97.3203 119.117 96.7891V96.1094C119.117 95.3073 119.198 94.5208 119.359 93.75C119.521 92.9792 119.799 92.2812 120.195 91.6562C120.596 91.0312 121.151 90.5339 121.859 90.1641C122.568 89.7943 123.471 89.6094 124.57 89.6094ZM129.852 95.5859L128.695 95.2891L129.266 89.625H135.102V90.9609H130.492L130.148 94.0547C130.357 93.9349 130.62 93.8229 130.938 93.7188C131.26 93.6146 131.63 93.5625 132.047 93.5625C132.573 93.5625 133.044 93.6536 133.461 93.8359C133.878 94.013 134.232 94.2682 134.523 94.6016C134.82 94.9349 135.047 95.3359 135.203 95.8047C135.359 96.2734 135.438 96.7969 135.438 97.375C135.438 97.9219 135.362 98.4245 135.211 98.8828C135.065 99.3411 134.844 99.7422 134.547 100.086C134.25 100.424 133.875 100.688 133.422 100.875C132.974 101.062 132.445 101.156 131.836 101.156C131.378 101.156 130.943 101.094 130.531 100.969C130.125 100.839 129.76 100.643 129.438 100.383C129.12 100.117 128.859 99.7891 128.656 99.3984C128.458 99.0026 128.333 98.5391 128.281 98.0078H129.656C129.719 98.4349 129.844 98.7943 130.031 99.0859C130.219 99.3776 130.464 99.599 130.766 99.75C131.073 99.8958 131.43 99.9688 131.836 99.9688C132.18 99.9688 132.484 99.9089 132.75 99.7891C133.016 99.6693 133.24 99.4974 133.422 99.2734C133.604 99.0495 133.742 98.7786 133.836 98.4609C133.935 98.1432 133.984 97.7865 133.984 97.3906C133.984 97.0312 133.935 96.6979 133.836 96.3906C133.737 96.0833 133.589 95.8151 133.391 95.5859C133.198 95.3568 132.961 95.1797 132.68 95.0547C132.398 94.9245 132.076 94.8594 131.711 94.8594C131.227 94.8594 130.859 94.9245 130.609 95.0547C130.365 95.1849 130.112 95.362 129.852 95.5859ZM144.164 94.4062V96.1406C144.164 97.0729 144.081 97.8594 143.914 98.5C143.747 99.1406 143.508 99.6562 143.195 100.047C142.883 100.438 142.505 100.721 142.062 100.898C141.625 101.07 141.13 101.156 140.578 101.156C140.141 101.156 139.737 101.102 139.367 100.992C138.997 100.883 138.664 100.708 138.367 100.469C138.076 100.224 137.826 99.9062 137.617 99.5156C137.409 99.125 137.25 98.651 137.141 98.0938C137.031 97.5365 136.977 96.8854 136.977 96.1406V94.4062C136.977 93.474 137.06 92.6927 137.227 92.0625C137.398 91.4323 137.641 90.9271 137.953 90.5469C138.266 90.1615 138.641 89.8854 139.078 89.7188C139.521 89.5521 140.016 89.4688 140.562 89.4688C141.005 89.4688 141.411 89.5234 141.781 89.6328C142.156 89.737 142.49 89.9062 142.781 90.1406C143.073 90.3698 143.32 90.6771 143.523 91.0625C143.732 91.4427 143.891 91.9089 144 92.4609C144.109 93.013 144.164 93.6615 144.164 94.4062ZM142.711 96.375V94.1641C142.711 93.6536 142.68 93.2057 142.617 92.8203C142.56 92.4297 142.474 92.0964 142.359 91.8203C142.245 91.5443 142.099 91.3203 141.922 91.1484C141.75 90.9766 141.549 90.8516 141.32 90.7734C141.096 90.6901 140.844 90.6484 140.562 90.6484C140.219 90.6484 139.914 90.7135 139.648 90.8438C139.383 90.9688 139.159 91.1693 138.977 91.4453C138.799 91.7214 138.664 92.0833 138.57 92.5312C138.477 92.9792 138.43 93.5234 138.43 94.1641V96.375C138.43 96.8854 138.458 97.3359 138.516 97.7266C138.578 98.1172 138.669 98.4557 138.789 98.7422C138.909 99.0234 139.055 99.2552 139.227 99.4375C139.398 99.6198 139.596 99.7552 139.82 99.8438C140.049 99.9271 140.302 99.9688 140.578 99.9688C140.932 99.9688 141.242 99.901 141.508 99.7656C141.773 99.6302 141.995 99.4193 142.172 99.1328C142.354 98.8411 142.49 98.4688 142.578 98.0156C142.667 97.5573 142.711 97.0104 142.711 96.375Z" fill="white"/>
<path d="M19.231 99.2617L16.691 98.9717C16.081 98.9017 15.481 99.1117 15.051 99.5417L13.211 101.382C10.381 99.9417 8.06102 97.6317 6.62102 94.7917L8.47102 92.9417C8.90102 92.5117 9.11102 91.9117 9.04102 91.3017L8.75102 88.7817C8.63102 87.7717 7.78102 87.0117 6.76102 87.0117H5.03102C3.90102 87.0117 2.96102 87.9517 3.03102 89.0817C3.56102 97.6217 10.391 104.442 18.921 104.972C20.051 105.042 20.991 104.102 20.991 102.972V101.242C21.001 100.232 20.241 99.3817 19.231 99.2617V99.2617Z" fill="white"/>
<path d="M20 124H4C2.9 124 2 124.9 2 126V138C2 139.1 2.9 140 4 140H20C21.1 140 22 139.1 22 138V126C22 124.9 21.1 124 20 124ZM19.6 128.25L13.06 132.34C12.41 132.75 11.59 132.75 10.94 132.34L4.4 128.25C4.15 128.09 4 127.82 4 127.53C4 126.86 4.73 126.46 5.3 126.81L12 131L18.7 126.81C19.27 126.46 20 126.86 20 127.53C20 127.82 19.85 128.09 19.6 128.25Z" fill="white"/>
<path d="M34.0859 135.555V131.203C34.0859 130.87 34.0182 130.581 33.8828 130.336C33.7526 130.086 33.5547 129.893 33.2891 129.758C33.0234 129.622 32.6953 129.555 32.3047 129.555C31.9401 129.555 31.6198 129.617 31.3438 129.742C31.0729 129.867 30.8594 130.031 30.7031 130.234C30.5521 130.438 30.4766 130.656 30.4766 130.891H29.0312C29.0312 130.589 29.1094 130.289 29.2656 129.992C29.4219 129.695 29.6458 129.427 29.9375 129.188C30.2344 128.943 30.5885 128.75 31 128.609C31.4167 128.464 31.8802 128.391 32.3906 128.391C33.0052 128.391 33.5469 128.495 34.0156 128.703C34.4896 128.911 34.8594 129.227 35.125 129.648C35.3958 130.065 35.5312 130.589 35.5312 131.219V135.156C35.5312 135.438 35.5547 135.737 35.6016 136.055C35.6536 136.372 35.7292 136.646 35.8281 136.875V137H34.3203C34.2474 136.833 34.1901 136.612 34.1484 136.336C34.1068 136.055 34.0859 135.794 34.0859 135.555ZM34.3359 131.875L34.3516 132.891H32.8906C32.4792 132.891 32.112 132.924 31.7891 132.992C31.4661 133.055 31.1953 133.151 30.9766 133.281C30.7578 133.411 30.5911 133.576 30.4766 133.773C30.362 133.966 30.3047 134.193 30.3047 134.453C30.3047 134.719 30.3646 134.961 30.4844 135.18C30.6042 135.398 30.7839 135.573 31.0234 135.703C31.2682 135.828 31.5677 135.891 31.9219 135.891C32.3646 135.891 32.7552 135.797 33.0938 135.609C33.4323 135.422 33.7005 135.193 33.8984 134.922C34.1016 134.651 34.2109 134.388 34.2266 134.133L34.8438 134.828C34.8073 135.047 34.7083 135.289 34.5469 135.555C34.3854 135.82 34.1693 136.076 33.8984 136.32C33.6328 136.56 33.3151 136.76 32.9453 136.922C32.5807 137.078 32.1693 137.156 31.7109 137.156C31.138 137.156 30.6354 137.044 30.2031 136.82C29.776 136.596 29.4427 136.297 29.2031 135.922C28.9688 135.542 28.8516 135.117 28.8516 134.648C28.8516 134.195 28.9401 133.797 29.1172 133.453C29.2943 133.104 29.5495 132.815 29.8828 132.586C30.2161 132.352 30.6172 132.174 31.0859 132.055C31.5547 131.935 32.0781 131.875 32.6562 131.875H34.3359ZM40.25 135.695L42.5625 128.547H44.0391L41 137H40.0312L40.25 135.695ZM38.3203 128.547L40.7031 135.734L40.8672 137H39.8984L36.8359 128.547H38.3203ZM47 128.547V137H45.5469V128.547H47ZM45.4375 126.305C45.4375 126.07 45.5078 125.872 45.6484 125.711C45.7943 125.549 46.0078 125.469 46.2891 125.469C46.5651 125.469 46.776 125.549 46.9219 125.711C47.0729 125.872 47.1484 126.07 47.1484 126.305C47.1484 126.529 47.0729 126.721 46.9219 126.883C46.776 127.039 46.5651 127.117 46.2891 127.117C46.0078 127.117 45.7943 127.039 45.6484 126.883C45.5078 126.721 45.4375 126.529 45.4375 126.305ZM54.3047 135.555V131.203C54.3047 130.87 54.237 130.581 54.1016 130.336C53.9714 130.086 53.7734 129.893 53.5078 129.758C53.2422 129.622 52.9141 129.555 52.5234 129.555C52.1589 129.555 51.8385 129.617 51.5625 129.742C51.2917 129.867 51.0781 130.031 50.9219 130.234C50.7708 130.438 50.6953 130.656 50.6953 130.891H49.25C49.25 130.589 49.3281 130.289 49.4844 129.992C49.6406 129.695 49.8646 129.427 50.1562 129.188C50.4531 128.943 50.8073 128.75 51.2188 128.609C51.6354 128.464 52.099 128.391 52.6094 128.391C53.224 128.391 53.7656 128.495 54.2344 128.703C54.7083 128.911 55.0781 129.227 55.3438 129.648C55.6146 130.065 55.75 130.589 55.75 131.219V135.156C55.75 135.438 55.7734 135.737 55.8203 136.055C55.8724 136.372 55.9479 136.646 56.0469 136.875V137H54.5391C54.4661 136.833 54.4089 136.612 54.3672 136.336C54.3255 136.055 54.3047 135.794 54.3047 135.555ZM54.5547 131.875L54.5703 132.891H53.1094C52.6979 132.891 52.3307 132.924 52.0078 132.992C51.6849 133.055 51.4141 133.151 51.1953 133.281C50.9766 133.411 50.8099 133.576 50.6953 133.773C50.5807 133.966 50.5234 134.193 50.5234 134.453C50.5234 134.719 50.5833 134.961 50.7031 135.18C50.8229 135.398 51.0026 135.573 51.2422 135.703C51.487 135.828 51.7865 135.891 52.1406 135.891C52.5833 135.891 52.974 135.797 53.3125 135.609C53.651 135.422 53.9193 135.193 54.1172 134.922C54.3203 134.651 54.4297 134.388 54.4453 134.133L55.0625 134.828C55.026 135.047 54.9271 135.289 54.7656 135.555C54.6042 135.82 54.388 136.076 54.1172 136.32C53.8516 136.56 53.5339 136.76 53.1641 136.922C52.7995 137.078 52.388 137.156 51.9297 137.156C51.3568 137.156 50.8542 137.044 50.4219 136.82C49.9948 136.596 49.6615 136.297 49.4219 135.922C49.1875 135.542 49.0703 135.117 49.0703 134.648C49.0703 134.195 49.1589 133.797 49.3359 133.453C49.513 133.104 49.7682 132.815 50.1016 132.586C50.4349 132.352 50.8359 132.174 51.3047 132.055C51.7734 131.935 52.2969 131.875 52.875 131.875H54.5547ZM59.4688 130.172V140.25H58.0156V128.547H59.3438L59.4688 130.172ZM65.1641 132.703V132.867C65.1641 133.482 65.0911 134.052 64.9453 134.578C64.7995 135.099 64.5859 135.552 64.3047 135.938C64.0286 136.323 63.6875 136.622 63.2812 136.836C62.875 137.049 62.4089 137.156 61.8828 137.156C61.3464 137.156 60.8724 137.068 60.4609 136.891C60.0495 136.714 59.7005 136.456 59.4141 136.117C59.1276 135.779 58.8984 135.372 58.7266 134.898C58.5599 134.424 58.4453 133.891 58.3828 133.297V132.422C58.4453 131.797 58.5625 131.237 58.7344 130.742C58.9062 130.247 59.1328 129.826 59.4141 129.477C59.7005 129.122 60.0469 128.854 60.4531 128.672C60.8594 128.484 61.3281 128.391 61.8594 128.391C62.3906 128.391 62.862 128.495 63.2734 128.703C63.6849 128.906 64.0312 129.198 64.3125 129.578C64.5938 129.958 64.8047 130.414 64.9453 130.945C65.0911 131.471 65.1641 132.057 65.1641 132.703ZM63.7109 132.867V132.703C63.7109 132.281 63.6667 131.885 63.5781 131.516C63.4896 131.141 63.3516 130.812 63.1641 130.531C62.9818 130.245 62.7474 130.021 62.4609 129.859C62.1745 129.693 61.8333 129.609 61.4375 129.609C61.0729 129.609 60.7552 129.672 60.4844 129.797C60.2188 129.922 59.9922 130.091 59.8047 130.305C59.6172 130.513 59.4635 130.753 59.3438 131.023C59.2292 131.289 59.1432 131.565 59.0859 131.852V133.875C59.1901 134.24 59.3359 134.583 59.5234 134.906C59.7109 135.224 59.9609 135.482 60.2734 135.68C60.5859 135.872 60.9792 135.969 61.4531 135.969C61.8438 135.969 62.1797 135.888 62.4609 135.727C62.7474 135.56 62.9818 135.333 63.1641 135.047C63.3516 134.76 63.4896 134.432 63.5781 134.062C63.6667 133.688 63.7109 133.289 63.7109 132.867ZM71.9922 135.555V131.203C71.9922 130.87 71.9245 130.581 71.7891 130.336C71.6589 130.086 71.4609 129.893 71.1953 129.758C70.9297 129.622 70.6016 129.555 70.2109 129.555C69.8464 129.555 69.526 129.617 69.25 129.742C68.9792 129.867 68.7656 130.031 68.6094 130.234C68.4583 130.438 68.3828 130.656 68.3828 130.891H66.9375C66.9375 130.589 67.0156 130.289 67.1719 129.992C67.3281 129.695 67.5521 129.427 67.8438 129.188C68.1406 128.943 68.4948 128.75 68.9062 128.609C69.3229 128.464 69.7865 128.391 70.2969 128.391C70.9115 128.391 71.4531 128.495 71.9219 128.703C72.3958 128.911 72.7656 129.227 73.0312 129.648C73.3021 130.065 73.4375 130.589 73.4375 131.219V135.156C73.4375 135.438 73.4609 135.737 73.5078 136.055C73.5599 136.372 73.6354 136.646 73.7344 136.875V137H72.2266C72.1536 136.833 72.0964 136.612 72.0547 136.336C72.013 136.055 71.9922 135.794 71.9922 135.555ZM72.2422 131.875L72.2578 132.891H70.7969C70.3854 132.891 70.0182 132.924 69.6953 132.992C69.3724 133.055 69.1016 133.151 68.8828 133.281C68.6641 133.411 68.4974 133.576 68.3828 133.773C68.2682 133.966 68.2109 134.193 68.2109 134.453C68.2109 134.719 68.2708 134.961 68.3906 135.18C68.5104 135.398 68.6901 135.573 68.9297 135.703C69.1745 135.828 69.474 135.891 69.8281 135.891C70.2708 135.891 70.6615 135.797 71 135.609C71.3385 135.422 71.6068 135.193 71.8047 134.922C72.0078 134.651 72.1172 134.388 72.1328 134.133L72.75 134.828C72.7135 135.047 72.6146 135.289 72.4531 135.555C72.2917 135.82 72.0755 136.076 71.8047 136.32C71.5391 136.56 71.2214 136.76 70.8516 136.922C70.487 137.078 70.0755 137.156 69.6172 137.156C69.0443 137.156 68.5417 137.044 68.1094 136.82C67.6823 136.596 67.349 136.297 67.1094 135.922C66.875 135.542 66.7578 135.117 66.7578 134.648C66.7578 134.195 66.8464 133.797 67.0234 133.453C67.2005 133.104 67.4557 132.815 67.7891 132.586C68.1224 132.352 68.5234 132.174 68.9922 132.055C69.4609 131.935 69.9844 131.875 70.5625 131.875H72.2422ZM79.0938 135.969C79.4375 135.969 79.7552 135.898 80.0469 135.758C80.3385 135.617 80.5781 135.424 80.7656 135.18C80.9531 134.93 81.0599 134.646 81.0859 134.328H82.4609C82.4349 134.828 82.2656 135.294 81.9531 135.727C81.6458 136.154 81.2422 136.5 80.7422 136.766C80.2422 137.026 79.6927 137.156 79.0938 137.156C78.4583 137.156 77.9036 137.044 77.4297 136.82C76.9609 136.596 76.5703 136.289 76.2578 135.898C75.9505 135.508 75.7188 135.06 75.5625 134.555C75.4115 134.044 75.3359 133.505 75.3359 132.938V132.609C75.3359 132.042 75.4115 131.505 75.5625 131C75.7188 130.49 75.9505 130.039 76.2578 129.648C76.5703 129.258 76.9609 128.951 77.4297 128.727C77.9036 128.503 78.4583 128.391 79.0938 128.391C79.7552 128.391 80.3333 128.526 80.8281 128.797C81.3229 129.062 81.7109 129.427 81.9922 129.891C82.2786 130.349 82.4349 130.87 82.4609 131.453H81.0859C81.0599 131.104 80.9609 130.789 80.7891 130.508C80.6224 130.227 80.3932 130.003 80.1016 129.836C79.8151 129.664 79.4792 129.578 79.0938 129.578C78.651 129.578 78.2786 129.667 77.9766 129.844C77.6797 130.016 77.4427 130.25 77.2656 130.547C77.0938 130.839 76.9688 131.164 76.8906 131.523C76.8177 131.878 76.7812 132.24 76.7812 132.609V132.938C76.7812 133.307 76.8177 133.672 76.8906 134.031C76.9635 134.391 77.0859 134.716 77.2578 135.008C77.4349 135.299 77.6719 135.534 77.9688 135.711C78.2708 135.883 78.6458 135.969 79.0938 135.969ZM85.5391 125V137H84.0859V125H85.5391ZM90.7031 128.547L87.0156 132.492L84.9531 134.633L84.8359 133.094L86.3125 131.328L88.9375 128.547H90.7031ZM89.3828 137L86.3672 132.969L87.1172 131.68L91.0859 137H89.3828ZM104.656 133.07C104.635 133.549 104.562 134.031 104.438 134.516C104.312 134.995 104.125 135.435 103.875 135.836C103.625 136.237 103.299 136.56 102.898 136.805C102.503 137.044 102.023 137.164 101.461 137.164C101.102 137.164 100.786 137.102 100.516 136.977C100.25 136.846 100.031 136.661 99.8594 136.422C99.6927 136.182 99.5755 135.893 99.5078 135.555C99.4453 135.216 99.4349 134.839 99.4766 134.422L99.875 130.094H101.023L100.625 134.422C100.594 134.802 100.602 135.112 100.648 135.352C100.701 135.591 100.779 135.776 100.883 135.906C100.987 136.031 101.104 136.117 101.234 136.164C101.37 136.211 101.5 136.234 101.625 136.234C101.938 136.234 102.216 136.154 102.461 135.992C102.706 135.826 102.911 135.599 103.078 135.312C103.25 135.021 103.383 134.685 103.477 134.305C103.57 133.919 103.628 133.508 103.648 133.07C103.685 132.294 103.648 131.581 103.539 130.93C103.435 130.279 103.255 129.701 103 129.195C102.75 128.69 102.422 128.263 102.016 127.914C101.609 127.565 101.125 127.299 100.562 127.117C100 126.935 99.3568 126.844 98.6328 126.844C97.9766 126.844 97.3698 126.945 96.8125 127.148C96.2604 127.346 95.763 127.633 95.3203 128.008C94.8828 128.383 94.5052 128.833 94.1875 129.359C93.875 129.885 93.6276 130.479 93.4453 131.141C93.2682 131.797 93.1641 132.505 93.1328 133.266C93.0964 134.047 93.138 134.766 93.2578 135.422C93.3776 136.073 93.5703 136.654 93.8359 137.164C94.1068 137.68 94.4479 138.115 94.8594 138.469C95.2708 138.828 95.7474 139.099 96.2891 139.281C96.8307 139.469 97.4349 139.562 98.1016 139.562C98.5599 139.562 99.0234 139.508 99.4922 139.398C99.9661 139.289 100.362 139.141 100.68 138.953L100.977 139.844C100.612 140.078 100.156 140.253 99.6094 140.367C99.0677 140.482 98.5547 140.539 98.0703 140.539C97.2786 140.539 96.5547 140.43 95.8984 140.211C95.2474 139.997 94.6693 139.682 94.1641 139.266C93.6641 138.854 93.2474 138.352 92.9141 137.758C92.5807 137.169 92.3359 136.497 92.1797 135.742C92.0234 134.987 91.9635 134.161 92 133.266C92.0365 132.411 92.1641 131.607 92.3828 130.852C92.6068 130.096 92.9115 129.411 93.2969 128.797C93.6823 128.182 94.1406 127.654 94.6719 127.211C95.2083 126.763 95.8099 126.419 96.4766 126.18C97.1484 125.94 97.8776 125.82 98.6641 125.82C99.4661 125.82 100.193 125.93 100.844 126.148C101.495 126.367 102.065 126.682 102.555 127.094C103.049 127.505 103.458 128.008 103.781 128.602C104.104 129.195 104.339 129.867 104.484 130.617C104.635 131.367 104.693 132.185 104.656 133.07ZM96.6328 133.734C96.5964 134.099 96.5964 134.424 96.6328 134.711C96.6693 134.997 96.7396 135.24 96.8438 135.438C96.9479 135.635 97.0833 135.786 97.25 135.891C97.4219 135.99 97.6224 136.039 97.8516 136.039C98.0026 136.039 98.1615 136.003 98.3281 135.93C98.4948 135.852 98.6589 135.732 98.8203 135.57C98.9818 135.409 99.1328 135.198 99.2734 134.938C99.4141 134.677 99.5312 134.365 99.625 134L100.141 134.562C100.021 134.99 99.8646 135.365 99.6719 135.688C99.4844 136.01 99.2734 136.281 99.0391 136.5C98.8047 136.719 98.5547 136.885 98.2891 137C98.0286 137.109 97.763 137.164 97.4922 137.164C97.112 137.164 96.7786 137.083 96.4922 136.922C96.2057 136.755 95.974 136.521 95.7969 136.219C95.6198 135.917 95.4948 135.557 95.4219 135.141C95.3542 134.719 95.3438 134.25 95.3906 133.734C95.4375 133.188 95.5339 132.682 95.6797 132.219C95.8255 131.755 96.0052 131.341 96.2188 130.977C96.4375 130.612 96.6823 130.302 96.9531 130.047C97.2292 129.792 97.5208 129.599 97.8281 129.469C98.1354 129.333 98.4505 129.266 98.7734 129.266C99.3359 129.266 99.7786 129.349 100.102 129.516C100.424 129.677 100.732 129.87 101.023 130.094L100.359 130.867C100.208 130.721 100.01 130.586 99.7656 130.461C99.5208 130.336 99.2318 130.273 98.8984 130.273C98.612 130.273 98.3438 130.346 98.0938 130.492C97.8438 130.638 97.6172 130.857 97.4141 131.148C97.2161 131.44 97.0495 131.802 96.9141 132.234C96.7786 132.661 96.6849 133.161 96.6328 133.734ZM112.047 128.547H113.359V136.82C113.359 137.565 113.208 138.201 112.906 138.727C112.604 139.253 112.182 139.651 111.641 139.922C111.104 140.198 110.484 140.336 109.781 140.336C109.49 140.336 109.146 140.289 108.75 140.195C108.359 140.107 107.974 139.953 107.594 139.734C107.219 139.521 106.904 139.232 106.648 138.867L107.406 138.008C107.76 138.435 108.13 138.732 108.516 138.898C108.906 139.065 109.292 139.148 109.672 139.148C110.13 139.148 110.526 139.062 110.859 138.891C111.193 138.719 111.451 138.464 111.633 138.125C111.82 137.792 111.914 137.38 111.914 136.891V130.406L112.047 128.547ZM106.227 132.867V132.703C106.227 132.057 106.302 131.471 106.453 130.945C106.609 130.414 106.831 129.958 107.117 129.578C107.409 129.198 107.76 128.906 108.172 128.703C108.583 128.495 109.047 128.391 109.562 128.391C110.094 128.391 110.557 128.484 110.953 128.672C111.354 128.854 111.693 129.122 111.969 129.477C112.25 129.826 112.471 130.247 112.633 130.742C112.794 131.237 112.906 131.797 112.969 132.422V133.141C112.911 133.76 112.799 134.318 112.633 134.812C112.471 135.307 112.25 135.729 111.969 136.078C111.693 136.427 111.354 136.695 110.953 136.883C110.552 137.065 110.083 137.156 109.547 137.156C109.042 137.156 108.583 137.049 108.172 136.836C107.766 136.622 107.417 136.323 107.125 135.938C106.833 135.552 106.609 135.099 106.453 134.578C106.302 134.052 106.227 133.482 106.227 132.867ZM107.672 132.703V132.867C107.672 133.289 107.714 133.685 107.797 134.055C107.885 134.424 108.018 134.75 108.195 135.031C108.378 135.312 108.609 135.534 108.891 135.695C109.172 135.852 109.508 135.93 109.898 135.93C110.378 135.93 110.773 135.828 111.086 135.625C111.398 135.422 111.646 135.154 111.828 134.82C112.016 134.487 112.161 134.125 112.266 133.734V131.852C112.208 131.565 112.12 131.289 112 131.023C111.885 130.753 111.734 130.513 111.547 130.305C111.365 130.091 111.138 129.922 110.867 129.797C110.596 129.672 110.279 129.609 109.914 129.609C109.518 129.609 109.177 129.693 108.891 129.859C108.609 130.021 108.378 130.245 108.195 130.531C108.018 130.812 107.885 131.141 107.797 131.516C107.714 131.885 107.672 132.281 107.672 132.703ZM116.992 130.227V137H115.539V128.547H116.914L116.992 130.227ZM116.695 132.453L116.023 132.43C116.029 131.852 116.104 131.318 116.25 130.828C116.396 130.333 116.612 129.904 116.898 129.539C117.185 129.174 117.542 128.893 117.969 128.695C118.396 128.492 118.891 128.391 119.453 128.391C119.849 128.391 120.214 128.448 120.547 128.562C120.88 128.672 121.169 128.846 121.414 129.086C121.659 129.326 121.849 129.633 121.984 130.008C122.12 130.383 122.188 130.836 122.188 131.367V137H120.742V131.438C120.742 130.995 120.667 130.641 120.516 130.375C120.37 130.109 120.161 129.917 119.891 129.797C119.62 129.672 119.302 129.609 118.938 129.609C118.51 129.609 118.154 129.685 117.867 129.836C117.581 129.987 117.352 130.195 117.18 130.461C117.008 130.727 116.883 131.031 116.805 131.375C116.732 131.714 116.695 132.073 116.695 132.453ZM122.172 131.656L121.203 131.953C121.208 131.49 121.284 131.044 121.43 130.617C121.581 130.19 121.797 129.81 122.078 129.477C122.365 129.143 122.716 128.88 123.133 128.688C123.549 128.49 124.026 128.391 124.562 128.391C125.016 128.391 125.417 128.451 125.766 128.57C126.12 128.69 126.417 128.875 126.656 129.125C126.901 129.37 127.086 129.685 127.211 130.07C127.336 130.456 127.398 130.914 127.398 131.445V137H125.945V131.43C125.945 130.956 125.87 130.589 125.719 130.328C125.573 130.062 125.365 129.878 125.094 129.773C124.828 129.664 124.51 129.609 124.141 129.609C123.823 129.609 123.542 129.664 123.297 129.773C123.052 129.883 122.846 130.034 122.68 130.227C122.513 130.414 122.385 130.63 122.297 130.875C122.214 131.12 122.172 131.38 122.172 131.656ZM134.57 135.555V131.203C134.57 130.87 134.503 130.581 134.367 130.336C134.237 130.086 134.039 129.893 133.773 129.758C133.508 129.622 133.18 129.555 132.789 129.555C132.424 129.555 132.104 129.617 131.828 129.742C131.557 129.867 131.344 130.031 131.188 130.234C131.036 130.438 130.961 130.656 130.961 130.891H129.516C129.516 130.589 129.594 130.289 129.75 129.992C129.906 129.695 130.13 129.427 130.422 129.188C130.719 128.943 131.073 128.75 131.484 128.609C131.901 128.464 132.365 128.391 132.875 128.391C133.49 128.391 134.031 128.495 134.5 128.703C134.974 128.911 135.344 129.227 135.609 129.648C135.88 130.065 136.016 130.589 136.016 131.219V135.156C136.016 135.438 136.039 135.737 136.086 136.055C136.138 136.372 136.214 136.646 136.312 136.875V137H134.805C134.732 136.833 134.674 136.612 134.633 136.336C134.591 136.055 134.57 135.794 134.57 135.555ZM134.82 131.875L134.836 132.891H133.375C132.964 132.891 132.596 132.924 132.273 132.992C131.951 133.055 131.68 133.151 131.461 133.281C131.242 133.411 131.076 133.576 130.961 133.773C130.846 133.966 130.789 134.193 130.789 134.453C130.789 134.719 130.849 134.961 130.969 135.18C131.089 135.398 131.268 135.573 131.508 135.703C131.753 135.828 132.052 135.891 132.406 135.891C132.849 135.891 133.24 135.797 133.578 135.609C133.917 135.422 134.185 135.193 134.383 134.922C134.586 134.651 134.695 134.388 134.711 134.133L135.328 134.828C135.292 135.047 135.193 135.289 135.031 135.555C134.87 135.82 134.654 136.076 134.383 136.32C134.117 136.56 133.799 136.76 133.43 136.922C133.065 137.078 132.654 137.156 132.195 137.156C131.622 137.156 131.12 137.044 130.688 136.82C130.26 136.596 129.927 136.297 129.688 135.922C129.453 135.542 129.336 135.117 129.336 134.648C129.336 134.195 129.424 133.797 129.602 133.453C129.779 133.104 130.034 132.815 130.367 132.586C130.701 132.352 131.102 132.174 131.57 132.055C132.039 131.935 132.562 131.875 133.141 131.875H134.82ZM139.859 128.547V137H138.406V128.547H139.859ZM138.297 126.305C138.297 126.07 138.367 125.872 138.508 125.711C138.654 125.549 138.867 125.469 139.148 125.469C139.424 125.469 139.635 125.549 139.781 125.711C139.932 125.872 140.008 126.07 140.008 126.305C140.008 126.529 139.932 126.721 139.781 126.883C139.635 127.039 139.424 127.117 139.148 127.117C138.867 127.117 138.654 127.039 138.508 126.883C138.367 126.721 138.297 126.529 138.297 126.305ZM143.75 125V137H142.297V125H143.75ZM146.094 136.234C146.094 135.99 146.169 135.784 146.32 135.617C146.477 135.445 146.701 135.359 146.992 135.359C147.284 135.359 147.505 135.445 147.656 135.617C147.812 135.784 147.891 135.99 147.891 136.234C147.891 136.474 147.812 136.677 147.656 136.844C147.505 137.01 147.284 137.094 146.992 137.094C146.701 137.094 146.477 137.01 146.32 136.844C146.169 136.677 146.094 136.474 146.094 136.234ZM153.672 135.969C154.016 135.969 154.333 135.898 154.625 135.758C154.917 135.617 155.156 135.424 155.344 135.18C155.531 134.93 155.638 134.646 155.664 134.328H157.039C157.013 134.828 156.844 135.294 156.531 135.727C156.224 136.154 155.82 136.5 155.32 136.766C154.82 137.026 154.271 137.156 153.672 137.156C153.036 137.156 152.482 137.044 152.008 136.82C151.539 136.596 151.148 136.289 150.836 135.898C150.529 135.508 150.297 135.06 150.141 134.555C149.99 134.044 149.914 133.505 149.914 132.938V132.609C149.914 132.042 149.99 131.505 150.141 131C150.297 130.49 150.529 130.039 150.836 129.648C151.148 129.258 151.539 128.951 152.008 128.727C152.482 128.503 153.036 128.391 153.672 128.391C154.333 128.391 154.911 128.526 155.406 128.797C155.901 129.062 156.289 129.427 156.57 129.891C156.857 130.349 157.013 130.87 157.039 131.453H155.664C155.638 131.104 155.539 130.789 155.367 130.508C155.201 130.227 154.971 130.003 154.68 129.836C154.393 129.664 154.057 129.578 153.672 129.578C153.229 129.578 152.857 129.667 152.555 129.844C152.258 130.016 152.021 130.25 151.844 130.547C151.672 130.839 151.547 131.164 151.469 131.523C151.396 131.878 151.359 132.24 151.359 132.609V132.938C151.359 133.307 151.396 133.672 151.469 134.031C151.542 134.391 151.664 134.716 151.836 135.008C152.013 135.299 152.25 135.534 152.547 135.711C152.849 135.883 153.224 135.969 153.672 135.969ZM158.281 132.867V132.688C158.281 132.078 158.37 131.513 158.547 130.992C158.724 130.466 158.979 130.01 159.312 129.625C159.646 129.234 160.049 128.932 160.523 128.719C160.997 128.5 161.529 128.391 162.117 128.391C162.711 128.391 163.245 128.5 163.719 128.719C164.198 128.932 164.604 129.234 164.938 129.625C165.276 130.01 165.534 130.466 165.711 130.992C165.888 131.513 165.977 132.078 165.977 132.688V132.867C165.977 133.477 165.888 134.042 165.711 134.562C165.534 135.083 165.276 135.539 164.938 135.93C164.604 136.315 164.201 136.617 163.727 136.836C163.258 137.049 162.727 137.156 162.133 137.156C161.539 137.156 161.005 137.049 160.531 136.836C160.057 136.617 159.651 136.315 159.312 135.93C158.979 135.539 158.724 135.083 158.547 134.562C158.37 134.042 158.281 133.477 158.281 132.867ZM159.727 132.688V132.867C159.727 133.289 159.776 133.688 159.875 134.062C159.974 134.432 160.122 134.76 160.32 135.047C160.523 135.333 160.776 135.56 161.078 135.727C161.38 135.888 161.732 135.969 162.133 135.969C162.529 135.969 162.875 135.888 163.172 135.727C163.474 135.56 163.724 135.333 163.922 135.047C164.12 134.76 164.268 134.432 164.367 134.062C164.471 133.688 164.523 133.289 164.523 132.867V132.688C164.523 132.271 164.471 131.878 164.367 131.508C164.268 131.133 164.117 130.802 163.914 130.516C163.716 130.224 163.466 129.995 163.164 129.828C162.867 129.661 162.518 129.578 162.117 129.578C161.721 129.578 161.372 129.661 161.07 129.828C160.773 129.995 160.523 130.224 160.32 130.516C160.122 130.802 159.974 131.133 159.875 131.508C159.776 131.878 159.727 132.271 159.727 132.688ZM169.227 130.227V137H167.773V128.547H169.148L169.227 130.227ZM168.93 132.453L168.258 132.43C168.263 131.852 168.339 131.318 168.484 130.828C168.63 130.333 168.846 129.904 169.133 129.539C169.419 129.174 169.776 128.893 170.203 128.695C170.63 128.492 171.125 128.391 171.688 128.391C172.083 128.391 172.448 128.448 172.781 128.562C173.115 128.672 173.404 128.846 173.648 129.086C173.893 129.326 174.083 129.633 174.219 130.008C174.354 130.383 174.422 130.836 174.422 131.367V137H172.977V131.438C172.977 130.995 172.901 130.641 172.75 130.375C172.604 130.109 172.396 129.917 172.125 129.797C171.854 129.672 171.536 129.609 171.172 129.609C170.745 129.609 170.388 129.685 170.102 129.836C169.815 129.987 169.586 130.195 169.414 130.461C169.242 130.727 169.117 131.031 169.039 131.375C168.966 131.714 168.93 132.073 168.93 132.453ZM174.406 131.656L173.438 131.953C173.443 131.49 173.518 131.044 173.664 130.617C173.815 130.19 174.031 129.81 174.312 129.477C174.599 129.143 174.951 128.88 175.367 128.688C175.784 128.49 176.26 128.391 176.797 128.391C177.25 128.391 177.651 128.451 178 128.57C178.354 128.69 178.651 128.875 178.891 129.125C179.135 129.37 179.32 129.685 179.445 130.07C179.57 130.456 179.633 130.914 179.633 131.445V137H178.18V131.43C178.18 130.956 178.104 130.589 177.953 130.328C177.807 130.062 177.599 129.878 177.328 129.773C177.062 129.664 176.745 129.609 176.375 129.609C176.057 129.609 175.776 129.664 175.531 129.773C175.286 129.883 175.081 130.034 174.914 130.227C174.747 130.414 174.62 130.63 174.531 130.875C174.448 131.12 174.406 131.38 174.406 131.656Z" fill="white"/>
</svg>
