<svg width="105" height="96" viewBox="0 0 105 96" fill="none" xmlns="http://www.w3.org/2000/svg">
<path d="M34.9375 5.625V17H33.4297V5.625H34.9375ZM38.9062 10.3516V17H37.4609V8.54688H38.8281L38.9062 10.3516ZM38.5625 12.4531L37.9609 12.4297C37.9661 11.8516 38.0521 11.3177 38.2188 10.8281C38.3854 10.3333 38.6198 9.90365 38.9219 9.53906C39.224 9.17448 39.5833 8.89323 40 8.69531C40.4219 8.49219 40.888 8.39062 41.3984 8.39062C41.8151 8.39062 42.1901 8.44792 42.5234 8.5625C42.8568 8.67188 43.1406 8.84896 43.375 9.09375C43.6146 9.33854 43.7969 9.65625 43.9219 10.0469C44.0469 10.4323 44.1094 10.9036 44.1094 11.4609V17H42.6562V11.4453C42.6562 11.0026 42.5911 10.6484 42.4609 10.3828C42.3307 10.112 42.1406 9.91667 41.8906 9.79688C41.6406 9.67188 41.3333 9.60938 40.9688 9.60938C40.6094 9.60938 40.2812 9.6849 39.9844 9.83594C39.6927 9.98698 39.4401 10.1953 39.2266 10.4609C39.0182 10.7266 38.8542 11.0312 38.7344 11.375C38.6198 11.7135 38.5625 12.0729 38.5625 12.4531ZM51.2266 14.7578C51.2266 14.5495 51.1797 14.3568 51.0859 14.1797C50.9974 13.9974 50.8125 13.8333 50.5312 13.6875C50.2552 13.5365 49.8385 13.4062 49.2812 13.2969C48.8125 13.1979 48.388 13.0807 48.0078 12.9453C47.6328 12.8099 47.3125 12.6458 47.0469 12.4531C46.7865 12.2604 46.5859 12.0339 46.4453 11.7734C46.3047 11.513 46.2344 11.2083 46.2344 10.8594C46.2344 10.526 46.3073 10.2109 46.4531 9.91406C46.6042 9.61719 46.8151 9.35417 47.0859 9.125C47.362 8.89583 47.6927 8.71615 48.0781 8.58594C48.4635 8.45573 48.8932 8.39062 49.3672 8.39062C50.0443 8.39062 50.6224 8.51042 51.1016 8.75C51.5807 8.98958 51.9479 9.3099 52.2031 9.71094C52.4583 10.1068 52.5859 10.5469 52.5859 11.0312H51.1406C51.1406 10.7969 51.0703 10.5703 50.9297 10.3516C50.7943 10.1276 50.5938 9.94271 50.3281 9.79688C50.0677 9.65104 49.7474 9.57812 49.3672 9.57812C48.9661 9.57812 48.6406 9.64062 48.3906 9.76562C48.1458 9.88542 47.9661 10.0391 47.8516 10.2266C47.7422 10.4141 47.6875 10.612 47.6875 10.8203C47.6875 10.9766 47.7135 11.1172 47.7656 11.2422C47.8229 11.362 47.9219 11.474 48.0625 11.5781C48.2031 11.6771 48.401 11.7708 48.6562 11.8594C48.9115 11.9479 49.237 12.0365 49.6328 12.125C50.3255 12.2812 50.8958 12.4688 51.3438 12.6875C51.7917 12.9062 52.125 13.1745 52.3438 13.4922C52.5625 13.8099 52.6719 14.1953 52.6719 14.6484C52.6719 15.0182 52.5938 15.3568 52.4375 15.6641C52.2865 15.9714 52.0651 16.237 51.7734 16.4609C51.487 16.6797 51.1432 16.8516 50.7422 16.9766C50.3464 17.0964 49.901 17.1562 49.4062 17.1562C48.6615 17.1562 48.0312 17.0234 47.5156 16.7578C47 16.4922 46.6094 16.1484 46.3438 15.7266C46.0781 15.3047 45.9453 14.8594 45.9453 14.3906H47.3984C47.4193 14.7865 47.5339 15.1016 47.7422 15.3359C47.9505 15.5651 48.2057 15.7292 48.5078 15.8281C48.8099 15.9219 49.1094 15.9688 49.4062 15.9688C49.8021 15.9688 50.1328 15.9167 50.3984 15.8125C50.6693 15.7083 50.875 15.5651 51.0156 15.3828C51.1562 15.2005 51.2266 14.9922 51.2266 14.7578ZM58.1094 8.54688V9.65625H53.5391V8.54688H58.1094ZM55.0859 6.49219H56.5312V14.9062C56.5312 15.1927 56.5755 15.4089 56.6641 15.5547C56.7526 15.7005 56.8672 15.7969 57.0078 15.8438C57.1484 15.8906 57.2995 15.9141 57.4609 15.9141C57.5807 15.9141 57.7057 15.9036 57.8359 15.8828C57.9714 15.8568 58.0729 15.8359 58.1406 15.8203L58.1484 17C58.0339 17.0365 57.8828 17.0703 57.6953 17.1016C57.513 17.138 57.2917 17.1562 57.0312 17.1562C56.6771 17.1562 56.3516 17.0859 56.0547 16.9453C55.7578 16.8047 55.5208 16.5703 55.3438 16.2422C55.1719 15.9089 55.0859 15.4609 55.0859 14.8984V6.49219ZM64.7891 15.5547V11.2031C64.7891 10.8698 64.7214 10.5807 64.5859 10.3359C64.4557 10.0859 64.2578 9.89323 63.9922 9.75781C63.7266 9.6224 63.3984 9.55469 63.0078 9.55469C62.6432 9.55469 62.3229 9.61719 62.0469 9.74219C61.776 9.86719 61.5625 10.0312 61.4062 10.2344C61.2552 10.4375 61.1797 10.6562 61.1797 10.8906H59.7344C59.7344 10.5885 59.8125 10.2891 59.9688 9.99219C60.125 9.69531 60.349 9.42708 60.6406 9.1875C60.9375 8.94271 61.2917 8.75 61.7031 8.60938C62.1198 8.46354 62.5833 8.39062 63.0938 8.39062C63.7083 8.39062 64.25 8.49479 64.7188 8.70312C65.1927 8.91146 65.5625 9.22656 65.8281 9.64844C66.099 10.0651 66.2344 10.5885 66.2344 11.2188V15.1562C66.2344 15.4375 66.2578 15.737 66.3047 16.0547C66.3568 16.3724 66.4323 16.6458 66.5312 16.875V17H65.0234C64.9505 16.8333 64.8932 16.612 64.8516 16.3359C64.8099 16.0547 64.7891 15.7943 64.7891 15.5547ZM65.0391 11.875L65.0547 12.8906H63.5938C63.1823 12.8906 62.8151 12.9245 62.4922 12.9922C62.1693 13.0547 61.8984 13.151 61.6797 13.2812C61.4609 13.4115 61.2943 13.5755 61.1797 13.7734C61.0651 13.9661 61.0078 14.1927 61.0078 14.4531C61.0078 14.7188 61.0677 14.9609 61.1875 15.1797C61.3073 15.3984 61.487 15.5729 61.7266 15.7031C61.9714 15.8281 62.2708 15.8906 62.625 15.8906C63.0677 15.8906 63.4583 15.7969 63.7969 15.6094C64.1354 15.4219 64.4036 15.1927 64.6016 14.9219C64.8047 14.651 64.9141 14.388 64.9297 14.1328L65.5469 14.8281C65.5104 15.0469 65.4115 15.2891 65.25 15.5547C65.0885 15.8203 64.8724 16.0755 64.6016 16.3203C64.3359 16.5599 64.0182 16.7604 63.6484 16.9219C63.2839 17.0781 62.8724 17.1562 62.4141 17.1562C61.8411 17.1562 61.3385 17.0443 60.9062 16.8203C60.4792 16.5964 60.1458 16.2969 59.9062 15.9219C59.6719 15.5417 59.5547 15.1172 59.5547 14.6484C59.5547 14.1953 59.6432 13.7969 59.8203 13.4531C59.9974 13.1042 60.2526 12.8151 60.5859 12.5859C60.9193 12.3516 61.3203 12.1745 61.7891 12.0547C62.2578 11.9349 62.7812 11.875 63.3594 11.875H65.0391ZM73.9844 8.54688H75.2969V16.8203C75.2969 17.5651 75.1458 18.2005 74.8438 18.7266C74.5417 19.2526 74.1198 19.651 73.5781 19.9219C73.0417 20.1979 72.4219 20.3359 71.7188 20.3359C71.4271 20.3359 71.0833 20.2891 70.6875 20.1953C70.2969 20.1068 69.9115 19.9531 69.5312 19.7344C69.1562 19.5208 68.8411 19.2318 68.5859 18.8672L69.3438 18.0078C69.6979 18.4349 70.0677 18.7318 70.4531 18.8984C70.8438 19.0651 71.2292 19.1484 71.6094 19.1484C72.0677 19.1484 72.4635 19.0625 72.7969 18.8906C73.1302 18.7188 73.388 18.4635 73.5703 18.125C73.7578 17.7917 73.8516 17.3802 73.8516 16.8906V10.4062L73.9844 8.54688ZM68.1641 12.8672V12.7031C68.1641 12.0573 68.2396 11.4714 68.3906 10.9453C68.5469 10.4141 68.7682 9.95833 69.0547 9.57812C69.3464 9.19792 69.6979 8.90625 70.1094 8.70312C70.5208 8.49479 70.9844 8.39062 71.5 8.39062C72.0312 8.39062 72.4948 8.48438 72.8906 8.67188C73.2917 8.85417 73.6302 9.1224 73.9062 9.47656C74.1875 9.82552 74.4089 10.2474 74.5703 10.7422C74.7318 11.237 74.8438 11.7969 74.9062 12.4219V13.1406C74.849 13.7604 74.737 14.3177 74.5703 14.8125C74.4089 15.3073 74.1875 15.7292 73.9062 16.0781C73.6302 16.4271 73.2917 16.6953 72.8906 16.8828C72.4896 17.0651 72.0208 17.1562 71.4844 17.1562C70.9792 17.1562 70.5208 17.0495 70.1094 16.8359C69.7031 16.6224 69.3542 16.3229 69.0625 15.9375C68.7708 15.5521 68.5469 15.099 68.3906 14.5781C68.2396 14.0521 68.1641 13.4818 68.1641 12.8672ZM69.6094 12.7031V12.8672C69.6094 13.2891 69.651 13.6849 69.7344 14.0547C69.8229 14.4245 69.9557 14.75 70.1328 15.0312C70.3151 15.3125 70.5469 15.5339 70.8281 15.6953C71.1094 15.8516 71.4453 15.9297 71.8359 15.9297C72.3151 15.9297 72.7109 15.8281 73.0234 15.625C73.3359 15.4219 73.5833 15.1536 73.7656 14.8203C73.9531 14.487 74.099 14.125 74.2031 13.7344V11.8516C74.1458 11.5651 74.0573 11.2891 73.9375 11.0234C73.8229 10.7526 73.6719 10.513 73.4844 10.3047C73.3021 10.0911 73.0755 9.92188 72.8047 9.79688C72.5339 9.67188 72.2161 9.60938 71.8516 9.60938C71.4557 9.60938 71.1146 9.69271 70.8281 9.85938C70.5469 10.0208 70.3151 10.2448 70.1328 10.5312C69.9557 10.8125 69.8229 11.1406 69.7344 11.5156C69.651 11.8854 69.6094 12.2812 69.6094 12.7031ZM78.9375 9.875V17H77.4922V8.54688H78.8984L78.9375 9.875ZM81.5781 8.5L81.5703 9.84375C81.4505 9.81771 81.3359 9.80208 81.2266 9.79688C81.1224 9.78646 81.0026 9.78125 80.8672 9.78125C80.5339 9.78125 80.2396 9.83333 79.9844 9.9375C79.7292 10.0417 79.513 10.1875 79.3359 10.375C79.1589 10.5625 79.0182 10.7865 78.9141 11.0469C78.8151 11.3021 78.75 11.5833 78.7188 11.8906L78.3125 12.125C78.3125 11.6146 78.362 11.1354 78.4609 10.6875C78.5651 10.2396 78.724 9.84375 78.9375 9.5C79.151 9.15104 79.4219 8.88021 79.75 8.6875C80.0833 8.48958 80.4792 8.39062 80.9375 8.39062C81.0417 8.39062 81.1615 8.40365 81.2969 8.42969C81.4323 8.45052 81.526 8.47396 81.5781 8.5ZM87.5859 15.5547V11.2031C87.5859 10.8698 87.5182 10.5807 87.3828 10.3359C87.2526 10.0859 87.0547 9.89323 86.7891 9.75781C86.5234 9.6224 86.1953 9.55469 85.8047 9.55469C85.4401 9.55469 85.1198 9.61719 84.8438 9.74219C84.5729 9.86719 84.3594 10.0312 84.2031 10.2344C84.0521 10.4375 83.9766 10.6562 83.9766 10.8906H82.5312C82.5312 10.5885 82.6094 10.2891 82.7656 9.99219C82.9219 9.69531 83.1458 9.42708 83.4375 9.1875C83.7344 8.94271 84.0885 8.75 84.5 8.60938C84.9167 8.46354 85.3802 8.39062 85.8906 8.39062C86.5052 8.39062 87.0469 8.49479 87.5156 8.70312C87.9896 8.91146 88.3594 9.22656 88.625 9.64844C88.8958 10.0651 89.0312 10.5885 89.0312 11.2188V15.1562C89.0312 15.4375 89.0547 15.737 89.1016 16.0547C89.1536 16.3724 89.2292 16.6458 89.3281 16.875V17H87.8203C87.7474 16.8333 87.6901 16.612 87.6484 16.3359C87.6068 16.0547 87.5859 15.7943 87.5859 15.5547ZM87.8359 11.875L87.8516 12.8906H86.3906C85.9792 12.8906 85.612 12.9245 85.2891 12.9922C84.9661 13.0547 84.6953 13.151 84.4766 13.2812C84.2578 13.4115 84.0911 13.5755 83.9766 13.7734C83.862 13.9661 83.8047 14.1927 83.8047 14.4531C83.8047 14.7188 83.8646 14.9609 83.9844 15.1797C84.1042 15.3984 84.2839 15.5729 84.5234 15.7031C84.7682 15.8281 85.0677 15.8906 85.4219 15.8906C85.8646 15.8906 86.2552 15.7969 86.5938 15.6094C86.9323 15.4219 87.2005 15.1927 87.3984 14.9219C87.6016 14.651 87.7109 14.388 87.7266 14.1328L88.3438 14.8281C88.3073 15.0469 88.2083 15.2891 88.0469 15.5547C87.8854 15.8203 87.6693 16.0755 87.3984 16.3203C87.1328 16.5599 86.8151 16.7604 86.4453 16.9219C86.0807 17.0781 85.6693 17.1562 85.2109 17.1562C84.638 17.1562 84.1354 17.0443 83.7031 16.8203C83.276 16.5964 82.9427 16.2969 82.7031 15.9219C82.4688 15.5417 82.3516 15.1172 82.3516 14.6484C82.3516 14.1953 82.4401 13.7969 82.6172 13.4531C82.7943 13.1042 83.0495 12.8151 83.3828 12.5859C83.7161 12.3516 84.1172 12.1745 84.5859 12.0547C85.0547 11.9349 85.5781 11.875 86.1562 11.875H87.8359ZM92.7422 10.2266V17H91.2891V8.54688H92.6641L92.7422 10.2266ZM92.4453 12.4531L91.7734 12.4297C91.7786 11.8516 91.8542 11.3177 92 10.8281C92.1458 10.3333 92.362 9.90365 92.6484 9.53906C92.9349 9.17448 93.2917 8.89323 93.7188 8.69531C94.1458 8.49219 94.6406 8.39062 95.2031 8.39062C95.599 8.39062 95.9635 8.44792 96.2969 8.5625C96.6302 8.67188 96.9193 8.84635 97.1641 9.08594C97.4089 9.32552 97.599 9.63281 97.7344 10.0078C97.8698 10.3828 97.9375 10.8359 97.9375 11.3672V17H96.4922V11.4375C96.4922 10.9948 96.4167 10.6406 96.2656 10.375C96.1198 10.1094 95.9115 9.91667 95.6406 9.79688C95.3698 9.67188 95.0521 9.60938 94.6875 9.60938C94.2604 9.60938 93.9036 9.6849 93.6172 9.83594C93.3307 9.98698 93.1016 10.1953 92.9297 10.4609C92.7578 10.7266 92.6328 11.0312 92.5547 11.375C92.4818 11.7135 92.4453 12.0729 92.4453 12.4531ZM97.9219 11.6562L96.9531 11.9531C96.9583 11.4896 97.0339 11.0443 97.1797 10.6172C97.3307 10.1901 97.5469 9.8099 97.8281 9.47656C98.1146 9.14323 98.4661 8.88021 98.8828 8.6875C99.2995 8.48958 99.776 8.39062 100.312 8.39062C100.766 8.39062 101.167 8.45052 101.516 8.57031C101.87 8.6901 102.167 8.875 102.406 9.125C102.651 9.36979 102.836 9.6849 102.961 10.0703C103.086 10.4557 103.148 10.9141 103.148 11.4453V17H101.695V11.4297C101.695 10.9557 101.62 10.5885 101.469 10.3281C101.323 10.0625 101.115 9.8776 100.844 9.77344C100.578 9.66406 100.26 9.60938 99.8906 9.60938C99.5729 9.60938 99.2917 9.66406 99.0469 9.77344C98.8021 9.88281 98.5964 10.0339 98.4297 10.2266C98.263 10.4141 98.1354 10.6302 98.0469 10.875C97.9635 11.1198 97.9219 11.3802 97.9219 11.6562Z" fill="white"/>
<path fill-rule="evenodd" clip-rule="evenodd" d="M7.465 1.066C8.638 1.012 9.012 1 12 1C14.988 1 15.362 1.013 16.534 1.066C17.706 1.119 18.506 1.306 19.206 1.577C19.939 1.854 20.604 2.287 21.154 2.847C21.714 3.396 22.146 4.06 22.422 4.794C22.694 5.494 22.88 6.294 22.934 7.464C22.988 8.639 23 9.013 23 12C23 14.988 22.987 15.362 22.934 16.535C22.881 17.705 22.694 18.505 22.422 19.205C22.146 19.9391 21.7133 20.6042 21.154 21.154C20.604 21.714 19.939 22.146 19.206 22.422C18.506 22.694 17.706 22.88 16.536 22.934C15.362 22.988 14.988 23 12 23C9.012 23 8.638 22.987 7.465 22.934C6.295 22.881 5.495 22.694 4.795 22.422C4.06092 22.146 3.39582 21.7133 2.846 21.154C2.28638 20.6047 1.85331 19.9399 1.577 19.206C1.306 18.506 1.12 17.706 1.066 16.536C1.012 15.361 1 14.987 1 12C1 9.012 1.013 8.638 1.066 7.466C1.119 6.294 1.306 5.494 1.577 4.794C1.85372 4.06008 2.28712 3.39531 2.847 2.846C3.39604 2.2865 4.06047 1.85344 4.794 1.577C5.494 1.306 6.294 1.12 7.464 1.066H7.465ZM16.445 3.046C15.285 2.993 14.937 2.982 12 2.982C9.063 2.982 8.715 2.993 7.555 3.046C6.482 3.095 5.9 3.274 5.512 3.425C4.999 3.625 4.632 3.862 4.247 4.247C3.88205 4.60205 3.60118 5.03428 3.425 5.512C3.274 5.9 3.095 6.482 3.046 7.555C2.993 8.715 2.982 9.063 2.982 12C2.982 14.937 2.993 15.285 3.046 16.445C3.095 17.518 3.274 18.1 3.425 18.488C3.601 18.965 3.882 19.398 4.247 19.753C4.602 20.118 5.035 20.399 5.512 20.575C5.9 20.726 6.482 20.905 7.555 20.954C8.715 21.007 9.062 21.018 12 21.018C14.938 21.018 15.285 21.007 16.445 20.954C17.518 20.905 18.1 20.726 18.488 20.575C19.001 20.375 19.368 20.138 19.753 19.753C20.118 19.398 20.399 18.965 20.575 18.488C20.726 18.1 20.905 17.518 20.954 16.445C21.007 15.285 21.018 14.937 21.018 12C21.018 9.063 21.007 8.715 20.954 7.555C20.905 6.482 20.726 5.9 20.575 5.512C20.375 4.999 20.138 4.632 19.753 4.247C19.3979 3.88207 18.9657 3.60121 18.488 3.425C18.1 3.274 17.518 3.095 16.445 3.046ZM10.595 15.391C11.3797 15.7176 12.2534 15.7617 13.0669 15.5157C13.8805 15.2697 14.5834 14.7489 15.0556 14.0422C15.5278 13.3356 15.7401 12.4869 15.656 11.6411C15.572 10.7953 15.197 10.005 14.595 9.405C14.2112 9.02148 13.7472 8.72781 13.2363 8.54515C12.7255 8.36248 12.1804 8.29536 11.6405 8.34862C11.1006 8.40187 10.5792 8.57418 10.1138 8.85313C9.64845 9.13208 9.25074 9.51074 8.9493 9.96185C8.64786 10.413 8.45019 10.9253 8.37052 11.462C8.29084 11.9986 8.33115 12.5463 8.48854 13.0655C8.64593 13.5847 8.91648 14.0626 9.28072 14.4647C9.64496 14.8668 10.0938 15.1832 10.595 15.391ZM8.002 8.002C8.52702 7.47697 9.15032 7.0605 9.8363 6.77636C10.5223 6.49222 11.2575 6.34597 12 6.34597C12.7425 6.34597 13.4777 6.49222 14.1637 6.77636C14.8497 7.0605 15.473 7.47697 15.998 8.002C16.523 8.52702 16.9395 9.15032 17.2236 9.8363C17.5078 10.5223 17.654 11.2575 17.654 12C17.654 12.7425 17.5078 13.4777 17.2236 14.1637C16.9395 14.8497 16.523 15.473 15.998 15.998C14.9377 17.0583 13.4995 17.654 12 17.654C10.5005 17.654 9.06234 17.0583 8.002 15.998C6.94166 14.9377 6.34597 13.4995 6.34597 12C6.34597 10.5005 6.94166 9.06234 8.002 8.002ZM18.908 7.188C19.0381 7.06527 19.1423 6.91768 19.2143 6.75397C19.2863 6.59027 19.3248 6.41377 19.3274 6.23493C19.33 6.05609 19.2967 5.87855 19.2295 5.71281C19.1622 5.54707 19.0624 5.39651 18.936 5.27004C18.8095 5.14357 18.6589 5.04376 18.4932 4.97652C18.3275 4.90928 18.1499 4.87598 17.9711 4.87858C17.7922 4.88119 17.6157 4.91965 17.452 4.9917C17.2883 5.06374 17.1407 5.1679 17.018 5.298C16.7793 5.55103 16.6486 5.88712 16.6537 6.23493C16.6588 6.58274 16.7992 6.91488 17.0452 7.16084C17.2911 7.40681 17.6233 7.54723 17.9711 7.5523C18.3189 7.55737 18.655 7.42669 18.908 7.188Z" fill="white"/>
<path d="M37.5234 41.625V53H36.0391V41.625H37.5234ZM41.1797 41.625V42.8594H32.3906V41.625H41.1797ZM45.375 53.1562C44.7865 53.1562 44.2526 53.0573 43.7734 52.8594C43.2995 52.6562 42.8906 52.3724 42.5469 52.0078C42.2083 51.6432 41.9479 51.2109 41.7656 50.7109C41.5833 50.2109 41.4922 49.6641 41.4922 49.0703V48.7422C41.4922 48.0547 41.5938 47.4427 41.7969 46.9062C42 46.3646 42.276 45.9062 42.625 45.5312C42.974 45.1562 43.3698 44.8724 43.8125 44.6797C44.2552 44.487 44.7135 44.3906 45.1875 44.3906C45.7917 44.3906 46.3125 44.4948 46.75 44.7031C47.1927 44.9115 47.5547 45.2031 47.8359 45.5781C48.1172 45.9479 48.3255 46.3854 48.4609 46.8906C48.5964 47.3906 48.6641 47.9375 48.6641 48.5312V49.1797H42.3516V48H47.2188V47.8906C47.1979 47.5156 47.1198 47.151 46.9844 46.7969C46.8542 46.4427 46.6458 46.151 46.3594 45.9219C46.0729 45.6927 45.6823 45.5781 45.1875 45.5781C44.8594 45.5781 44.5573 45.6484 44.2812 45.7891C44.0052 45.9245 43.7682 46.1276 43.5703 46.3984C43.3724 46.6693 43.2188 47 43.1094 47.3906C43 47.7812 42.9453 48.2318 42.9453 48.7422V49.0703C42.9453 49.4714 43 49.849 43.1094 50.2031C43.224 50.5521 43.388 50.8594 43.6016 51.125C43.8203 51.3906 44.0833 51.599 44.3906 51.75C44.7031 51.901 45.0573 51.9766 45.4531 51.9766C45.9635 51.9766 46.3958 51.8724 46.75 51.6641C47.1042 51.4557 47.4141 51.1771 47.6797 50.8281L48.5547 51.5234C48.3724 51.7995 48.1406 52.0625 47.8594 52.3125C47.5781 52.5625 47.2318 52.7656 46.8203 52.9219C46.4141 53.0781 45.9323 53.1562 45.375 53.1562ZM51.9219 41V53H50.4688V41H51.9219ZM57.75 53.1562C57.1615 53.1562 56.6276 53.0573 56.1484 52.8594C55.6745 52.6562 55.2656 52.3724 54.9219 52.0078C54.5833 51.6432 54.3229 51.2109 54.1406 50.7109C53.9583 50.2109 53.8672 49.6641 53.8672 49.0703V48.7422C53.8672 48.0547 53.9688 47.4427 54.1719 46.9062C54.375 46.3646 54.651 45.9062 55 45.5312C55.349 45.1562 55.7448 44.8724 56.1875 44.6797C56.6302 44.487 57.0885 44.3906 57.5625 44.3906C58.1667 44.3906 58.6875 44.4948 59.125 44.7031C59.5677 44.9115 59.9297 45.2031 60.2109 45.5781C60.4922 45.9479 60.7005 46.3854 60.8359 46.8906C60.9714 47.3906 61.0391 47.9375 61.0391 48.5312V49.1797H54.7266V48H59.5938V47.8906C59.5729 47.5156 59.4948 47.151 59.3594 46.7969C59.2292 46.4427 59.0208 46.151 58.7344 45.9219C58.4479 45.6927 58.0573 45.5781 57.5625 45.5781C57.2344 45.5781 56.9323 45.6484 56.6562 45.7891C56.3802 45.9245 56.1432 46.1276 55.9453 46.3984C55.7474 46.6693 55.5938 47 55.4844 47.3906C55.375 47.7812 55.3203 48.2318 55.3203 48.7422V49.0703C55.3203 49.4714 55.375 49.849 55.4844 50.2031C55.599 50.5521 55.763 50.8594 55.9766 51.125C56.1953 51.3906 56.4583 51.599 56.7656 51.75C57.0781 51.901 57.4323 51.9766 57.8281 51.9766C58.3385 51.9766 58.7708 51.8724 59.125 51.6641C59.4792 51.4557 59.7891 51.1771 60.0547 50.8281L60.9297 51.5234C60.7474 51.7995 60.5156 52.0625 60.2344 52.3125C59.9531 52.5625 59.6068 52.7656 59.1953 52.9219C58.7891 53.0781 58.3073 53.1562 57.75 53.1562ZM68.2031 44.5469H69.5156V52.8203C69.5156 53.5651 69.3646 54.2005 69.0625 54.7266C68.7604 55.2526 68.3385 55.651 67.7969 55.9219C67.2604 56.1979 66.6406 56.3359 65.9375 56.3359C65.6458 56.3359 65.3021 56.2891 64.9062 56.1953C64.5156 56.1068 64.1302 55.9531 63.75 55.7344C63.375 55.5208 63.0599 55.2318 62.8047 54.8672L63.5625 54.0078C63.9167 54.4349 64.2865 54.7318 64.6719 54.8984C65.0625 55.0651 65.4479 55.1484 65.8281 55.1484C66.2865 55.1484 66.6823 55.0625 67.0156 54.8906C67.349 54.7188 67.6068 54.4635 67.7891 54.125C67.9766 53.7917 68.0703 53.3802 68.0703 52.8906V46.4062L68.2031 44.5469ZM62.3828 48.8672V48.7031C62.3828 48.0573 62.4583 47.4714 62.6094 46.9453C62.7656 46.4141 62.987 45.9583 63.2734 45.5781C63.5651 45.1979 63.9167 44.9062 64.3281 44.7031C64.7396 44.4948 65.2031 44.3906 65.7188 44.3906C66.25 44.3906 66.7135 44.4844 67.1094 44.6719C67.5104 44.8542 67.849 45.1224 68.125 45.4766C68.4062 45.8255 68.6276 46.2474 68.7891 46.7422C68.9505 47.237 69.0625 47.7969 69.125 48.4219V49.1406C69.0677 49.7604 68.9557 50.3177 68.7891 50.8125C68.6276 51.3073 68.4062 51.7292 68.125 52.0781C67.849 52.4271 67.5104 52.6953 67.1094 52.8828C66.7083 53.0651 66.2396 53.1562 65.7031 53.1562C65.1979 53.1562 64.7396 53.0495 64.3281 52.8359C63.9219 52.6224 63.5729 52.3229 63.2812 51.9375C62.9896 51.5521 62.7656 51.099 62.6094 50.5781C62.4583 50.0521 62.3828 49.4818 62.3828 48.8672ZM63.8281 48.7031V48.8672C63.8281 49.2891 63.8698 49.6849 63.9531 50.0547C64.0417 50.4245 64.1745 50.75 64.3516 51.0312C64.5339 51.3125 64.7656 51.5339 65.0469 51.6953C65.3281 51.8516 65.6641 51.9297 66.0547 51.9297C66.5339 51.9297 66.9297 51.8281 67.2422 51.625C67.5547 51.4219 67.8021 51.1536 67.9844 50.8203C68.1719 50.487 68.3177 50.125 68.4219 49.7344V47.8516C68.3646 47.5651 68.276 47.2891 68.1562 47.0234C68.0417 46.7526 67.8906 46.513 67.7031 46.3047C67.5208 46.0911 67.2943 45.9219 67.0234 45.7969C66.7526 45.6719 66.4349 45.6094 66.0703 45.6094C65.6745 45.6094 65.3333 45.6927 65.0469 45.8594C64.7656 46.0208 64.5339 46.2448 64.3516 46.5312C64.1745 46.8125 64.0417 47.1406 63.9531 47.5156C63.8698 47.8854 63.8281 48.2812 63.8281 48.7031ZM73.1562 45.875V53H71.7109V44.5469H73.1172L73.1562 45.875ZM75.7969 44.5L75.7891 45.8438C75.6693 45.8177 75.5547 45.8021 75.4453 45.7969C75.3411 45.7865 75.2214 45.7812 75.0859 45.7812C74.7526 45.7812 74.4583 45.8333 74.2031 45.9375C73.9479 46.0417 73.7318 46.1875 73.5547 46.375C73.3776 46.5625 73.237 46.7865 73.1328 47.0469C73.0339 47.3021 72.9688 47.5833 72.9375 47.8906L72.5312 48.125C72.5312 47.6146 72.5807 47.1354 72.6797 46.6875C72.7839 46.2396 72.9427 45.8438 73.1562 45.5C73.3698 45.151 73.6406 44.8802 73.9688 44.6875C74.3021 44.4896 74.6979 44.3906 75.1562 44.3906C75.2604 44.3906 75.3802 44.4036 75.5156 44.4297C75.651 44.4505 75.7448 44.474 75.7969 44.5ZM81.8047 51.5547V47.2031C81.8047 46.8698 81.737 46.5807 81.6016 46.3359C81.4714 46.0859 81.2734 45.8932 81.0078 45.7578C80.7422 45.6224 80.4141 45.5547 80.0234 45.5547C79.6589 45.5547 79.3385 45.6172 79.0625 45.7422C78.7917 45.8672 78.5781 46.0312 78.4219 46.2344C78.2708 46.4375 78.1953 46.6562 78.1953 46.8906H76.75C76.75 46.5885 76.8281 46.2891 76.9844 45.9922C77.1406 45.6953 77.3646 45.4271 77.6562 45.1875C77.9531 44.9427 78.3073 44.75 78.7188 44.6094C79.1354 44.4635 79.599 44.3906 80.1094 44.3906C80.724 44.3906 81.2656 44.4948 81.7344 44.7031C82.2083 44.9115 82.5781 45.2266 82.8438 45.6484C83.1146 46.0651 83.25 46.5885 83.25 47.2188V51.1562C83.25 51.4375 83.2734 51.737 83.3203 52.0547C83.3724 52.3724 83.4479 52.6458 83.5469 52.875V53H82.0391C81.9661 52.8333 81.9089 52.612 81.8672 52.3359C81.8255 52.0547 81.8047 51.7943 81.8047 51.5547ZM82.0547 47.875L82.0703 48.8906H80.6094C80.1979 48.8906 79.8307 48.9245 79.5078 48.9922C79.1849 49.0547 78.9141 49.151 78.6953 49.2812C78.4766 49.4115 78.3099 49.5755 78.1953 49.7734C78.0807 49.9661 78.0234 50.1927 78.0234 50.4531C78.0234 50.7188 78.0833 50.9609 78.2031 51.1797C78.3229 51.3984 78.5026 51.5729 78.7422 51.7031C78.987 51.8281 79.2865 51.8906 79.6406 51.8906C80.0833 51.8906 80.474 51.7969 80.8125 51.6094C81.151 51.4219 81.4193 51.1927 81.6172 50.9219C81.8203 50.651 81.9297 50.388 81.9453 50.1328L82.5625 50.8281C82.526 51.0469 82.4271 51.2891 82.2656 51.5547C82.1042 51.8203 81.888 52.0755 81.6172 52.3203C81.3516 52.5599 81.0339 52.7604 80.6641 52.9219C80.2995 53.0781 79.888 53.1562 79.4297 53.1562C78.8568 53.1562 78.3542 53.0443 77.9219 52.8203C77.4948 52.5964 77.1615 52.2969 76.9219 51.9219C76.6875 51.5417 76.5703 51.1172 76.5703 50.6484C76.5703 50.1953 76.6589 49.7969 76.8359 49.4531C77.013 49.1042 77.2682 48.8151 77.6016 48.5859C77.9349 48.3516 78.3359 48.1745 78.8047 48.0547C79.2734 47.9349 79.7969 47.875 80.375 47.875H82.0547ZM86.9609 46.2266V53H85.5078V44.5469H86.8828L86.9609 46.2266ZM86.6641 48.4531L85.9922 48.4297C85.9974 47.8516 86.0729 47.3177 86.2188 46.8281C86.3646 46.3333 86.5807 45.9036 86.8672 45.5391C87.1536 45.1745 87.5104 44.8932 87.9375 44.6953C88.3646 44.4922 88.8594 44.3906 89.4219 44.3906C89.8177 44.3906 90.1823 44.4479 90.5156 44.5625C90.849 44.6719 91.138 44.8464 91.3828 45.0859C91.6276 45.3255 91.8177 45.6328 91.9531 46.0078C92.0885 46.3828 92.1562 46.8359 92.1562 47.3672V53H90.7109V47.4375C90.7109 46.9948 90.6354 46.6406 90.4844 46.375C90.3385 46.1094 90.1302 45.9167 89.8594 45.7969C89.5885 45.6719 89.2708 45.6094 88.9062 45.6094C88.4792 45.6094 88.1224 45.6849 87.8359 45.8359C87.5495 45.987 87.3203 46.1953 87.1484 46.4609C86.9766 46.7266 86.8516 47.0312 86.7734 47.375C86.7005 47.7135 86.6641 48.0729 86.6641 48.4531ZM92.1406 47.6562L91.1719 47.9531C91.1771 47.4896 91.2526 47.0443 91.3984 46.6172C91.5495 46.1901 91.7656 45.8099 92.0469 45.4766C92.3333 45.1432 92.6849 44.8802 93.1016 44.6875C93.5182 44.4896 93.9948 44.3906 94.5312 44.3906C94.9844 44.3906 95.3854 44.4505 95.7344 44.5703C96.0885 44.6901 96.3854 44.875 96.625 45.125C96.8698 45.3698 97.0547 45.6849 97.1797 46.0703C97.3047 46.4557 97.3672 46.9141 97.3672 47.4453V53H95.9141V47.4297C95.9141 46.9557 95.8385 46.5885 95.6875 46.3281C95.5417 46.0625 95.3333 45.8776 95.0625 45.7734C94.7969 45.6641 94.4792 45.6094 94.1094 45.6094C93.7917 45.6094 93.5104 45.6641 93.2656 45.7734C93.0208 45.8828 92.8151 46.0339 92.6484 46.2266C92.4818 46.4141 92.3542 46.6302 92.2656 46.875C92.1823 47.1198 92.1406 47.3802 92.1406 47.6562Z" fill="white"/>
<path d="M18.5014 41.084L3.34315 47.3039C2.85065 47.4736 2.90537 48.2086 3.39788 48.3783L7.22847 49.6223L8.76071 54.5982C8.87015 54.994 9.36266 55.1071 9.63627 54.8243L11.8799 52.6757L16.1483 55.8987C16.4766 56.1249 16.9144 55.9552 17.0238 55.5594L19.9789 42.4411C20.143 41.4799 19.3222 40.7448 18.5014 41.084ZM9.63627 50.5835L9.14377 53.5238L8.04931 49.4526L18.7202 42.2149L9.63627 50.5835Z" fill="white"/>
<path d="M34.8281 77.625V89H33.3203V77.625H34.8281ZM39.5938 82.7422V83.9766H34.5V82.7422H39.5938ZM40.3672 77.625V78.8594H34.5V77.625H40.3672ZM46.6641 87.5547V83.2031C46.6641 82.8698 46.5964 82.5807 46.4609 82.3359C46.3307 82.0859 46.1328 81.8932 45.8672 81.7578C45.6016 81.6224 45.2734 81.5547 44.8828 81.5547C44.5182 81.5547 44.1979 81.6172 43.9219 81.7422C43.651 81.8672 43.4375 82.0312 43.2812 82.2344C43.1302 82.4375 43.0547 82.6562 43.0547 82.8906H41.6094C41.6094 82.5885 41.6875 82.2891 41.8438 81.9922C42 81.6953 42.224 81.4271 42.5156 81.1875C42.8125 80.9427 43.1667 80.75 43.5781 80.6094C43.9948 80.4635 44.4583 80.3906 44.9688 80.3906C45.5833 80.3906 46.125 80.4948 46.5938 80.7031C47.0677 80.9115 47.4375 81.2266 47.7031 81.6484C47.974 82.0651 48.1094 82.5885 48.1094 83.2188V87.1562C48.1094 87.4375 48.1328 87.737 48.1797 88.0547C48.2318 88.3724 48.3073 88.6458 48.4062 88.875V89H46.8984C46.8255 88.8333 46.7682 88.612 46.7266 88.3359C46.6849 88.0547 46.6641 87.7943 46.6641 87.5547ZM46.9141 83.875L46.9297 84.8906H45.4688C45.0573 84.8906 44.6901 84.9245 44.3672 84.9922C44.0443 85.0547 43.7734 85.151 43.5547 85.2812C43.3359 85.4115 43.1693 85.5755 43.0547 85.7734C42.9401 85.9661 42.8828 86.1927 42.8828 86.4531C42.8828 86.7188 42.9427 86.9609 43.0625 87.1797C43.1823 87.3984 43.362 87.5729 43.6016 87.7031C43.8464 87.8281 44.1458 87.8906 44.5 87.8906C44.9427 87.8906 45.3333 87.7969 45.6719 87.6094C46.0104 87.4219 46.2786 87.1927 46.4766 86.9219C46.6797 86.651 46.7891 86.388 46.8047 86.1328L47.4219 86.8281C47.3854 87.0469 47.2865 87.2891 47.125 87.5547C46.9635 87.8203 46.7474 88.0755 46.4766 88.3203C46.2109 88.5599 45.8932 88.7604 45.5234 88.9219C45.1589 89.0781 44.7474 89.1562 44.2891 89.1562C43.7161 89.1562 43.2135 89.0443 42.7812 88.8203C42.3542 88.5964 42.0208 88.2969 41.7812 87.9219C41.5469 87.5417 41.4297 87.1172 41.4297 86.6484C41.4297 86.1953 41.5182 85.7969 41.6953 85.4531C41.8724 85.1042 42.1276 84.8151 42.4609 84.5859C42.7943 84.3516 43.1953 84.1745 43.6641 84.0547C44.1328 83.9349 44.6562 83.875 45.2344 83.875H46.9141ZM53.7656 87.9688C54.1094 87.9688 54.4271 87.8984 54.7188 87.7578C55.0104 87.6172 55.25 87.4245 55.4375 87.1797C55.625 86.9297 55.7318 86.6458 55.7578 86.3281H57.1328C57.1068 86.8281 56.9375 87.2943 56.625 87.7266C56.3177 88.1536 55.9141 88.5 55.4141 88.7656C54.9141 89.026 54.3646 89.1562 53.7656 89.1562C53.1302 89.1562 52.5755 89.0443 52.1016 88.8203C51.6328 88.5964 51.2422 88.2891 50.9297 87.8984C50.6224 87.5078 50.3906 87.0599 50.2344 86.5547C50.0833 86.0443 50.0078 85.5052 50.0078 84.9375V84.6094C50.0078 84.0417 50.0833 83.5052 50.2344 83C50.3906 82.4896 50.6224 82.0391 50.9297 81.6484C51.2422 81.2578 51.6328 80.9505 52.1016 80.7266C52.5755 80.5026 53.1302 80.3906 53.7656 80.3906C54.4271 80.3906 55.0052 80.526 55.5 80.7969C55.9948 81.0625 56.3828 81.4271 56.6641 81.8906C56.9505 82.349 57.1068 82.8698 57.1328 83.4531H55.7578C55.7318 83.1042 55.6328 82.7891 55.4609 82.5078C55.2943 82.2266 55.0651 82.0026 54.7734 81.8359C54.487 81.6641 54.151 81.5781 53.7656 81.5781C53.3229 81.5781 52.9505 81.6667 52.6484 81.8438C52.3516 82.0156 52.1146 82.25 51.9375 82.5469C51.7656 82.8385 51.6406 83.1641 51.5625 83.5234C51.4896 83.8776 51.4531 84.2396 51.4531 84.6094V84.9375C51.4531 85.3073 51.4896 85.6719 51.5625 86.0312C51.6354 86.3906 51.7578 86.7161 51.9297 87.0078C52.1068 87.2995 52.3438 87.5339 52.6406 87.7109C52.9427 87.8828 53.3177 87.9688 53.7656 87.9688ZM62.2656 89.1562C61.6771 89.1562 61.1432 89.0573 60.6641 88.8594C60.1901 88.6562 59.7812 88.3724 59.4375 88.0078C59.099 87.6432 58.8385 87.2109 58.6562 86.7109C58.474 86.2109 58.3828 85.6641 58.3828 85.0703V84.7422C58.3828 84.0547 58.4844 83.4427 58.6875 82.9062C58.8906 82.3646 59.1667 81.9062 59.5156 81.5312C59.8646 81.1562 60.2604 80.8724 60.7031 80.6797C61.1458 80.487 61.6042 80.3906 62.0781 80.3906C62.6823 80.3906 63.2031 80.4948 63.6406 80.7031C64.0833 80.9115 64.4453 81.2031 64.7266 81.5781C65.0078 81.9479 65.2161 82.3854 65.3516 82.8906C65.487 83.3906 65.5547 83.9375 65.5547 84.5312V85.1797H59.2422V84H64.1094V83.8906C64.0885 83.5156 64.0104 83.151 63.875 82.7969C63.7448 82.4427 63.5365 82.151 63.25 81.9219C62.9635 81.6927 62.5729 81.5781 62.0781 81.5781C61.75 81.5781 61.4479 81.6484 61.1719 81.7891C60.8958 81.9245 60.6589 82.1276 60.4609 82.3984C60.263 82.6693 60.1094 83 60 83.3906C59.8906 83.7812 59.8359 84.2318 59.8359 84.7422V85.0703C59.8359 85.4714 59.8906 85.849 60 86.2031C60.1146 86.5521 60.2786 86.8594 60.4922 87.125C60.7109 87.3906 60.974 87.599 61.2812 87.75C61.5938 87.901 61.9479 87.9766 62.3438 87.9766C62.8542 87.9766 63.2865 87.8724 63.6406 87.6641C63.9948 87.4557 64.3047 87.1771 64.5703 86.8281L65.4453 87.5234C65.263 87.7995 65.0312 88.0625 64.75 88.3125C64.4688 88.5625 64.1224 88.7656 63.7109 88.9219C63.3047 89.0781 62.8229 89.1562 62.2656 89.1562ZM67.2344 77H68.6875V87.3594L68.5625 89H67.2344V77ZM74.3984 84.7031V84.8672C74.3984 85.4818 74.3255 86.0521 74.1797 86.5781C74.0339 87.099 73.8203 87.5521 73.5391 87.9375C73.2578 88.3229 72.9141 88.6224 72.5078 88.8359C72.1016 89.0495 71.6354 89.1562 71.1094 89.1562C70.5729 89.1562 70.1016 89.0651 69.6953 88.8828C69.2943 88.6953 68.9557 88.4271 68.6797 88.0781C68.4036 87.7292 68.1823 87.3073 68.0156 86.8125C67.8542 86.3177 67.7422 85.7604 67.6797 85.1406V84.4219C67.7422 83.7969 67.8542 83.237 68.0156 82.7422C68.1823 82.2474 68.4036 81.8255 68.6797 81.4766C68.9557 81.1224 69.2943 80.8542 69.6953 80.6719C70.0964 80.4844 70.5625 80.3906 71.0938 80.3906C71.625 80.3906 72.0964 80.4948 72.5078 80.7031C72.9193 80.9062 73.263 81.1979 73.5391 81.5781C73.8203 81.9583 74.0339 82.4141 74.1797 82.9453C74.3255 83.4714 74.3984 84.0573 74.3984 84.7031ZM72.9453 84.8672V84.7031C72.9453 84.2812 72.9062 83.8854 72.8281 83.5156C72.75 83.1406 72.625 82.8125 72.4531 82.5312C72.2812 82.2448 72.0547 82.0208 71.7734 81.8594C71.4922 81.6927 71.1458 81.6094 70.7344 81.6094C70.3698 81.6094 70.0521 81.6719 69.7812 81.7969C69.5156 81.9219 69.2891 82.0911 69.1016 82.3047C68.9141 82.513 68.7604 82.7526 68.6406 83.0234C68.526 83.2891 68.4401 83.5651 68.3828 83.8516V85.7344C68.4661 86.099 68.6016 86.4505 68.7891 86.7891C68.9818 87.1224 69.237 87.3958 69.5547 87.6094C69.8776 87.8229 70.276 87.9297 70.75 87.9297C71.1406 87.9297 71.474 87.8516 71.75 87.6953C72.0312 87.5339 72.2578 87.3125 72.4297 87.0312C72.6068 86.75 72.737 86.4245 72.8203 86.0547C72.9036 85.6849 72.9453 85.2891 72.9453 84.8672ZM75.8438 84.8672V84.6875C75.8438 84.0781 75.9323 83.513 76.1094 82.9922C76.2865 82.4661 76.5417 82.0104 76.875 81.625C77.2083 81.2344 77.612 80.9323 78.0859 80.7188C78.5599 80.5 79.0911 80.3906 79.6797 80.3906C80.2734 80.3906 80.8073 80.5 81.2812 80.7188C81.7604 80.9323 82.1667 81.2344 82.5 81.625C82.8385 82.0104 83.0964 82.4661 83.2734 82.9922C83.4505 83.513 83.5391 84.0781 83.5391 84.6875V84.8672C83.5391 85.4766 83.4505 86.0417 83.2734 86.5625C83.0964 87.0833 82.8385 87.5391 82.5 87.9297C82.1667 88.3151 81.763 88.6172 81.2891 88.8359C80.8203 89.0495 80.2891 89.1562 79.6953 89.1562C79.1016 89.1562 78.5677 89.0495 78.0938 88.8359C77.6198 88.6172 77.2135 88.3151 76.875 87.9297C76.5417 87.5391 76.2865 87.0833 76.1094 86.5625C75.9323 86.0417 75.8438 85.4766 75.8438 84.8672ZM77.2891 84.6875V84.8672C77.2891 85.2891 77.3385 85.6875 77.4375 86.0625C77.5365 86.4323 77.6849 86.7604 77.8828 87.0469C78.0859 87.3333 78.3385 87.5599 78.6406 87.7266C78.9427 87.888 79.2943 87.9688 79.6953 87.9688C80.0911 87.9688 80.4375 87.888 80.7344 87.7266C81.0365 87.5599 81.2865 87.3333 81.4844 87.0469C81.6823 86.7604 81.8307 86.4323 81.9297 86.0625C82.0339 85.6875 82.0859 85.2891 82.0859 84.8672V84.6875C82.0859 84.2708 82.0339 83.8776 81.9297 83.5078C81.8307 83.1328 81.6797 82.8021 81.4766 82.5156C81.2786 82.224 81.0286 81.9948 80.7266 81.8281C80.4297 81.6615 80.0807 81.5781 79.6797 81.5781C79.2839 81.5781 78.9349 81.6615 78.6328 81.8281C78.3359 81.9948 78.0859 82.224 77.8828 82.5156C77.6849 82.8021 77.5365 83.1328 77.4375 83.5078C77.3385 83.8776 77.2891 84.2708 77.2891 84.6875ZM84.9688 84.8672V84.6875C84.9688 84.0781 85.0573 83.513 85.2344 82.9922C85.4115 82.4661 85.6667 82.0104 86 81.625C86.3333 81.2344 86.737 80.9323 87.2109 80.7188C87.6849 80.5 88.2161 80.3906 88.8047 80.3906C89.3984 80.3906 89.9323 80.5 90.4062 80.7188C90.8854 80.9323 91.2917 81.2344 91.625 81.625C91.9635 82.0104 92.2214 82.4661 92.3984 82.9922C92.5755 83.513 92.6641 84.0781 92.6641 84.6875V84.8672C92.6641 85.4766 92.5755 86.0417 92.3984 86.5625C92.2214 87.0833 91.9635 87.5391 91.625 87.9297C91.2917 88.3151 90.888 88.6172 90.4141 88.8359C89.9453 89.0495 89.4141 89.1562 88.8203 89.1562C88.2266 89.1562 87.6927 89.0495 87.2188 88.8359C86.7448 88.6172 86.3385 88.3151 86 87.9297C85.6667 87.5391 85.4115 87.0833 85.2344 86.5625C85.0573 86.0417 84.9688 85.4766 84.9688 84.8672ZM86.4141 84.6875V84.8672C86.4141 85.2891 86.4635 85.6875 86.5625 86.0625C86.6615 86.4323 86.8099 86.7604 87.0078 87.0469C87.2109 87.3333 87.4635 87.5599 87.7656 87.7266C88.0677 87.888 88.4193 87.9688 88.8203 87.9688C89.2161 87.9688 89.5625 87.888 89.8594 87.7266C90.1615 87.5599 90.4115 87.3333 90.6094 87.0469C90.8073 86.7604 90.9557 86.4323 91.0547 86.0625C91.1589 85.6875 91.2109 85.2891 91.2109 84.8672V84.6875C91.2109 84.2708 91.1589 83.8776 91.0547 83.5078C90.9557 83.1328 90.8047 82.8021 90.6016 82.5156C90.4036 82.224 90.1536 81.9948 89.8516 81.8281C89.5547 81.6615 89.2057 81.5781 88.8047 81.5781C88.4089 81.5781 88.0599 81.6615 87.7578 81.8281C87.4609 81.9948 87.2109 82.224 87.0078 82.5156C86.8099 82.8021 86.6615 83.1328 86.5625 83.5078C86.4635 83.8776 86.4141 84.2708 86.4141 84.6875ZM95.9297 77V89H94.4766V77H95.9297ZM101.094 80.5469L97.4062 84.4922L95.3438 86.6328L95.2266 85.0938L96.7031 83.3281L99.3281 80.5469H101.094ZM99.7734 89L96.7578 84.9688L97.5078 83.6797L101.477 89H99.7734Z" fill="white"/>
<path d="M13.397 92.9972V84.8012H16.162L16.573 81.5922H13.397V79.5482C13.397 78.6222 13.655 77.9882 14.984 77.9882H16.668V75.1272C15.8487 75.0394 15.0251 74.997 14.201 75.0002C11.757 75.0002 10.079 76.4922 10.079 79.2312V81.5862H7.33203V84.7952H10.085V92.9972H13.397Z" fill="white"/>
</svg>
