<svg width="192" height="144" viewBox="0 0 192 144" fill="none" xmlns="http://www.w3.org/2000/svg">
<path d="M6.09961 12.2168H2.83887L2.82129 10.6084H5.66895C6.14941 10.6084 6.55664 10.5381 6.89062 10.3975C7.23047 10.251 7.48828 10.043 7.66406 9.77344C7.83984 9.49805 7.92773 9.16699 7.92773 8.78027C7.92773 8.35254 7.8457 8.00391 7.68164 7.73438C7.51758 7.46484 7.26562 7.26855 6.92578 7.14551C6.5918 7.02246 6.16406 6.96094 5.64258 6.96094H3.50684V18H1.30078V5.20312H5.64258C6.3457 5.20312 6.97266 5.27051 7.52344 5.40527C8.08008 5.54004 8.55176 5.75098 8.93848 6.03809C9.33105 6.31934 9.62695 6.67676 9.82617 7.11035C10.0312 7.54395 10.1338 8.05957 10.1338 8.65723C10.1338 9.18457 10.0078 9.66797 9.75586 10.1074C9.50391 10.541 9.13184 10.8955 8.63965 11.1709C8.14746 11.4463 7.53516 11.6104 6.80273 11.6631L6.09961 12.2168ZM6.00293 18H2.14453L3.1377 16.251H6.00293C6.50098 16.251 6.91699 16.1689 7.25098 16.0049C7.58496 15.835 7.83398 15.6035 7.99805 15.3105C8.16797 15.0117 8.25293 14.6631 8.25293 14.2646C8.25293 13.8486 8.17969 13.4883 8.0332 13.1836C7.88672 12.873 7.65527 12.6357 7.33887 12.4717C7.02246 12.3018 6.60938 12.2168 6.09961 12.2168H3.62109L3.63867 10.6084H6.86426L7.36523 11.2148C8.06836 11.2383 8.64551 11.3936 9.09668 11.6807C9.55371 11.9678 9.89355 12.3398 10.1162 12.7969C10.3389 13.2539 10.4502 13.7461 10.4502 14.2734C10.4502 15.0879 10.2715 15.7705 9.91406 16.3213C9.5625 16.8721 9.05566 17.291 8.39355 17.5781C7.73145 17.8594 6.93457 18 6.00293 18ZM14.7305 8.49023V18H12.6035V8.49023H14.7305ZM12.4629 5.99414C12.4629 5.67187 12.5684 5.40527 12.7793 5.19434C12.9961 4.97754 13.2949 4.86914 13.6758 4.86914C14.0508 4.86914 14.3467 4.97754 14.5635 5.19434C14.7803 5.40527 14.8887 5.67187 14.8887 5.99414C14.8887 6.31055 14.7803 6.57422 14.5635 6.78516C14.3467 6.99609 14.0508 7.10156 13.6758 7.10156C13.2949 7.10156 12.9961 6.99609 12.7793 6.78516C12.5684 6.57422 12.4629 6.31055 12.4629 5.99414ZM24.4072 16.3125V18H17.3232V16.3125H24.4072ZM24.2139 9.80859L18.0439 18H16.6729V16.6377L22.8076 8.49023H24.2139V9.80859ZM23.3965 8.49023V10.1777H16.7783V8.49023H23.3965ZM32.8535 8.49023V18H30.7266V8.49023H32.8535ZM30.5859 5.99414C30.5859 5.67187 30.6914 5.40527 30.9023 5.19434C31.1191 4.97754 31.418 4.86914 31.7988 4.86914C32.1738 4.86914 32.4697 4.97754 32.6865 5.19434C32.9033 5.40527 33.0117 5.67187 33.0117 5.99414C33.0117 6.31055 32.9033 6.57422 32.6865 6.78516C32.4697 6.99609 32.1738 7.10156 31.7988 7.10156C31.418 7.10156 31.1191 6.99609 30.9023 6.78516C30.6914 6.57422 30.5859 6.31055 30.5859 5.99414ZM35.2793 8.49023H37.4062V18.8262C37.4062 19.4766 37.2949 20.0244 37.0723 20.4697C36.8496 20.9209 36.5215 21.2607 36.0879 21.4893C35.6543 21.7236 35.124 21.8408 34.4971 21.8408C34.3096 21.8408 34.1162 21.8262 33.917 21.7969C33.7119 21.7734 33.5186 21.7383 33.3369 21.6914L33.3457 20.0391C33.4688 20.0625 33.6006 20.0801 33.7412 20.0918C33.876 20.1094 34.0049 20.1182 34.1279 20.1182C34.3799 20.1182 34.5908 20.0742 34.7607 19.9863C34.9307 19.8984 35.0596 19.7607 35.1475 19.5732C35.2354 19.3857 35.2793 19.1367 35.2793 18.8262V8.49023ZM35.0947 5.99414C35.0947 5.67187 35.2031 5.40527 35.4199 5.19434C35.6367 4.97754 35.9326 4.86914 36.3076 4.86914C36.6885 4.86914 36.9844 4.97754 37.1953 5.19434C37.4121 5.40527 37.5205 5.67187 37.5205 5.99414C37.5205 6.31055 37.4121 6.57422 37.1953 6.78516C36.9844 6.99609 36.6885 7.10156 36.3076 7.10156C35.9326 7.10156 35.6367 6.99609 35.4199 6.78516C35.2031 6.57422 35.0947 6.31055 35.0947 5.99414ZM44.0508 8.49023V10.0371H38.6895V8.49023H44.0508ZM40.2363 6.16113H42.3545V15.3721C42.3545 15.665 42.3955 15.8906 42.4775 16.0488C42.5654 16.2012 42.6855 16.3037 42.8379 16.3564C42.9902 16.4092 43.1689 16.4355 43.374 16.4355C43.5205 16.4355 43.6611 16.4268 43.7959 16.4092C43.9307 16.3916 44.0391 16.374 44.1211 16.3564L44.1299 17.9736C43.9541 18.0264 43.749 18.0732 43.5146 18.1143C43.2861 18.1553 43.0225 18.1758 42.7236 18.1758C42.2373 18.1758 41.8066 18.0908 41.4316 17.9209C41.0566 17.7451 40.7637 17.4609 40.5527 17.0684C40.3418 16.6758 40.2363 16.1543 40.2363 15.5039V6.16113ZM47.9531 8.49023V18H45.8262V8.49023H47.9531ZM45.6855 5.99414C45.6855 5.67187 45.791 5.40527 46.002 5.19434C46.2188 4.97754 46.5176 4.86914 46.8984 4.86914C47.2734 4.86914 47.5693 4.97754 47.7861 5.19434C48.0029 5.40527 48.1113 5.67187 48.1113 5.99414C48.1113 6.31055 48.0029 6.57422 47.7861 6.78516C47.5693 6.99609 47.2734 7.10156 46.8984 7.10156C46.5176 7.10156 46.2188 6.99609 46.002 6.78516C45.791 6.57422 45.6855 6.31055 45.6855 5.99414ZM52.3916 10.4238V18H50.2734V8.49023H52.2686L52.3916 10.4238ZM52.0488 12.8936L51.3281 12.8848C51.3281 12.2285 51.4102 11.6221 51.5742 11.0654C51.7383 10.5088 51.9785 10.0254 52.2949 9.61523C52.6113 9.19922 53.0039 8.87988 53.4727 8.65723C53.9473 8.42871 54.4951 8.31445 55.1162 8.31445C55.5498 8.31445 55.9453 8.37891 56.3027 8.50781C56.666 8.63086 56.9795 8.82715 57.2432 9.09668C57.5127 9.36621 57.7178 9.71191 57.8584 10.1338C58.0049 10.5557 58.0781 11.0654 58.0781 11.6631V18H55.96V11.8477C55.96 11.3848 55.8896 11.0215 55.749 10.7578C55.6143 10.4941 55.418 10.3066 55.1602 10.1953C54.9082 10.0781 54.6064 10.0195 54.2549 10.0195C53.8564 10.0195 53.5166 10.0957 53.2354 10.248C52.96 10.4004 52.7344 10.6084 52.5586 10.8721C52.3828 11.1357 52.2539 11.4404 52.1719 11.7861C52.0898 12.1318 52.0488 12.501 52.0488 12.8936ZM57.9463 12.3311L56.9531 12.5508C56.9531 11.9766 57.0322 11.4346 57.1904 10.9248C57.3545 10.4092 57.5918 9.95801 57.9023 9.57129C58.2188 9.17871 58.6084 8.87109 59.0713 8.64844C59.5342 8.42578 60.0645 8.31445 60.6621 8.31445C61.1484 8.31445 61.582 8.38184 61.9629 8.5166C62.3496 8.64551 62.6777 8.85059 62.9473 9.13184C63.2168 9.41309 63.4219 9.7793 63.5625 10.2305C63.7031 10.6758 63.7734 11.2148 63.7734 11.8477V18H61.6465V11.8389C61.6465 11.3584 61.5762 10.9863 61.4355 10.7227C61.3008 10.459 61.1074 10.2773 60.8555 10.1777C60.6035 10.0723 60.3018 10.0195 59.9502 10.0195C59.6221 10.0195 59.332 10.0811 59.0801 10.2041C58.834 10.3213 58.626 10.4883 58.4561 10.7051C58.2861 10.916 58.1572 11.1592 58.0693 11.4346C57.9873 11.71 57.9463 12.0088 57.9463 12.3311ZM65.5488 13.3506V13.1484C65.5488 12.4629 65.6484 11.8271 65.8477 11.2412C66.0469 10.6494 66.334 10.1367 66.709 9.70312C67.0898 9.26367 67.5527 8.92383 68.0977 8.68359C68.6484 8.4375 69.2695 8.31445 69.9609 8.31445C70.6582 8.31445 71.2793 8.4375 71.8242 8.68359C72.375 8.92383 72.8408 9.26367 73.2217 9.70312C73.6025 10.1367 73.8926 10.6494 74.0918 11.2412C74.291 11.8271 74.3906 12.4629 74.3906 13.1484V13.3506C74.3906 14.0361 74.291 14.6719 74.0918 15.2578C73.8926 15.8438 73.6025 16.3564 73.2217 16.7959C72.8408 17.2295 72.3779 17.5693 71.833 17.8154C71.2881 18.0557 70.6699 18.1758 69.9785 18.1758C69.2812 18.1758 68.6572 18.0557 68.1064 17.8154C67.5615 17.5693 67.0986 17.2295 66.7178 16.7959C66.3369 16.3564 66.0469 15.8438 65.8477 15.2578C65.6484 14.6719 65.5488 14.0361 65.5488 13.3506ZM67.667 13.1484V13.3506C67.667 13.7783 67.7109 14.1826 67.7988 14.5635C67.8867 14.9443 68.0244 15.2783 68.2119 15.5654C68.3994 15.8525 68.6396 16.0781 68.9326 16.2422C69.2256 16.4062 69.5742 16.4883 69.9785 16.4883C70.3711 16.4883 70.7109 16.4062 70.998 16.2422C71.291 16.0781 71.5312 15.8525 71.7188 15.5654C71.9062 15.2783 72.0439 14.9443 72.1318 14.5635C72.2256 14.1826 72.2725 13.7783 72.2725 13.3506V13.1484C72.2725 12.7266 72.2256 12.3281 72.1318 11.9531C72.0439 11.5723 71.9033 11.2354 71.71 10.9424C71.5225 10.6494 71.2822 10.4209 70.9893 10.2568C70.7021 10.0869 70.3594 10.002 69.9609 10.002C69.5625 10.002 69.2168 10.0869 68.9238 10.2568C68.6367 10.4209 68.3994 10.6494 68.2119 10.9424C68.0244 11.2354 67.8867 11.5723 67.7988 11.9531C67.7109 12.3281 67.667 12.7266 67.667 13.1484ZM78.4336 8.49023V18H76.3066V8.49023H78.4336ZM76.166 5.99414C76.166 5.67187 76.2715 5.40527 76.4824 5.19434C76.6992 4.97754 76.998 4.86914 77.3789 4.86914C77.7539 4.86914 78.0498 4.97754 78.2666 5.19434C78.4834 5.40527 78.5918 5.67187 78.5918 5.99414C78.5918 6.31055 78.4834 6.57422 78.2666 6.78516C78.0498 6.99609 77.7539 7.10156 77.3789 7.10156C76.998 7.10156 76.6992 6.99609 76.4824 6.78516C76.2715 6.57422 76.166 6.31055 76.166 5.99414ZM83.5137 16.9629L86.0977 8.49023H88.3652L84.5508 19.4502C84.4629 19.6846 84.3486 19.9395 84.208 20.2148C84.0674 20.4902 83.8828 20.751 83.6543 20.9971C83.4316 21.249 83.1533 21.4512 82.8193 21.6035C82.4854 21.7617 82.0811 21.8408 81.6064 21.8408C81.4189 21.8408 81.2373 21.8232 81.0615 21.7881C80.8916 21.7588 80.7305 21.7266 80.5781 21.6914L80.5693 20.0742C80.6279 20.0801 80.6982 20.0859 80.7803 20.0918C80.8682 20.0977 80.9385 20.1006 80.9912 20.1006C81.3428 20.1006 81.6357 20.0566 81.8701 19.9688C82.1045 19.8867 82.2949 19.752 82.4414 19.5645C82.5938 19.377 82.7227 19.125 82.8281 18.8086L83.5137 16.9629ZM82.0547 8.49023L84.3135 15.6094L84.6914 17.8418L83.2236 18.2197L79.7695 8.49023H82.0547ZM98.4199 8.49023V10.0371H93.0586V8.49023H98.4199ZM94.6055 6.16113H96.7236V15.3721C96.7236 15.665 96.7646 15.8906 96.8467 16.0488C96.9346 16.2012 97.0547 16.3037 97.207 16.3564C97.3594 16.4092 97.5381 16.4355 97.7432 16.4355C97.8896 16.4355 98.0303 16.4268 98.165 16.4092C98.2998 16.3916 98.4082 16.374 98.4902 16.3564L98.499 17.9736C98.3232 18.0264 98.1182 18.0732 97.8838 18.1143C97.6553 18.1553 97.3916 18.1758 97.0928 18.1758C96.6064 18.1758 96.1758 18.0908 95.8008 17.9209C95.4258 17.7451 95.1328 17.4609 94.9219 17.0684C94.7109 16.6758 94.6055 16.1543 94.6055 15.5039V6.16113ZM105.416 16.0928V11.5576C105.416 11.2178 105.354 10.9248 105.231 10.6787C105.108 10.4326 104.921 10.2422 104.669 10.1074C104.423 9.97266 104.112 9.90527 103.737 9.90527C103.392 9.90527 103.093 9.96387 102.841 10.0811C102.589 10.1982 102.393 10.3564 102.252 10.5557C102.111 10.7549 102.041 10.9805 102.041 11.2324H99.9316C99.9316 10.8574 100.022 10.4941 100.204 10.1426C100.386 9.79102 100.649 9.47754 100.995 9.20215C101.341 8.92676 101.754 8.70996 102.234 8.55176C102.715 8.39355 103.254 8.31445 103.852 8.31445C104.566 8.31445 105.199 8.43457 105.75 8.6748C106.307 8.91504 106.743 9.27832 107.06 9.76465C107.382 10.2451 107.543 10.8486 107.543 11.5752V15.8027C107.543 16.2363 107.572 16.626 107.631 16.9717C107.695 17.3115 107.786 17.6074 107.903 17.8594V18H105.732C105.633 17.7715 105.554 17.4814 105.495 17.1299C105.442 16.7725 105.416 16.4268 105.416 16.0928ZM105.724 12.2168L105.741 13.5264H104.221C103.828 13.5264 103.482 13.5645 103.184 13.6406C102.885 13.7109 102.636 13.8164 102.437 13.957C102.237 14.0977 102.088 14.2676 101.988 14.4668C101.889 14.666 101.839 14.8916 101.839 15.1436C101.839 15.3955 101.897 15.627 102.015 15.8379C102.132 16.043 102.302 16.2041 102.524 16.3213C102.753 16.4385 103.028 16.4971 103.351 16.4971C103.784 16.4971 104.162 16.4092 104.484 16.2334C104.812 16.0518 105.07 15.832 105.258 15.5742C105.445 15.3105 105.545 15.0615 105.557 14.8271L106.242 15.7676C106.172 16.0078 106.052 16.2656 105.882 16.541C105.712 16.8164 105.489 17.0801 105.214 17.332C104.944 17.5781 104.619 17.7803 104.238 17.9385C103.863 18.0967 103.43 18.1758 102.938 18.1758C102.316 18.1758 101.763 18.0527 101.276 17.8066C100.79 17.5547 100.409 17.2178 100.134 16.7959C99.8584 16.3682 99.7207 15.8848 99.7207 15.3457C99.7207 14.8418 99.8145 14.3965 100.002 14.0098C100.195 13.6172 100.477 13.2891 100.846 13.0254C101.221 12.7617 101.678 12.5625 102.217 12.4277C102.756 12.2871 103.371 12.2168 104.062 12.2168H105.724ZM111.885 10.3008V18H109.767V8.49023H111.788L111.885 10.3008ZM114.794 8.42871L114.776 10.3975C114.647 10.374 114.507 10.3564 114.354 10.3447C114.208 10.333 114.062 10.3271 113.915 10.3271C113.552 10.3271 113.232 10.3799 112.957 10.4854C112.682 10.585 112.45 10.7314 112.263 10.9248C112.081 11.1123 111.94 11.3408 111.841 11.6104C111.741 11.8799 111.683 12.1816 111.665 12.5156L111.182 12.5508C111.182 11.9531 111.24 11.3994 111.357 10.8896C111.475 10.3799 111.65 9.93164 111.885 9.54492C112.125 9.1582 112.424 8.85645 112.781 8.63965C113.145 8.42285 113.563 8.31445 114.038 8.31445C114.167 8.31445 114.305 8.32617 114.451 8.34961C114.604 8.37305 114.718 8.39941 114.794 8.42871ZM118.239 10.4238V18H116.121V8.49023H118.116L118.239 10.4238ZM117.896 12.8936L117.176 12.8848C117.176 12.2285 117.258 11.6221 117.422 11.0654C117.586 10.5088 117.826 10.0254 118.143 9.61523C118.459 9.19922 118.852 8.87988 119.32 8.65723C119.795 8.42871 120.343 8.31445 120.964 8.31445C121.397 8.31445 121.793 8.37891 122.15 8.50781C122.514 8.63086 122.827 8.82715 123.091 9.09668C123.36 9.36621 123.565 9.71191 123.706 10.1338C123.853 10.5557 123.926 11.0654 123.926 11.6631V18H121.808V11.8477C121.808 11.3848 121.737 11.0215 121.597 10.7578C121.462 10.4941 121.266 10.3066 121.008 10.1953C120.756 10.0781 120.454 10.0195 120.103 10.0195C119.704 10.0195 119.364 10.0957 119.083 10.248C118.808 10.4004 118.582 10.6084 118.406 10.8721C118.23 11.1357 118.102 11.4404 118.02 11.7861C117.938 12.1318 117.896 12.501 117.896 12.8936ZM123.794 12.3311L122.801 12.5508C122.801 11.9766 122.88 11.4346 123.038 10.9248C123.202 10.4092 123.439 9.95801 123.75 9.57129C124.066 9.17871 124.456 8.87109 124.919 8.64844C125.382 8.42578 125.912 8.31445 126.51 8.31445C126.996 8.31445 127.43 8.38184 127.811 8.5166C128.197 8.64551 128.525 8.85059 128.795 9.13184C129.064 9.41309 129.27 9.7793 129.41 10.2305C129.551 10.6758 129.621 11.2148 129.621 11.8477V18H127.494V11.8389C127.494 11.3584 127.424 10.9863 127.283 10.7227C127.148 10.459 126.955 10.2773 126.703 10.1777C126.451 10.0723 126.149 10.0195 125.798 10.0195C125.47 10.0195 125.18 10.0811 124.928 10.2041C124.682 10.3213 124.474 10.4883 124.304 10.7051C124.134 10.916 124.005 11.1592 123.917 11.4346C123.835 11.71 123.794 12.0088 123.794 12.3311ZM131.396 13.3506V13.1484C131.396 12.4629 131.496 11.8271 131.695 11.2412C131.895 10.6494 132.182 10.1367 132.557 9.70312C132.938 9.26367 133.4 8.92383 133.945 8.68359C134.496 8.4375 135.117 8.31445 135.809 8.31445C136.506 8.31445 137.127 8.4375 137.672 8.68359C138.223 8.92383 138.688 9.26367 139.069 9.70312C139.45 10.1367 139.74 10.6494 139.939 11.2412C140.139 11.8271 140.238 12.4629 140.238 13.1484V13.3506C140.238 14.0361 140.139 14.6719 139.939 15.2578C139.74 15.8438 139.45 16.3564 139.069 16.7959C138.688 17.2295 138.226 17.5693 137.681 17.8154C137.136 18.0557 136.518 18.1758 135.826 18.1758C135.129 18.1758 134.505 18.0557 133.954 17.8154C133.409 17.5693 132.946 17.2295 132.565 16.7959C132.185 16.3564 131.895 15.8438 131.695 15.2578C131.496 14.6719 131.396 14.0361 131.396 13.3506ZM133.515 13.1484V13.3506C133.515 13.7783 133.559 14.1826 133.646 14.5635C133.734 14.9443 133.872 15.2783 134.06 15.5654C134.247 15.8525 134.487 16.0781 134.78 16.2422C135.073 16.4062 135.422 16.4883 135.826 16.4883C136.219 16.4883 136.559 16.4062 136.846 16.2422C137.139 16.0781 137.379 15.8525 137.566 15.5654C137.754 15.2783 137.892 14.9443 137.979 14.5635C138.073 14.1826 138.12 13.7783 138.12 13.3506V13.1484C138.12 12.7266 138.073 12.3281 137.979 11.9531C137.892 11.5723 137.751 11.2354 137.558 10.9424C137.37 10.6494 137.13 10.4209 136.837 10.2568C136.55 10.0869 136.207 10.002 135.809 10.002C135.41 10.002 135.064 10.0869 134.771 10.2568C134.484 10.4209 134.247 10.6494 134.06 10.9424C133.872 11.2354 133.734 11.5723 133.646 11.9531C133.559 12.3281 133.515 12.7266 133.515 13.1484ZM147.806 21.6562V10.3799L148.052 8.49023H149.941V21.6562H147.806ZM141.627 13.3418V13.1572C141.627 12.4365 141.709 11.7803 141.873 11.1885C142.037 10.5908 142.28 10.0781 142.603 9.65039C142.925 9.22266 143.317 8.89453 143.78 8.66602C144.243 8.43164 144.776 8.31445 145.38 8.31445C145.966 8.31445 146.476 8.42578 146.909 8.64844C147.349 8.87109 147.718 9.19043 148.017 9.60645C148.321 10.0166 148.564 10.5059 148.746 11.0742C148.928 11.6426 149.06 12.2754 149.142 12.9727V13.5615C149.065 14.2412 148.937 14.8623 148.755 15.4248C148.573 15.9873 148.33 16.4736 148.025 16.8838C147.721 17.2939 147.349 17.6133 146.909 17.8418C146.47 18.0645 145.954 18.1758 145.362 18.1758C144.771 18.1758 144.243 18.0557 143.78 17.8154C143.317 17.5752 142.925 17.2383 142.603 16.8047C142.286 16.3652 142.043 15.8525 141.873 15.2666C141.709 14.6748 141.627 14.0332 141.627 13.3418ZM143.745 13.1572V13.3418C143.745 13.7754 143.783 14.1826 143.859 14.5635C143.941 14.9385 144.07 15.2725 144.246 15.5654C144.422 15.8525 144.645 16.0781 144.914 16.2422C145.184 16.4062 145.509 16.4883 145.89 16.4883C146.388 16.4883 146.795 16.3799 147.111 16.1631C147.434 15.9463 147.68 15.6562 147.85 15.293C148.025 14.9238 148.148 14.5166 148.219 14.0713V12.4805C148.178 12.1348 148.104 11.8125 147.999 11.5137C147.894 11.209 147.747 10.9453 147.56 10.7227C147.378 10.4941 147.149 10.3184 146.874 10.1953C146.604 10.0664 146.282 10.002 145.907 10.002C145.526 10.002 145.198 10.084 144.923 10.248C144.647 10.4121 144.422 10.6406 144.246 10.9336C144.076 11.2207 143.95 11.5547 143.868 11.9355C143.786 12.3164 143.745 12.7236 143.745 13.1572ZM154.477 4.5V18H152.35V4.5H154.477ZM162.158 16.0928V11.5576C162.158 11.2178 162.097 10.9248 161.974 10.6787C161.851 10.4326 161.663 10.2422 161.411 10.1074C161.165 9.97266 160.854 9.90527 160.479 9.90527C160.134 9.90527 159.835 9.96387 159.583 10.0811C159.331 10.1982 159.135 10.3564 158.994 10.5557C158.854 10.7549 158.783 10.9805 158.783 11.2324H156.674C156.674 10.8574 156.765 10.4941 156.946 10.1426C157.128 9.79102 157.392 9.47754 157.737 9.20215C158.083 8.92676 158.496 8.70996 158.977 8.55176C159.457 8.39355 159.996 8.31445 160.594 8.31445C161.309 8.31445 161.941 8.43457 162.492 8.6748C163.049 8.91504 163.485 9.27832 163.802 9.76465C164.124 10.2451 164.285 10.8486 164.285 11.5752V15.8027C164.285 16.2363 164.314 16.626 164.373 16.9717C164.438 17.3115 164.528 17.6074 164.646 17.8594V18H162.475C162.375 17.7715 162.296 17.4814 162.237 17.1299C162.185 16.7725 162.158 16.4268 162.158 16.0928ZM162.466 12.2168L162.483 13.5264H160.963C160.57 13.5264 160.225 13.5645 159.926 13.6406C159.627 13.7109 159.378 13.8164 159.179 13.957C158.979 14.0977 158.83 14.2676 158.73 14.4668C158.631 14.666 158.581 14.8916 158.581 15.1436C158.581 15.3955 158.64 15.627 158.757 15.8379C158.874 16.043 159.044 16.2041 159.267 16.3213C159.495 16.4385 159.771 16.4971 160.093 16.4971C160.526 16.4971 160.904 16.4092 161.227 16.2334C161.555 16.0518 161.812 15.832 162 15.5742C162.188 15.3105 162.287 15.0615 162.299 14.8271L162.984 15.7676C162.914 16.0078 162.794 16.2656 162.624 16.541C162.454 16.8164 162.231 17.0801 161.956 17.332C161.687 17.5781 161.361 17.7803 160.98 17.9385C160.605 18.0967 160.172 18.1758 159.68 18.1758C159.059 18.1758 158.505 18.0527 158.019 17.8066C157.532 17.5547 157.151 17.2178 156.876 16.7959C156.601 16.3682 156.463 15.8848 156.463 15.3457C156.463 14.8418 156.557 14.3965 156.744 14.0098C156.938 13.6172 157.219 13.2891 157.588 13.0254C157.963 12.7617 158.42 12.5625 158.959 12.4277C159.498 12.2871 160.113 12.2168 160.805 12.2168H162.466ZM168.627 10.3008V18H166.509V8.49023H168.53L168.627 10.3008ZM171.536 8.42871L171.519 10.3975C171.39 10.374 171.249 10.3564 171.097 10.3447C170.95 10.333 170.804 10.3271 170.657 10.3271C170.294 10.3271 169.975 10.3799 169.699 10.4854C169.424 10.585 169.192 10.7314 169.005 10.9248C168.823 11.1123 168.683 11.3408 168.583 11.6104C168.483 11.8799 168.425 12.1816 168.407 12.5156L167.924 12.5508C167.924 11.9531 167.982 11.3994 168.1 10.8896C168.217 10.3799 168.393 9.93164 168.627 9.54492C168.867 9.1582 169.166 8.85645 169.523 8.63965C169.887 8.42285 170.306 8.31445 170.78 8.31445C170.909 8.31445 171.047 8.32617 171.193 8.34961C171.346 8.37305 171.46 8.39941 171.536 8.42871ZM178.488 16.0312V4.5H180.615V18H178.69L178.488 16.0312ZM172.301 13.3506V13.166C172.301 12.4453 172.386 11.7891 172.556 11.1973C172.726 10.5996 172.972 10.0869 173.294 9.65918C173.616 9.22559 174.009 8.89453 174.472 8.66602C174.935 8.43164 175.456 8.31445 176.036 8.31445C176.61 8.31445 177.114 8.42578 177.548 8.64844C177.981 8.87109 178.351 9.19043 178.655 9.60645C178.96 10.0166 179.203 10.5088 179.385 11.083C179.566 11.6514 179.695 12.2842 179.771 12.9814V13.5703C179.695 14.25 179.566 14.8711 179.385 15.4336C179.203 15.9961 178.96 16.4824 178.655 16.8926C178.351 17.3027 177.979 17.6191 177.539 17.8418C177.105 18.0645 176.599 18.1758 176.019 18.1758C175.444 18.1758 174.926 18.0557 174.463 17.8154C174.006 17.5752 173.616 17.2383 173.294 16.8047C172.972 16.3711 172.726 15.8613 172.556 15.2754C172.386 14.6836 172.301 14.042 172.301 13.3506ZM174.419 13.166V13.3506C174.419 13.7842 174.457 14.1885 174.533 14.5635C174.615 14.9385 174.741 15.2695 174.911 15.5566C175.081 15.8379 175.301 16.0605 175.57 16.2246C175.846 16.3828 176.174 16.4619 176.555 16.4619C177.035 16.4619 177.431 16.3564 177.741 16.1455C178.052 15.9346 178.295 15.6504 178.471 15.293C178.652 14.9297 178.775 14.5254 178.84 14.0801V12.4893C178.805 12.1436 178.731 11.8213 178.62 11.5225C178.515 11.2236 178.371 10.9629 178.189 10.7402C178.008 10.5117 177.782 10.3359 177.513 10.2129C177.249 10.084 176.936 10.0195 176.572 10.0195C176.186 10.0195 175.857 10.1016 175.588 10.2656C175.318 10.4297 175.096 10.6553 174.92 10.9424C174.75 11.2295 174.624 11.5635 174.542 11.9443C174.46 12.3252 174.419 12.7324 174.419 13.166ZM188.191 16.0928V11.5576C188.191 11.2178 188.13 10.9248 188.007 10.6787C187.884 10.4326 187.696 10.2422 187.444 10.1074C187.198 9.97266 186.888 9.90527 186.513 9.90527C186.167 9.90527 185.868 9.96387 185.616 10.0811C185.364 10.1982 185.168 10.3564 185.027 10.5557C184.887 10.7549 184.816 10.9805 184.816 11.2324H182.707C182.707 10.8574 182.798 10.4941 182.979 10.1426C183.161 9.79102 183.425 9.47754 183.771 9.20215C184.116 8.92676 184.529 8.70996 185.01 8.55176C185.49 8.39355 186.029 8.31445 186.627 8.31445C187.342 8.31445 187.975 8.43457 188.525 8.6748C189.082 8.91504 189.519 9.27832 189.835 9.76465C190.157 10.2451 190.318 10.8486 190.318 11.5752V15.8027C190.318 16.2363 190.348 16.626 190.406 16.9717C190.471 17.3115 190.562 17.6074 190.679 17.8594V18H188.508C188.408 17.7715 188.329 17.4814 188.271 17.1299C188.218 16.7725 188.191 16.4268 188.191 16.0928ZM188.499 12.2168L188.517 13.5264H186.996C186.604 13.5264 186.258 13.5645 185.959 13.6406C185.66 13.7109 185.411 13.8164 185.212 13.957C185.013 14.0977 184.863 14.2676 184.764 14.4668C184.664 14.666 184.614 14.8916 184.614 15.1436C184.614 15.3955 184.673 15.627 184.79 15.8379C184.907 16.043 185.077 16.2041 185.3 16.3213C185.528 16.4385 185.804 16.4971 186.126 16.4971C186.56 16.4971 186.938 16.4092 187.26 16.2334C187.588 16.0518 187.846 15.832 188.033 15.5742C188.221 15.3105 188.32 15.0615 188.332 14.8271L189.018 15.7676C188.947 16.0078 188.827 16.2656 188.657 16.541C188.487 16.8164 188.265 17.0801 187.989 17.332C187.72 17.5781 187.395 17.7803 187.014 17.9385C186.639 18.0967 186.205 18.1758 185.713 18.1758C185.092 18.1758 184.538 18.0527 184.052 17.8066C183.565 17.5547 183.185 17.2178 182.909 16.7959C182.634 16.3682 182.496 15.8848 182.496 15.3457C182.496 14.8418 182.59 14.3965 182.777 14.0098C182.971 13.6172 183.252 13.2891 183.621 13.0254C183.996 12.7617 184.453 12.5625 184.992 12.4277C185.531 12.2871 186.146 12.2168 186.838 12.2168H188.499Z" fill="white"/>
<path d="M34.9375 53.625V65H33.4297V53.625H34.9375ZM38.9062 58.3516V65H37.4609V56.5469H38.8281L38.9062 58.3516ZM38.5625 60.4531L37.9609 60.4297C37.9661 59.8516 38.0521 59.3177 38.2188 58.8281C38.3854 58.3333 38.6198 57.9036 38.9219 57.5391C39.224 57.1745 39.5833 56.8932 40 56.6953C40.4219 56.4922 40.888 56.3906 41.3984 56.3906C41.8151 56.3906 42.1901 56.4479 42.5234 56.5625C42.8568 56.6719 43.1406 56.849 43.375 57.0938C43.6146 57.3385 43.7969 57.6562 43.9219 58.0469C44.0469 58.4323 44.1094 58.9036 44.1094 59.4609V65H42.6562V59.4453C42.6562 59.0026 42.5911 58.6484 42.4609 58.3828C42.3307 58.112 42.1406 57.9167 41.8906 57.7969C41.6406 57.6719 41.3333 57.6094 40.9688 57.6094C40.6094 57.6094 40.2812 57.6849 39.9844 57.8359C39.6927 57.987 39.4401 58.1953 39.2266 58.4609C39.0182 58.7266 38.8542 59.0312 38.7344 59.375C38.6198 59.7135 38.5625 60.0729 38.5625 60.4531ZM51.2266 62.7578C51.2266 62.5495 51.1797 62.3568 51.0859 62.1797C50.9974 61.9974 50.8125 61.8333 50.5312 61.6875C50.2552 61.5365 49.8385 61.4062 49.2812 61.2969C48.8125 61.1979 48.388 61.0807 48.0078 60.9453C47.6328 60.8099 47.3125 60.6458 47.0469 60.4531C46.7865 60.2604 46.5859 60.0339 46.4453 59.7734C46.3047 59.513 46.2344 59.2083 46.2344 58.8594C46.2344 58.526 46.3073 58.2109 46.4531 57.9141C46.6042 57.6172 46.8151 57.3542 47.0859 57.125C47.362 56.8958 47.6927 56.7161 48.0781 56.5859C48.4635 56.4557 48.8932 56.3906 49.3672 56.3906C50.0443 56.3906 50.6224 56.5104 51.1016 56.75C51.5807 56.9896 51.9479 57.3099 52.2031 57.7109C52.4583 58.1068 52.5859 58.5469 52.5859 59.0312H51.1406C51.1406 58.7969 51.0703 58.5703 50.9297 58.3516C50.7943 58.1276 50.5938 57.9427 50.3281 57.7969C50.0677 57.651 49.7474 57.5781 49.3672 57.5781C48.9661 57.5781 48.6406 57.6406 48.3906 57.7656C48.1458 57.8854 47.9661 58.0391 47.8516 58.2266C47.7422 58.4141 47.6875 58.612 47.6875 58.8203C47.6875 58.9766 47.7135 59.1172 47.7656 59.2422C47.8229 59.362 47.9219 59.474 48.0625 59.5781C48.2031 59.6771 48.401 59.7708 48.6562 59.8594C48.9115 59.9479 49.237 60.0365 49.6328 60.125C50.3255 60.2812 50.8958 60.4688 51.3438 60.6875C51.7917 60.9062 52.125 61.1745 52.3438 61.4922C52.5625 61.8099 52.6719 62.1953 52.6719 62.6484C52.6719 63.0182 52.5938 63.3568 52.4375 63.6641C52.2865 63.9714 52.0651 64.237 51.7734 64.4609C51.487 64.6797 51.1432 64.8516 50.7422 64.9766C50.3464 65.0964 49.901 65.1562 49.4062 65.1562C48.6615 65.1562 48.0312 65.0234 47.5156 64.7578C47 64.4922 46.6094 64.1484 46.3438 63.7266C46.0781 63.3047 45.9453 62.8594 45.9453 62.3906H47.3984C47.4193 62.7865 47.5339 63.1016 47.7422 63.3359C47.9505 63.5651 48.2057 63.7292 48.5078 63.8281C48.8099 63.9219 49.1094 63.9688 49.4062 63.9688C49.8021 63.9688 50.1328 63.9167 50.3984 63.8125C50.6693 63.7083 50.875 63.5651 51.0156 63.3828C51.1562 63.2005 51.2266 62.9922 51.2266 62.7578ZM58.1094 56.5469V57.6562H53.5391V56.5469H58.1094ZM55.0859 54.4922H56.5312V62.9062C56.5312 63.1927 56.5755 63.4089 56.6641 63.5547C56.7526 63.7005 56.8672 63.7969 57.0078 63.8438C57.1484 63.8906 57.2995 63.9141 57.4609 63.9141C57.5807 63.9141 57.7057 63.9036 57.8359 63.8828C57.9714 63.8568 58.0729 63.8359 58.1406 63.8203L58.1484 65C58.0339 65.0365 57.8828 65.0703 57.6953 65.1016C57.513 65.138 57.2917 65.1562 57.0312 65.1562C56.6771 65.1562 56.3516 65.0859 56.0547 64.9453C55.7578 64.8047 55.5208 64.5703 55.3438 64.2422C55.1719 63.9089 55.0859 63.4609 55.0859 62.8984V54.4922ZM64.7891 63.5547V59.2031C64.7891 58.8698 64.7214 58.5807 64.5859 58.3359C64.4557 58.0859 64.2578 57.8932 63.9922 57.7578C63.7266 57.6224 63.3984 57.5547 63.0078 57.5547C62.6432 57.5547 62.3229 57.6172 62.0469 57.7422C61.776 57.8672 61.5625 58.0312 61.4062 58.2344C61.2552 58.4375 61.1797 58.6562 61.1797 58.8906H59.7344C59.7344 58.5885 59.8125 58.2891 59.9688 57.9922C60.125 57.6953 60.349 57.4271 60.6406 57.1875C60.9375 56.9427 61.2917 56.75 61.7031 56.6094C62.1198 56.4635 62.5833 56.3906 63.0938 56.3906C63.7083 56.3906 64.25 56.4948 64.7188 56.7031C65.1927 56.9115 65.5625 57.2266 65.8281 57.6484C66.099 58.0651 66.2344 58.5885 66.2344 59.2188V63.1562C66.2344 63.4375 66.2578 63.737 66.3047 64.0547C66.3568 64.3724 66.4323 64.6458 66.5312 64.875V65H65.0234C64.9505 64.8333 64.8932 64.612 64.8516 64.3359C64.8099 64.0547 64.7891 63.7943 64.7891 63.5547ZM65.0391 59.875L65.0547 60.8906H63.5938C63.1823 60.8906 62.8151 60.9245 62.4922 60.9922C62.1693 61.0547 61.8984 61.151 61.6797 61.2812C61.4609 61.4115 61.2943 61.5755 61.1797 61.7734C61.0651 61.9661 61.0078 62.1927 61.0078 62.4531C61.0078 62.7188 61.0677 62.9609 61.1875 63.1797C61.3073 63.3984 61.487 63.5729 61.7266 63.7031C61.9714 63.8281 62.2708 63.8906 62.625 63.8906C63.0677 63.8906 63.4583 63.7969 63.7969 63.6094C64.1354 63.4219 64.4036 63.1927 64.6016 62.9219C64.8047 62.651 64.9141 62.388 64.9297 62.1328L65.5469 62.8281C65.5104 63.0469 65.4115 63.2891 65.25 63.5547C65.0885 63.8203 64.8724 64.0755 64.6016 64.3203C64.3359 64.5599 64.0182 64.7604 63.6484 64.9219C63.2839 65.0781 62.8724 65.1562 62.4141 65.1562C61.8411 65.1562 61.3385 65.0443 60.9062 64.8203C60.4792 64.5964 60.1458 64.2969 59.9062 63.9219C59.6719 63.5417 59.5547 63.1172 59.5547 62.6484C59.5547 62.1953 59.6432 61.7969 59.8203 61.4531C59.9974 61.1042 60.2526 60.8151 60.5859 60.5859C60.9193 60.3516 61.3203 60.1745 61.7891 60.0547C62.2578 59.9349 62.7812 59.875 63.3594 59.875H65.0391ZM73.9844 56.5469H75.2969V64.8203C75.2969 65.5651 75.1458 66.2005 74.8438 66.7266C74.5417 67.2526 74.1198 67.651 73.5781 67.9219C73.0417 68.1979 72.4219 68.3359 71.7188 68.3359C71.4271 68.3359 71.0833 68.2891 70.6875 68.1953C70.2969 68.1068 69.9115 67.9531 69.5312 67.7344C69.1562 67.5208 68.8411 67.2318 68.5859 66.8672L69.3438 66.0078C69.6979 66.4349 70.0677 66.7318 70.4531 66.8984C70.8438 67.0651 71.2292 67.1484 71.6094 67.1484C72.0677 67.1484 72.4635 67.0625 72.7969 66.8906C73.1302 66.7188 73.388 66.4635 73.5703 66.125C73.7578 65.7917 73.8516 65.3802 73.8516 64.8906V58.4062L73.9844 56.5469ZM68.1641 60.8672V60.7031C68.1641 60.0573 68.2396 59.4714 68.3906 58.9453C68.5469 58.4141 68.7682 57.9583 69.0547 57.5781C69.3464 57.1979 69.6979 56.9062 70.1094 56.7031C70.5208 56.4948 70.9844 56.3906 71.5 56.3906C72.0312 56.3906 72.4948 56.4844 72.8906 56.6719C73.2917 56.8542 73.6302 57.1224 73.9062 57.4766C74.1875 57.8255 74.4089 58.2474 74.5703 58.7422C74.7318 59.237 74.8438 59.7969 74.9062 60.4219V61.1406C74.849 61.7604 74.737 62.3177 74.5703 62.8125C74.4089 63.3073 74.1875 63.7292 73.9062 64.0781C73.6302 64.4271 73.2917 64.6953 72.8906 64.8828C72.4896 65.0651 72.0208 65.1562 71.4844 65.1562C70.9792 65.1562 70.5208 65.0495 70.1094 64.8359C69.7031 64.6224 69.3542 64.3229 69.0625 63.9375C68.7708 63.5521 68.5469 63.099 68.3906 62.5781C68.2396 62.0521 68.1641 61.4818 68.1641 60.8672ZM69.6094 60.7031V60.8672C69.6094 61.2891 69.651 61.6849 69.7344 62.0547C69.8229 62.4245 69.9557 62.75 70.1328 63.0312C70.3151 63.3125 70.5469 63.5339 70.8281 63.6953C71.1094 63.8516 71.4453 63.9297 71.8359 63.9297C72.3151 63.9297 72.7109 63.8281 73.0234 63.625C73.3359 63.4219 73.5833 63.1536 73.7656 62.8203C73.9531 62.487 74.099 62.125 74.2031 61.7344V59.8516C74.1458 59.5651 74.0573 59.2891 73.9375 59.0234C73.8229 58.7526 73.6719 58.513 73.4844 58.3047C73.3021 58.0911 73.0755 57.9219 72.8047 57.7969C72.5339 57.6719 72.2161 57.6094 71.8516 57.6094C71.4557 57.6094 71.1146 57.6927 70.8281 57.8594C70.5469 58.0208 70.3151 58.2448 70.1328 58.5312C69.9557 58.8125 69.8229 59.1406 69.7344 59.5156C69.651 59.8854 69.6094 60.2812 69.6094 60.7031ZM78.9375 57.875V65H77.4922V56.5469H78.8984L78.9375 57.875ZM81.5781 56.5L81.5703 57.8438C81.4505 57.8177 81.3359 57.8021 81.2266 57.7969C81.1224 57.7865 81.0026 57.7812 80.8672 57.7812C80.5339 57.7812 80.2396 57.8333 79.9844 57.9375C79.7292 58.0417 79.513 58.1875 79.3359 58.375C79.1589 58.5625 79.0182 58.7865 78.9141 59.0469C78.8151 59.3021 78.75 59.5833 78.7188 59.8906L78.3125 60.125C78.3125 59.6146 78.362 59.1354 78.4609 58.6875C78.5651 58.2396 78.724 57.8438 78.9375 57.5C79.151 57.151 79.4219 56.8802 79.75 56.6875C80.0833 56.4896 80.4792 56.3906 80.9375 56.3906C81.0417 56.3906 81.1615 56.4036 81.2969 56.4297C81.4323 56.4505 81.526 56.474 81.5781 56.5ZM87.5859 63.5547V59.2031C87.5859 58.8698 87.5182 58.5807 87.3828 58.3359C87.2526 58.0859 87.0547 57.8932 86.7891 57.7578C86.5234 57.6224 86.1953 57.5547 85.8047 57.5547C85.4401 57.5547 85.1198 57.6172 84.8438 57.7422C84.5729 57.8672 84.3594 58.0312 84.2031 58.2344C84.0521 58.4375 83.9766 58.6562 83.9766 58.8906H82.5312C82.5312 58.5885 82.6094 58.2891 82.7656 57.9922C82.9219 57.6953 83.1458 57.4271 83.4375 57.1875C83.7344 56.9427 84.0885 56.75 84.5 56.6094C84.9167 56.4635 85.3802 56.3906 85.8906 56.3906C86.5052 56.3906 87.0469 56.4948 87.5156 56.7031C87.9896 56.9115 88.3594 57.2266 88.625 57.6484C88.8958 58.0651 89.0312 58.5885 89.0312 59.2188V63.1562C89.0312 63.4375 89.0547 63.737 89.1016 64.0547C89.1536 64.3724 89.2292 64.6458 89.3281 64.875V65H87.8203C87.7474 64.8333 87.6901 64.612 87.6484 64.3359C87.6068 64.0547 87.5859 63.7943 87.5859 63.5547ZM87.8359 59.875L87.8516 60.8906H86.3906C85.9792 60.8906 85.612 60.9245 85.2891 60.9922C84.9661 61.0547 84.6953 61.151 84.4766 61.2812C84.2578 61.4115 84.0911 61.5755 83.9766 61.7734C83.862 61.9661 83.8047 62.1927 83.8047 62.4531C83.8047 62.7188 83.8646 62.9609 83.9844 63.1797C84.1042 63.3984 84.2839 63.5729 84.5234 63.7031C84.7682 63.8281 85.0677 63.8906 85.4219 63.8906C85.8646 63.8906 86.2552 63.7969 86.5938 63.6094C86.9323 63.4219 87.2005 63.1927 87.3984 62.9219C87.6016 62.651 87.7109 62.388 87.7266 62.1328L88.3438 62.8281C88.3073 63.0469 88.2083 63.2891 88.0469 63.5547C87.8854 63.8203 87.6693 64.0755 87.3984 64.3203C87.1328 64.5599 86.8151 64.7604 86.4453 64.9219C86.0807 65.0781 85.6693 65.1562 85.2109 65.1562C84.638 65.1562 84.1354 65.0443 83.7031 64.8203C83.276 64.5964 82.9427 64.2969 82.7031 63.9219C82.4688 63.5417 82.3516 63.1172 82.3516 62.6484C82.3516 62.1953 82.4401 61.7969 82.6172 61.4531C82.7943 61.1042 83.0495 60.8151 83.3828 60.5859C83.7161 60.3516 84.1172 60.1745 84.5859 60.0547C85.0547 59.9349 85.5781 59.875 86.1562 59.875H87.8359ZM92.7422 58.2266V65H91.2891V56.5469H92.6641L92.7422 58.2266ZM92.4453 60.4531L91.7734 60.4297C91.7786 59.8516 91.8542 59.3177 92 58.8281C92.1458 58.3333 92.362 57.9036 92.6484 57.5391C92.9349 57.1745 93.2917 56.8932 93.7188 56.6953C94.1458 56.4922 94.6406 56.3906 95.2031 56.3906C95.599 56.3906 95.9635 56.4479 96.2969 56.5625C96.6302 56.6719 96.9193 56.8464 97.1641 57.0859C97.4089 57.3255 97.599 57.6328 97.7344 58.0078C97.8698 58.3828 97.9375 58.8359 97.9375 59.3672V65H96.4922V59.4375C96.4922 58.9948 96.4167 58.6406 96.2656 58.375C96.1198 58.1094 95.9115 57.9167 95.6406 57.7969C95.3698 57.6719 95.0521 57.6094 94.6875 57.6094C94.2604 57.6094 93.9036 57.6849 93.6172 57.8359C93.3307 57.987 93.1016 58.1953 92.9297 58.4609C92.7578 58.7266 92.6328 59.0312 92.5547 59.375C92.4818 59.7135 92.4453 60.0729 92.4453 60.4531ZM97.9219 59.6562L96.9531 59.9531C96.9583 59.4896 97.0339 59.0443 97.1797 58.6172C97.3307 58.1901 97.5469 57.8099 97.8281 57.4766C98.1146 57.1432 98.4661 56.8802 98.8828 56.6875C99.2995 56.4896 99.776 56.3906 100.312 56.3906C100.766 56.3906 101.167 56.4505 101.516 56.5703C101.87 56.6901 102.167 56.875 102.406 57.125C102.651 57.3698 102.836 57.6849 102.961 58.0703C103.086 58.4557 103.148 58.9141 103.148 59.4453V65H101.695V59.4297C101.695 58.9557 101.62 58.5885 101.469 58.3281C101.323 58.0625 101.115 57.8776 100.844 57.7734C100.578 57.6641 100.26 57.6094 99.8906 57.6094C99.5729 57.6094 99.2917 57.6641 99.0469 57.7734C98.8021 57.8828 98.5964 58.0339 98.4297 58.2266C98.263 58.4141 98.1354 58.6302 98.0469 58.875C97.9635 59.1198 97.9219 59.3802 97.9219 59.6562Z" fill="white"/>
<path fill-rule="evenodd" clip-rule="evenodd" d="M7.465 49.066C8.638 49.012 9.012 49 12 49C14.988 49 15.362 49.013 16.534 49.066C17.706 49.119 18.506 49.306 19.206 49.577C19.939 49.854 20.604 50.287 21.154 50.847C21.714 51.396 22.146 52.06 22.422 52.794C22.694 53.494 22.88 54.294 22.934 55.464C22.988 56.639 23 57.013 23 60C23 62.988 22.987 63.362 22.934 64.535C22.881 65.705 22.694 66.505 22.422 67.205C22.146 67.9391 21.7133 68.6042 21.154 69.154C20.604 69.714 19.939 70.146 19.206 70.422C18.506 70.694 17.706 70.88 16.536 70.934C15.362 70.988 14.988 71 12 71C9.012 71 8.638 70.987 7.465 70.934C6.295 70.881 5.495 70.694 4.795 70.422C4.06092 70.146 3.39582 69.7133 2.846 69.154C2.28638 68.6047 1.85331 67.9399 1.577 67.206C1.306 66.506 1.12 65.706 1.066 64.536C1.012 63.361 1 62.987 1 60C1 57.012 1.013 56.638 1.066 55.466C1.119 54.294 1.306 53.494 1.577 52.794C1.85372 52.0601 2.28712 51.3953 2.847 50.846C3.39604 50.2865 4.06047 49.8534 4.794 49.577C5.494 49.306 6.294 49.12 7.464 49.066H7.465ZM16.445 51.046C15.285 50.993 14.937 50.982 12 50.982C9.063 50.982 8.715 50.993 7.555 51.046C6.482 51.095 5.9 51.274 5.512 51.425C4.999 51.625 4.632 51.862 4.247 52.247C3.88205 52.6021 3.60118 53.0343 3.425 53.512C3.274 53.9 3.095 54.482 3.046 55.555C2.993 56.715 2.982 57.063 2.982 60C2.982 62.937 2.993 63.285 3.046 64.445C3.095 65.518 3.274 66.1 3.425 66.488C3.601 66.965 3.882 67.398 4.247 67.753C4.602 68.118 5.035 68.399 5.512 68.575C5.9 68.726 6.482 68.905 7.555 68.954C8.715 69.007 9.062 69.018 12 69.018C14.938 69.018 15.285 69.007 16.445 68.954C17.518 68.905 18.1 68.726 18.488 68.575C19.001 68.375 19.368 68.138 19.753 67.753C20.118 67.398 20.399 66.965 20.575 66.488C20.726 66.1 20.905 65.518 20.954 64.445C21.007 63.285 21.018 62.937 21.018 60C21.018 57.063 21.007 56.715 20.954 55.555C20.905 54.482 20.726 53.9 20.575 53.512C20.375 52.999 20.138 52.632 19.753 52.247C19.3979 51.8821 18.9657 51.6012 18.488 51.425C18.1 51.274 17.518 51.095 16.445 51.046V51.046ZM10.595 63.391C11.3797 63.7176 12.2534 63.7617 13.0669 63.5157C13.8805 63.2697 14.5834 62.7489 15.0556 62.0422C15.5278 61.3356 15.7401 60.4869 15.656 59.6411C15.572 58.7953 15.197 58.005 14.595 57.405C14.2112 57.0215 13.7472 56.7278 13.2363 56.5451C12.7255 56.3625 12.1804 56.2954 11.6405 56.3486C11.1006 56.4019 10.5792 56.5742 10.1138 56.8531C9.64846 57.1321 9.25074 57.5107 8.9493 57.9619C8.64786 58.413 8.45019 58.9253 8.37052 59.462C8.29084 59.9986 8.33115 60.5463 8.48854 61.0655C8.64593 61.5847 8.91648 62.0626 9.28072 62.4647C9.64496 62.8668 10.0938 63.1832 10.595 63.391ZM8.002 56.002C8.52702 55.477 9.15032 55.0605 9.8363 54.7764C10.5223 54.4922 11.2575 54.346 12 54.346C12.7425 54.346 13.4777 54.4922 14.1637 54.7764C14.8497 55.0605 15.473 55.477 15.998 56.002C16.523 56.527 16.9395 57.1503 17.2236 57.8363C17.5078 58.5223 17.654 59.2575 17.654 60C17.654 60.7425 17.5078 61.4777 17.2236 62.1637C16.9395 62.8497 16.523 63.473 15.998 63.998C14.9377 65.0583 13.4995 65.654 12 65.654C10.5005 65.654 9.06234 65.0583 8.002 63.998C6.94166 62.9377 6.34597 61.4995 6.34597 60C6.34597 58.5005 6.94166 57.0623 8.002 56.002V56.002ZM18.908 55.188C19.0381 55.0653 19.1423 54.9177 19.2143 54.754C19.2863 54.5903 19.3248 54.4138 19.3274 54.2349C19.33 54.0561 19.2967 53.8785 19.2295 53.7128C19.1622 53.5471 19.0624 53.3965 18.936 53.27C18.8095 53.1436 18.6589 53.0438 18.4932 52.9765C18.3275 52.9093 18.1499 52.876 17.9711 52.8786C17.7922 52.8812 17.6157 52.9197 17.452 52.9917C17.2883 53.0637 17.1407 53.1679 17.018 53.298C16.7793 53.551 16.6486 53.8871 16.6537 54.2349C16.6588 54.5827 16.7992 54.9149 17.0452 55.1608C17.2911 55.4068 17.6233 55.5472 17.9711 55.5523C18.3189 55.5574 18.655 55.4267 18.908 55.188V55.188Z" fill="white"/>
<path d="M37.5234 89.625V101H36.0391V89.625H37.5234ZM41.1797 89.625V90.8594H32.3906V89.625H41.1797ZM45.375 101.156C44.7865 101.156 44.2526 101.057 43.7734 100.859C43.2995 100.656 42.8906 100.372 42.5469 100.008C42.2083 99.6432 41.9479 99.2109 41.7656 98.7109C41.5833 98.2109 41.4922 97.6641 41.4922 97.0703V96.7422C41.4922 96.0547 41.5938 95.4427 41.7969 94.9062C42 94.3646 42.276 93.9062 42.625 93.5312C42.974 93.1562 43.3698 92.8724 43.8125 92.6797C44.2552 92.487 44.7135 92.3906 45.1875 92.3906C45.7917 92.3906 46.3125 92.4948 46.75 92.7031C47.1927 92.9115 47.5547 93.2031 47.8359 93.5781C48.1172 93.9479 48.3255 94.3854 48.4609 94.8906C48.5964 95.3906 48.6641 95.9375 48.6641 96.5312V97.1797H42.3516V96H47.2188V95.8906C47.1979 95.5156 47.1198 95.151 46.9844 94.7969C46.8542 94.4427 46.6458 94.151 46.3594 93.9219C46.0729 93.6927 45.6823 93.5781 45.1875 93.5781C44.8594 93.5781 44.5573 93.6484 44.2812 93.7891C44.0052 93.9245 43.7682 94.1276 43.5703 94.3984C43.3724 94.6693 43.2188 95 43.1094 95.3906C43 95.7812 42.9453 96.2318 42.9453 96.7422V97.0703C42.9453 97.4714 43 97.849 43.1094 98.2031C43.224 98.5521 43.388 98.8594 43.6016 99.125C43.8203 99.3906 44.0833 99.599 44.3906 99.75C44.7031 99.901 45.0573 99.9766 45.4531 99.9766C45.9635 99.9766 46.3958 99.8724 46.75 99.6641C47.1042 99.4557 47.4141 99.1771 47.6797 98.8281L48.5547 99.5234C48.3724 99.7995 48.1406 100.062 47.8594 100.312C47.5781 100.562 47.2318 100.766 46.8203 100.922C46.4141 101.078 45.9323 101.156 45.375 101.156ZM51.9219 89V101H50.4688V89H51.9219ZM57.75 101.156C57.1615 101.156 56.6276 101.057 56.1484 100.859C55.6745 100.656 55.2656 100.372 54.9219 100.008C54.5833 99.6432 54.3229 99.2109 54.1406 98.7109C53.9583 98.2109 53.8672 97.6641 53.8672 97.0703V96.7422C53.8672 96.0547 53.9688 95.4427 54.1719 94.9062C54.375 94.3646 54.651 93.9062 55 93.5312C55.349 93.1562 55.7448 92.8724 56.1875 92.6797C56.6302 92.487 57.0885 92.3906 57.5625 92.3906C58.1667 92.3906 58.6875 92.4948 59.125 92.7031C59.5677 92.9115 59.9297 93.2031 60.2109 93.5781C60.4922 93.9479 60.7005 94.3854 60.8359 94.8906C60.9714 95.3906 61.0391 95.9375 61.0391 96.5312V97.1797H54.7266V96H59.5938V95.8906C59.5729 95.5156 59.4948 95.151 59.3594 94.7969C59.2292 94.4427 59.0208 94.151 58.7344 93.9219C58.4479 93.6927 58.0573 93.5781 57.5625 93.5781C57.2344 93.5781 56.9323 93.6484 56.6562 93.7891C56.3802 93.9245 56.1432 94.1276 55.9453 94.3984C55.7474 94.6693 55.5938 95 55.4844 95.3906C55.375 95.7812 55.3203 96.2318 55.3203 96.7422V97.0703C55.3203 97.4714 55.375 97.849 55.4844 98.2031C55.599 98.5521 55.763 98.8594 55.9766 99.125C56.1953 99.3906 56.4583 99.599 56.7656 99.75C57.0781 99.901 57.4323 99.9766 57.8281 99.9766C58.3385 99.9766 58.7708 99.8724 59.125 99.6641C59.4792 99.4557 59.7891 99.1771 60.0547 98.8281L60.9297 99.5234C60.7474 99.7995 60.5156 100.062 60.2344 100.312C59.9531 100.562 59.6068 100.766 59.1953 100.922C58.7891 101.078 58.3073 101.156 57.75 101.156ZM68.2031 92.5469H69.5156V100.82C69.5156 101.565 69.3646 102.201 69.0625 102.727C68.7604 103.253 68.3385 103.651 67.7969 103.922C67.2604 104.198 66.6406 104.336 65.9375 104.336C65.6458 104.336 65.3021 104.289 64.9062 104.195C64.5156 104.107 64.1302 103.953 63.75 103.734C63.375 103.521 63.0599 103.232 62.8047 102.867L63.5625 102.008C63.9167 102.435 64.2865 102.732 64.6719 102.898C65.0625 103.065 65.4479 103.148 65.8281 103.148C66.2865 103.148 66.6823 103.062 67.0156 102.891C67.349 102.719 67.6068 102.464 67.7891 102.125C67.9766 101.792 68.0703 101.38 68.0703 100.891V94.4062L68.2031 92.5469ZM62.3828 96.8672V96.7031C62.3828 96.0573 62.4583 95.4714 62.6094 94.9453C62.7656 94.4141 62.987 93.9583 63.2734 93.5781C63.5651 93.1979 63.9167 92.9062 64.3281 92.7031C64.7396 92.4948 65.2031 92.3906 65.7188 92.3906C66.25 92.3906 66.7135 92.4844 67.1094 92.6719C67.5104 92.8542 67.849 93.1224 68.125 93.4766C68.4062 93.8255 68.6276 94.2474 68.7891 94.7422C68.9505 95.237 69.0625 95.7969 69.125 96.4219V97.1406C69.0677 97.7604 68.9557 98.3177 68.7891 98.8125C68.6276 99.3073 68.4062 99.7292 68.125 100.078C67.849 100.427 67.5104 100.695 67.1094 100.883C66.7083 101.065 66.2396 101.156 65.7031 101.156C65.1979 101.156 64.7396 101.049 64.3281 100.836C63.9219 100.622 63.5729 100.323 63.2812 99.9375C62.9896 99.5521 62.7656 99.099 62.6094 98.5781C62.4583 98.0521 62.3828 97.4818 62.3828 96.8672ZM63.8281 96.7031V96.8672C63.8281 97.2891 63.8698 97.6849 63.9531 98.0547C64.0417 98.4245 64.1745 98.75 64.3516 99.0312C64.5339 99.3125 64.7656 99.5339 65.0469 99.6953C65.3281 99.8516 65.6641 99.9297 66.0547 99.9297C66.5339 99.9297 66.9297 99.8281 67.2422 99.625C67.5547 99.4219 67.8021 99.1536 67.9844 98.8203C68.1719 98.487 68.3177 98.125 68.4219 97.7344V95.8516C68.3646 95.5651 68.276 95.2891 68.1562 95.0234C68.0417 94.7526 67.8906 94.513 67.7031 94.3047C67.5208 94.0911 67.2943 93.9219 67.0234 93.7969C66.7526 93.6719 66.4349 93.6094 66.0703 93.6094C65.6745 93.6094 65.3333 93.6927 65.0469 93.8594C64.7656 94.0208 64.5339 94.2448 64.3516 94.5312C64.1745 94.8125 64.0417 95.1406 63.9531 95.5156C63.8698 95.8854 63.8281 96.2812 63.8281 96.7031ZM73.1562 93.875V101H71.7109V92.5469H73.1172L73.1562 93.875ZM75.7969 92.5L75.7891 93.8438C75.6693 93.8177 75.5547 93.8021 75.4453 93.7969C75.3411 93.7865 75.2214 93.7812 75.0859 93.7812C74.7526 93.7812 74.4583 93.8333 74.2031 93.9375C73.9479 94.0417 73.7318 94.1875 73.5547 94.375C73.3776 94.5625 73.237 94.7865 73.1328 95.0469C73.0339 95.3021 72.9688 95.5833 72.9375 95.8906L72.5312 96.125C72.5312 95.6146 72.5807 95.1354 72.6797 94.6875C72.7839 94.2396 72.9427 93.8438 73.1562 93.5C73.3698 93.151 73.6406 92.8802 73.9688 92.6875C74.3021 92.4896 74.6979 92.3906 75.1562 92.3906C75.2604 92.3906 75.3802 92.4036 75.5156 92.4297C75.651 92.4505 75.7448 92.474 75.7969 92.5ZM81.8047 99.5547V95.2031C81.8047 94.8698 81.737 94.5807 81.6016 94.3359C81.4714 94.0859 81.2734 93.8932 81.0078 93.7578C80.7422 93.6224 80.4141 93.5547 80.0234 93.5547C79.6589 93.5547 79.3385 93.6172 79.0625 93.7422C78.7917 93.8672 78.5781 94.0312 78.4219 94.2344C78.2708 94.4375 78.1953 94.6562 78.1953 94.8906H76.75C76.75 94.5885 76.8281 94.2891 76.9844 93.9922C77.1406 93.6953 77.3646 93.4271 77.6562 93.1875C77.9531 92.9427 78.3073 92.75 78.7188 92.6094C79.1354 92.4635 79.599 92.3906 80.1094 92.3906C80.724 92.3906 81.2656 92.4948 81.7344 92.7031C82.2083 92.9115 82.5781 93.2266 82.8438 93.6484C83.1146 94.0651 83.25 94.5885 83.25 95.2188V99.1562C83.25 99.4375 83.2734 99.737 83.3203 100.055C83.3724 100.372 83.4479 100.646 83.5469 100.875V101H82.0391C81.9661 100.833 81.9089 100.612 81.8672 100.336C81.8255 100.055 81.8047 99.7943 81.8047 99.5547ZM82.0547 95.875L82.0703 96.8906H80.6094C80.1979 96.8906 79.8307 96.9245 79.5078 96.9922C79.1849 97.0547 78.9141 97.151 78.6953 97.2812C78.4766 97.4115 78.3099 97.5755 78.1953 97.7734C78.0807 97.9661 78.0234 98.1927 78.0234 98.4531C78.0234 98.7188 78.0833 98.9609 78.2031 99.1797C78.3229 99.3984 78.5026 99.5729 78.7422 99.7031C78.987 99.8281 79.2865 99.8906 79.6406 99.8906C80.0833 99.8906 80.474 99.7969 80.8125 99.6094C81.151 99.4219 81.4193 99.1927 81.6172 98.9219C81.8203 98.651 81.9297 98.388 81.9453 98.1328L82.5625 98.8281C82.526 99.0469 82.4271 99.2891 82.2656 99.5547C82.1042 99.8203 81.888 100.076 81.6172 100.32C81.3516 100.56 81.0339 100.76 80.6641 100.922C80.2995 101.078 79.888 101.156 79.4297 101.156C78.8568 101.156 78.3542 101.044 77.9219 100.82C77.4948 100.596 77.1615 100.297 76.9219 99.9219C76.6875 99.5417 76.5703 99.1172 76.5703 98.6484C76.5703 98.1953 76.6589 97.7969 76.8359 97.4531C77.013 97.1042 77.2682 96.8151 77.6016 96.5859C77.9349 96.3516 78.3359 96.1745 78.8047 96.0547C79.2734 95.9349 79.7969 95.875 80.375 95.875H82.0547ZM86.9609 94.2266V101H85.5078V92.5469H86.8828L86.9609 94.2266ZM86.6641 96.4531L85.9922 96.4297C85.9974 95.8516 86.0729 95.3177 86.2188 94.8281C86.3646 94.3333 86.5807 93.9036 86.8672 93.5391C87.1536 93.1745 87.5104 92.8932 87.9375 92.6953C88.3646 92.4922 88.8594 92.3906 89.4219 92.3906C89.8177 92.3906 90.1823 92.4479 90.5156 92.5625C90.849 92.6719 91.138 92.8464 91.3828 93.0859C91.6276 93.3255 91.8177 93.6328 91.9531 94.0078C92.0885 94.3828 92.1562 94.8359 92.1562 95.3672V101H90.7109V95.4375C90.7109 94.9948 90.6354 94.6406 90.4844 94.375C90.3385 94.1094 90.1302 93.9167 89.8594 93.7969C89.5885 93.6719 89.2708 93.6094 88.9062 93.6094C88.4792 93.6094 88.1224 93.6849 87.8359 93.8359C87.5495 93.987 87.3203 94.1953 87.1484 94.4609C86.9766 94.7266 86.8516 95.0312 86.7734 95.375C86.7005 95.7135 86.6641 96.0729 86.6641 96.4531ZM92.1406 95.6562L91.1719 95.9531C91.1771 95.4896 91.2526 95.0443 91.3984 94.6172C91.5495 94.1901 91.7656 93.8099 92.0469 93.4766C92.3333 93.1432 92.6849 92.8802 93.1016 92.6875C93.5182 92.4896 93.9948 92.3906 94.5312 92.3906C94.9844 92.3906 95.3854 92.4505 95.7344 92.5703C96.0885 92.6901 96.3854 92.875 96.625 93.125C96.8698 93.3698 97.0547 93.6849 97.1797 94.0703C97.3047 94.4557 97.3672 94.9141 97.3672 95.4453V101H95.9141V95.4297C95.9141 94.9557 95.8385 94.5885 95.6875 94.3281C95.5417 94.0625 95.3333 93.8776 95.0625 93.7734C94.7969 93.6641 94.4792 93.6094 94.1094 93.6094C93.7917 93.6094 93.5104 93.6641 93.2656 93.7734C93.0208 93.8828 92.8151 94.0339 92.6484 94.2266C92.4818 94.4141 92.3542 94.6302 92.2656 94.875C92.1823 95.1198 92.1406 95.3802 92.1406 95.6562Z" fill="white"/>
<path d="M18.5014 89.084L3.34315 95.3039C2.85065 95.4736 2.90537 96.2086 3.39788 96.3783L7.22847 97.6223L8.76071 102.598C8.87015 102.994 9.36266 103.107 9.63627 102.824L11.8799 100.676L16.1483 103.899C16.4766 104.125 16.9144 103.955 17.0238 103.559L19.9789 90.4411C20.143 89.4799 19.3222 88.7448 18.5014 89.084ZM9.63627 98.5835L9.14377 101.524L8.04931 97.4526L18.7202 90.2149L9.63627 98.5835Z" fill="white"/>
<path d="M34.8281 125.625V137H33.3203V125.625H34.8281ZM39.5938 130.742V131.977H34.5V130.742H39.5938ZM40.3672 125.625V126.859H34.5V125.625H40.3672ZM46.6641 135.555V131.203C46.6641 130.87 46.5964 130.581 46.4609 130.336C46.3307 130.086 46.1328 129.893 45.8672 129.758C45.6016 129.622 45.2734 129.555 44.8828 129.555C44.5182 129.555 44.1979 129.617 43.9219 129.742C43.651 129.867 43.4375 130.031 43.2812 130.234C43.1302 130.438 43.0547 130.656 43.0547 130.891H41.6094C41.6094 130.589 41.6875 130.289 41.8438 129.992C42 129.695 42.224 129.427 42.5156 129.188C42.8125 128.943 43.1667 128.75 43.5781 128.609C43.9948 128.464 44.4583 128.391 44.9688 128.391C45.5833 128.391 46.125 128.495 46.5938 128.703C47.0677 128.911 47.4375 129.227 47.7031 129.648C47.974 130.065 48.1094 130.589 48.1094 131.219V135.156C48.1094 135.438 48.1328 135.737 48.1797 136.055C48.2318 136.372 48.3073 136.646 48.4062 136.875V137H46.8984C46.8255 136.833 46.7682 136.612 46.7266 136.336C46.6849 136.055 46.6641 135.794 46.6641 135.555ZM46.9141 131.875L46.9297 132.891H45.4688C45.0573 132.891 44.6901 132.924 44.3672 132.992C44.0443 133.055 43.7734 133.151 43.5547 133.281C43.3359 133.411 43.1693 133.576 43.0547 133.773C42.9401 133.966 42.8828 134.193 42.8828 134.453C42.8828 134.719 42.9427 134.961 43.0625 135.18C43.1823 135.398 43.362 135.573 43.6016 135.703C43.8464 135.828 44.1458 135.891 44.5 135.891C44.9427 135.891 45.3333 135.797 45.6719 135.609C46.0104 135.422 46.2786 135.193 46.4766 134.922C46.6797 134.651 46.7891 134.388 46.8047 134.133L47.4219 134.828C47.3854 135.047 47.2865 135.289 47.125 135.555C46.9635 135.82 46.7474 136.076 46.4766 136.32C46.2109 136.56 45.8932 136.76 45.5234 136.922C45.1589 137.078 44.7474 137.156 44.2891 137.156C43.7161 137.156 43.2135 137.044 42.7812 136.82C42.3542 136.596 42.0208 136.297 41.7812 135.922C41.5469 135.542 41.4297 135.117 41.4297 134.648C41.4297 134.195 41.5182 133.797 41.6953 133.453C41.8724 133.104 42.1276 132.815 42.4609 132.586C42.7943 132.352 43.1953 132.174 43.6641 132.055C44.1328 131.935 44.6562 131.875 45.2344 131.875H46.9141ZM53.7656 135.969C54.1094 135.969 54.4271 135.898 54.7188 135.758C55.0104 135.617 55.25 135.424 55.4375 135.18C55.625 134.93 55.7318 134.646 55.7578 134.328H57.1328C57.1068 134.828 56.9375 135.294 56.625 135.727C56.3177 136.154 55.9141 136.5 55.4141 136.766C54.9141 137.026 54.3646 137.156 53.7656 137.156C53.1302 137.156 52.5755 137.044 52.1016 136.82C51.6328 136.596 51.2422 136.289 50.9297 135.898C50.6224 135.508 50.3906 135.06 50.2344 134.555C50.0833 134.044 50.0078 133.505 50.0078 132.938V132.609C50.0078 132.042 50.0833 131.505 50.2344 131C50.3906 130.49 50.6224 130.039 50.9297 129.648C51.2422 129.258 51.6328 128.951 52.1016 128.727C52.5755 128.503 53.1302 128.391 53.7656 128.391C54.4271 128.391 55.0052 128.526 55.5 128.797C55.9948 129.062 56.3828 129.427 56.6641 129.891C56.9505 130.349 57.1068 130.87 57.1328 131.453H55.7578C55.7318 131.104 55.6328 130.789 55.4609 130.508C55.2943 130.227 55.0651 130.003 54.7734 129.836C54.487 129.664 54.151 129.578 53.7656 129.578C53.3229 129.578 52.9505 129.667 52.6484 129.844C52.3516 130.016 52.1146 130.25 51.9375 130.547C51.7656 130.839 51.6406 131.164 51.5625 131.523C51.4896 131.878 51.4531 132.24 51.4531 132.609V132.938C51.4531 133.307 51.4896 133.672 51.5625 134.031C51.6354 134.391 51.7578 134.716 51.9297 135.008C52.1068 135.299 52.3438 135.534 52.6406 135.711C52.9427 135.883 53.3177 135.969 53.7656 135.969ZM62.2656 137.156C61.6771 137.156 61.1432 137.057 60.6641 136.859C60.1901 136.656 59.7812 136.372 59.4375 136.008C59.099 135.643 58.8385 135.211 58.6562 134.711C58.474 134.211 58.3828 133.664 58.3828 133.07V132.742C58.3828 132.055 58.4844 131.443 58.6875 130.906C58.8906 130.365 59.1667 129.906 59.5156 129.531C59.8646 129.156 60.2604 128.872 60.7031 128.68C61.1458 128.487 61.6042 128.391 62.0781 128.391C62.6823 128.391 63.2031 128.495 63.6406 128.703C64.0833 128.911 64.4453 129.203 64.7266 129.578C65.0078 129.948 65.2161 130.385 65.3516 130.891C65.487 131.391 65.5547 131.938 65.5547 132.531V133.18H59.2422V132H64.1094V131.891C64.0885 131.516 64.0104 131.151 63.875 130.797C63.7448 130.443 63.5365 130.151 63.25 129.922C62.9635 129.693 62.5729 129.578 62.0781 129.578C61.75 129.578 61.4479 129.648 61.1719 129.789C60.8958 129.924 60.6589 130.128 60.4609 130.398C60.263 130.669 60.1094 131 60 131.391C59.8906 131.781 59.8359 132.232 59.8359 132.742V133.07C59.8359 133.471 59.8906 133.849 60 134.203C60.1146 134.552 60.2786 134.859 60.4922 135.125C60.7109 135.391 60.974 135.599 61.2812 135.75C61.5938 135.901 61.9479 135.977 62.3438 135.977C62.8542 135.977 63.2865 135.872 63.6406 135.664C63.9948 135.456 64.3047 135.177 64.5703 134.828L65.4453 135.523C65.263 135.799 65.0312 136.062 64.75 136.312C64.4688 136.562 64.1224 136.766 63.7109 136.922C63.3047 137.078 62.8229 137.156 62.2656 137.156ZM67.2344 125H68.6875V135.359L68.5625 137H67.2344V125ZM74.3984 132.703V132.867C74.3984 133.482 74.3255 134.052 74.1797 134.578C74.0339 135.099 73.8203 135.552 73.5391 135.938C73.2578 136.323 72.9141 136.622 72.5078 136.836C72.1016 137.049 71.6354 137.156 71.1094 137.156C70.5729 137.156 70.1016 137.065 69.6953 136.883C69.2943 136.695 68.9557 136.427 68.6797 136.078C68.4036 135.729 68.1823 135.307 68.0156 134.812C67.8542 134.318 67.7422 133.76 67.6797 133.141V132.422C67.7422 131.797 67.8542 131.237 68.0156 130.742C68.1823 130.247 68.4036 129.826 68.6797 129.477C68.9557 129.122 69.2943 128.854 69.6953 128.672C70.0964 128.484 70.5625 128.391 71.0938 128.391C71.625 128.391 72.0964 128.495 72.5078 128.703C72.9193 128.906 73.263 129.198 73.5391 129.578C73.8203 129.958 74.0339 130.414 74.1797 130.945C74.3255 131.471 74.3984 132.057 74.3984 132.703ZM72.9453 132.867V132.703C72.9453 132.281 72.9062 131.885 72.8281 131.516C72.75 131.141 72.625 130.812 72.4531 130.531C72.2812 130.245 72.0547 130.021 71.7734 129.859C71.4922 129.693 71.1458 129.609 70.7344 129.609C70.3698 129.609 70.0521 129.672 69.7812 129.797C69.5156 129.922 69.2891 130.091 69.1016 130.305C68.9141 130.513 68.7604 130.753 68.6406 131.023C68.526 131.289 68.4401 131.565 68.3828 131.852V133.734C68.4661 134.099 68.6016 134.451 68.7891 134.789C68.9818 135.122 69.237 135.396 69.5547 135.609C69.8776 135.823 70.276 135.93 70.75 135.93C71.1406 135.93 71.474 135.852 71.75 135.695C72.0312 135.534 72.2578 135.312 72.4297 135.031C72.6068 134.75 72.737 134.424 72.8203 134.055C72.9036 133.685 72.9453 133.289 72.9453 132.867ZM75.8438 132.867V132.688C75.8438 132.078 75.9323 131.513 76.1094 130.992C76.2865 130.466 76.5417 130.01 76.875 129.625C77.2083 129.234 77.612 128.932 78.0859 128.719C78.5599 128.5 79.0911 128.391 79.6797 128.391C80.2734 128.391 80.8073 128.5 81.2812 128.719C81.7604 128.932 82.1667 129.234 82.5 129.625C82.8385 130.01 83.0964 130.466 83.2734 130.992C83.4505 131.513 83.5391 132.078 83.5391 132.688V132.867C83.5391 133.477 83.4505 134.042 83.2734 134.562C83.0964 135.083 82.8385 135.539 82.5 135.93C82.1667 136.315 81.763 136.617 81.2891 136.836C80.8203 137.049 80.2891 137.156 79.6953 137.156C79.1016 137.156 78.5677 137.049 78.0938 136.836C77.6198 136.617 77.2135 136.315 76.875 135.93C76.5417 135.539 76.2865 135.083 76.1094 134.562C75.9323 134.042 75.8438 133.477 75.8438 132.867ZM77.2891 132.688V132.867C77.2891 133.289 77.3385 133.688 77.4375 134.062C77.5365 134.432 77.6849 134.76 77.8828 135.047C78.0859 135.333 78.3385 135.56 78.6406 135.727C78.9427 135.888 79.2943 135.969 79.6953 135.969C80.0911 135.969 80.4375 135.888 80.7344 135.727C81.0365 135.56 81.2865 135.333 81.4844 135.047C81.6823 134.76 81.8307 134.432 81.9297 134.062C82.0339 133.688 82.0859 133.289 82.0859 132.867V132.688C82.0859 132.271 82.0339 131.878 81.9297 131.508C81.8307 131.133 81.6797 130.802 81.4766 130.516C81.2786 130.224 81.0286 129.995 80.7266 129.828C80.4297 129.661 80.0807 129.578 79.6797 129.578C79.2839 129.578 78.9349 129.661 78.6328 129.828C78.3359 129.995 78.0859 130.224 77.8828 130.516C77.6849 130.802 77.5365 131.133 77.4375 131.508C77.3385 131.878 77.2891 132.271 77.2891 132.688ZM84.9688 132.867V132.688C84.9688 132.078 85.0573 131.513 85.2344 130.992C85.4115 130.466 85.6667 130.01 86 129.625C86.3333 129.234 86.737 128.932 87.2109 128.719C87.6849 128.5 88.2161 128.391 88.8047 128.391C89.3984 128.391 89.9323 128.5 90.4062 128.719C90.8854 128.932 91.2917 129.234 91.625 129.625C91.9635 130.01 92.2214 130.466 92.3984 130.992C92.5755 131.513 92.6641 132.078 92.6641 132.688V132.867C92.6641 133.477 92.5755 134.042 92.3984 134.562C92.2214 135.083 91.9635 135.539 91.625 135.93C91.2917 136.315 90.888 136.617 90.4141 136.836C89.9453 137.049 89.4141 137.156 88.8203 137.156C88.2266 137.156 87.6927 137.049 87.2188 136.836C86.7448 136.617 86.3385 136.315 86 135.93C85.6667 135.539 85.4115 135.083 85.2344 134.562C85.0573 134.042 84.9688 133.477 84.9688 132.867ZM86.4141 132.688V132.867C86.4141 133.289 86.4635 133.688 86.5625 134.062C86.6615 134.432 86.8099 134.76 87.0078 135.047C87.2109 135.333 87.4635 135.56 87.7656 135.727C88.0677 135.888 88.4193 135.969 88.8203 135.969C89.2161 135.969 89.5625 135.888 89.8594 135.727C90.1615 135.56 90.4115 135.333 90.6094 135.047C90.8073 134.76 90.9557 134.432 91.0547 134.062C91.1589 133.688 91.2109 133.289 91.2109 132.867V132.688C91.2109 132.271 91.1589 131.878 91.0547 131.508C90.9557 131.133 90.8047 130.802 90.6016 130.516C90.4036 130.224 90.1536 129.995 89.8516 129.828C89.5547 129.661 89.2057 129.578 88.8047 129.578C88.4089 129.578 88.0599 129.661 87.7578 129.828C87.4609 129.995 87.2109 130.224 87.0078 130.516C86.8099 130.802 86.6615 131.133 86.5625 131.508C86.4635 131.878 86.4141 132.271 86.4141 132.688ZM95.9297 125V137H94.4766V125H95.9297ZM101.094 128.547L97.4062 132.492L95.3438 134.633L95.2266 133.094L96.7031 131.328L99.3281 128.547H101.094ZM99.7734 137L96.7578 132.969L97.5078 131.68L101.477 137H99.7734Z" fill="white"/>
<path d="M13.397 140.997V132.801H16.162L16.573 129.592H13.397V127.548C13.397 126.622 13.655 125.988 14.984 125.988H16.668V123.127C15.8487 123.039 15.0251 122.997 14.201 123C11.757 123 10.079 124.492 10.079 127.231V129.586H7.33203V132.795H10.085V140.997H13.397Z" fill="white"/>
</svg>
