<svg width="155" height="56" viewBox="0 0 155 56" fill="none" xmlns="http://www.w3.org/2000/svg">
<rect width="155" height="56" rx="8" fill="#111E52"/>
<path d="M56.4915 34V22.3636H58.5994V27.7102H58.7415L63.2812 22.3636H65.8551L61.3551 27.5852L65.8949 34H63.3608L59.8892 29.0114L58.5994 30.5341V34H56.4915ZM67.7756 34V25.2727H69.8324V34H67.7756ZM68.8097 24.0341C68.4839 24.0341 68.2036 23.9261 67.9688 23.7102C67.7339 23.4905 67.6165 23.2273 67.6165 22.9205C67.6165 22.6098 67.7339 22.3466 67.9688 22.1307C68.2036 21.911 68.4839 21.8011 68.8097 21.8011C69.1392 21.8011 69.4195 21.911 69.6506 22.1307C69.8854 22.3466 70.0028 22.6098 70.0028 22.9205C70.0028 23.2273 69.8854 23.4905 69.6506 23.7102C69.4195 23.9261 69.1392 24.0341 68.8097 24.0341ZM71.9474 34V25.2727H73.9418V26.7273H74.0327C74.1918 26.2235 74.4645 25.8352 74.8509 25.5625C75.241 25.286 75.6861 25.1477 76.1861 25.1477C76.2997 25.1477 76.4266 25.1534 76.5668 25.1648C76.7107 25.1723 76.83 25.1856 76.9247 25.2045V27.0966C76.8376 27.0663 76.6993 27.0398 76.5099 27.017C76.3243 26.9905 76.1444 26.9773 75.9702 26.9773C75.5952 26.9773 75.258 27.0587 74.9588 27.2216C74.6634 27.3807 74.4304 27.6023 74.2599 27.8864C74.0895 28.1705 74.0043 28.4981 74.0043 28.8693V34H71.9474ZM78.2912 34V25.2727H80.348V34H78.2912ZM79.3253 24.0341C78.9995 24.0341 78.7192 23.9261 78.4844 23.7102C78.2495 23.4905 78.1321 23.2273 78.1321 22.9205C78.1321 22.6098 78.2495 22.3466 78.4844 22.1307C78.7192 21.911 78.9995 21.8011 79.3253 21.8011C79.6548 21.8011 79.9351 21.911 80.1662 22.1307C80.401 22.3466 80.5185 22.6098 80.5185 22.9205C80.5185 23.2273 80.401 23.4905 80.1662 23.7102C79.9351 23.9261 79.6548 24.0341 79.3253 24.0341ZM89.3608 27.5795L87.4858 27.7841C87.4328 27.5947 87.34 27.4167 87.2074 27.25C87.0786 27.0833 86.9044 26.9489 86.6847 26.8466C86.465 26.7443 86.196 26.6932 85.8778 26.6932C85.4498 26.6932 85.09 26.786 84.7983 26.9716C84.5104 27.1572 84.3684 27.3977 84.3722 27.6932C84.3684 27.947 84.4612 28.1534 84.6506 28.3125C84.8438 28.4716 85.1619 28.6023 85.6051 28.7045L87.0938 29.0227C87.9195 29.2008 88.5331 29.483 88.9347 29.8693C89.34 30.2557 89.5445 30.7614 89.5483 31.3864C89.5445 31.9356 89.3835 32.4205 89.0653 32.8409C88.7509 33.2576 88.3134 33.5833 87.7528 33.8182C87.1922 34.053 86.5483 34.1705 85.821 34.1705C84.7528 34.1705 83.893 33.947 83.2415 33.5C82.59 33.0492 82.2017 32.4223 82.0767 31.6193L84.0824 31.4261C84.1733 31.8201 84.3665 32.1174 84.6619 32.3182C84.9574 32.5189 85.3419 32.6193 85.8153 32.6193C86.304 32.6193 86.696 32.5189 86.9915 32.3182C87.2907 32.1174 87.4403 31.8693 87.4403 31.5739C87.4403 31.3239 87.3438 31.1174 87.1506 30.9545C86.9612 30.7917 86.6657 30.6667 86.2642 30.5795L84.7756 30.267C83.9384 30.0928 83.3191 29.7992 82.9176 29.3864C82.5161 28.9697 82.3172 28.4432 82.321 27.8068C82.3172 27.2689 82.4631 26.803 82.7585 26.4091C83.0578 26.0114 83.4725 25.7045 84.0028 25.4886C84.5369 25.2689 85.1525 25.1591 85.8494 25.1591C86.8722 25.1591 87.6771 25.3769 88.2642 25.8125C88.8551 26.2481 89.2206 26.8371 89.3608 27.5795ZM93.3011 28.8864V34H91.2443V22.3636H93.2557V26.7557H93.358C93.5625 26.2633 93.8788 25.875 94.3068 25.5909C94.7386 25.303 95.2879 25.1591 95.9545 25.1591C96.5606 25.1591 97.089 25.286 97.5398 25.5398C97.9905 25.7936 98.339 26.1648 98.5852 26.6534C98.8352 27.142 98.9602 27.7386 98.9602 28.4432V34H96.9034V28.7614C96.9034 28.1742 96.7519 27.7178 96.4489 27.392C96.1496 27.0625 95.7292 26.8977 95.1875 26.8977C94.8239 26.8977 94.4981 26.9773 94.2102 27.1364C93.9261 27.2917 93.7027 27.517 93.5398 27.8125C93.3807 28.108 93.3011 28.4659 93.3011 28.8864Z" fill="white"/>
</svg>
