<svg width="146" height="24" viewBox="0 0 146 24" fill="none" xmlns="http://www.w3.org/2000/svg">
<path d="M36.4062 10.8984V12.2578H28.6094V10.8984H36.4062ZM33.2344 7.57812V15.8594H31.7891V7.57812H33.2344ZM39.4609 15.7891H39.6094C40.4427 15.7891 41.1198 15.6719 41.6406 15.4375C42.1615 15.2031 42.5625 14.888 42.8438 14.4922C43.125 14.0964 43.3177 13.651 43.4219 13.1562C43.526 12.6562 43.5781 12.1432 43.5781 11.6172V9.875C43.5781 9.35938 43.5182 8.90104 43.3984 8.5C43.2839 8.09896 43.1224 7.76302 42.9141 7.49219C42.7109 7.22135 42.4792 7.01562 42.2188 6.875C41.9583 6.73438 41.6823 6.66406 41.3906 6.66406C41.0573 6.66406 40.7578 6.73177 40.4922 6.86719C40.2318 6.9974 40.0104 7.18229 39.8281 7.42188C39.651 7.66146 39.5156 7.94271 39.4219 8.26562C39.3281 8.58854 39.2812 8.9401 39.2812 9.32031C39.2812 9.65885 39.3229 9.98698 39.4062 10.3047C39.4896 10.6224 39.6172 10.9089 39.7891 11.1641C39.9609 11.4193 40.1745 11.6224 40.4297 11.7734C40.6901 11.9193 40.9948 11.9922 41.3438 11.9922C41.6667 11.9922 41.9688 11.9297 42.25 11.8047C42.5365 11.6745 42.7891 11.5 43.0078 11.2812C43.2318 11.0573 43.4089 10.8047 43.5391 10.5234C43.6745 10.2422 43.7526 9.94792 43.7734 9.64062H44.4609C44.4609 10.0729 44.375 10.5 44.2031 10.9219C44.0365 11.3385 43.8021 11.7188 43.5 12.0625C43.1979 12.4062 42.8438 12.6823 42.4375 12.8906C42.0312 13.0938 41.5885 13.1953 41.1094 13.1953C40.5469 13.1953 40.0599 13.0859 39.6484 12.8672C39.237 12.6484 38.8984 12.3568 38.6328 11.9922C38.3724 11.6276 38.1771 11.2214 38.0469 10.7734C37.9219 10.3203 37.8594 9.86198 37.8594 9.39844C37.8594 8.85677 37.9349 8.34896 38.0859 7.875C38.237 7.40104 38.4609 6.98438 38.7578 6.625C39.0547 6.26042 39.4219 5.97656 39.8594 5.77344C40.3021 5.57031 40.8125 5.46875 41.3906 5.46875C42.0417 5.46875 42.5964 5.59896 43.0547 5.85938C43.513 6.11979 43.8854 6.46875 44.1719 6.90625C44.4635 7.34375 44.6771 7.83594 44.8125 8.38281C44.9479 8.92969 45.0156 9.49219 45.0156 10.0703V10.5938C45.0156 11.1823 44.9766 11.7812 44.8984 12.3906C44.8255 12.9948 44.6823 13.5729 44.4688 14.125C44.2604 14.6771 43.9557 15.1719 43.5547 15.6094C43.1536 16.0417 42.6302 16.3854 41.9844 16.6406C41.3438 16.8906 40.5521 17.0156 39.6094 17.0156H39.4609V15.7891ZM48.4609 15.7891H48.6094C49.4427 15.7891 50.1198 15.6719 50.6406 15.4375C51.1615 15.2031 51.5625 14.888 51.8438 14.4922C52.125 14.0964 52.3177 13.651 52.4219 13.1562C52.526 12.6562 52.5781 12.1432 52.5781 11.6172V9.875C52.5781 9.35938 52.5182 8.90104 52.3984 8.5C52.2839 8.09896 52.1224 7.76302 51.9141 7.49219C51.7109 7.22135 51.4792 7.01562 51.2188 6.875C50.9583 6.73438 50.6823 6.66406 50.3906 6.66406C50.0573 6.66406 49.7578 6.73177 49.4922 6.86719C49.2318 6.9974 49.0104 7.18229 48.8281 7.42188C48.651 7.66146 48.5156 7.94271 48.4219 8.26562C48.3281 8.58854 48.2812 8.9401 48.2812 9.32031C48.2812 9.65885 48.3229 9.98698 48.4062 10.3047C48.4896 10.6224 48.6172 10.9089 48.7891 11.1641C48.9609 11.4193 49.1745 11.6224 49.4297 11.7734C49.6901 11.9193 49.9948 11.9922 50.3438 11.9922C50.6667 11.9922 50.9688 11.9297 51.25 11.8047C51.5365 11.6745 51.7891 11.5 52.0078 11.2812C52.2318 11.0573 52.4089 10.8047 52.5391 10.5234C52.6745 10.2422 52.7526 9.94792 52.7734 9.64062H53.4609C53.4609 10.0729 53.375 10.5 53.2031 10.9219C53.0365 11.3385 52.8021 11.7188 52.5 12.0625C52.1979 12.4062 51.8438 12.6823 51.4375 12.8906C51.0312 13.0938 50.5885 13.1953 50.1094 13.1953C49.5469 13.1953 49.0599 13.0859 48.6484 12.8672C48.237 12.6484 47.8984 12.3568 47.6328 11.9922C47.3724 11.6276 47.1771 11.2214 47.0469 10.7734C46.9219 10.3203 46.8594 9.86198 46.8594 9.39844C46.8594 8.85677 46.9349 8.34896 47.0859 7.875C47.237 7.40104 47.4609 6.98438 47.7578 6.625C48.0547 6.26042 48.4219 5.97656 48.8594 5.77344C49.3021 5.57031 49.8125 5.46875 50.3906 5.46875C51.0417 5.46875 51.5964 5.59896 52.0547 5.85938C52.513 6.11979 52.8854 6.46875 53.1719 6.90625C53.4635 7.34375 53.6771 7.83594 53.8125 8.38281C53.9479 8.92969 54.0156 9.49219 54.0156 10.0703V10.5938C54.0156 11.1823 53.9766 11.7812 53.8984 12.3906C53.8255 12.9948 53.6823 13.5729 53.4688 14.125C53.2604 14.6771 52.9557 15.1719 52.5547 15.6094C52.1536 16.0417 51.6302 16.3854 50.9844 16.6406C50.3438 16.8906 49.5521 17.0156 48.6094 17.0156H48.4609V15.7891ZM63.1953 13.9219C63.1953 14.6146 63.0339 15.2031 62.7109 15.6875C62.3932 16.1667 61.9609 16.5312 61.4141 16.7812C60.8724 17.0312 60.2604 17.1562 59.5781 17.1562C58.8958 17.1562 58.2812 17.0312 57.7344 16.7812C57.1875 16.5312 56.7552 16.1667 56.4375 15.6875C56.1198 15.2031 55.9609 14.6146 55.9609 13.9219C55.9609 13.4688 56.0469 13.0547 56.2188 12.6797C56.3958 12.2995 56.6432 11.9688 56.9609 11.6875C57.2839 11.4062 57.6641 11.1901 58.1016 11.0391C58.5443 10.8828 59.0312 10.8047 59.5625 10.8047C60.2604 10.8047 60.8828 10.9401 61.4297 11.2109C61.9766 11.4766 62.4062 11.8438 62.7188 12.3125C63.0365 12.7812 63.1953 13.3177 63.1953 13.9219ZM61.7422 13.8906C61.7422 13.4688 61.651 13.0964 61.4688 12.7734C61.2865 12.4453 61.0312 12.1901 60.7031 12.0078C60.375 11.8255 59.9948 11.7344 59.5625 11.7344C59.1198 11.7344 58.737 11.8255 58.4141 12.0078C58.0964 12.1901 57.849 12.4453 57.6719 12.7734C57.4948 13.0964 57.4062 13.4688 57.4062 13.8906C57.4062 14.3281 57.4922 14.7031 57.6641 15.0156C57.8411 15.3229 58.0911 15.5599 58.4141 15.7266C58.7422 15.888 59.1302 15.9688 59.5781 15.9688C60.026 15.9688 60.4115 15.888 60.7344 15.7266C61.0573 15.5599 61.3047 15.3229 61.4766 15.0156C61.6536 14.7031 61.7422 14.3281 61.7422 13.8906ZM62.9297 8.58594C62.9297 9.13802 62.7839 9.63542 62.4922 10.0781C62.2005 10.5208 61.8021 10.8698 61.2969 11.125C60.7917 11.3802 60.2188 11.5078 59.5781 11.5078C58.9271 11.5078 58.3464 11.3802 57.8359 11.125C57.3307 10.8698 56.9349 10.5208 56.6484 10.0781C56.362 9.63542 56.2188 9.13802 56.2188 8.58594C56.2188 7.92448 56.362 7.36198 56.6484 6.89844C56.9401 6.4349 57.3385 6.08073 57.8438 5.83594C58.349 5.59115 58.9245 5.46875 59.5703 5.46875C60.2214 5.46875 60.7995 5.59115 61.3047 5.83594C61.8099 6.08073 62.2057 6.4349 62.4922 6.89844C62.7839 7.36198 62.9297 7.92448 62.9297 8.58594ZM61.4844 8.60938C61.4844 8.22917 61.4036 7.89323 61.2422 7.60156C61.0807 7.3099 60.8568 7.08073 60.5703 6.91406C60.2839 6.74219 59.9505 6.65625 59.5703 6.65625C59.1901 6.65625 58.8568 6.73698 58.5703 6.89844C58.2891 7.05469 58.0677 7.27865 57.9062 7.57031C57.75 7.86198 57.6719 8.20833 57.6719 8.60938C57.6719 9 57.75 9.34115 57.9062 9.63281C58.0677 9.92448 58.2917 10.151 58.5781 10.3125C58.8646 10.474 59.1979 10.5547 59.5781 10.5547C59.9583 10.5547 60.2891 10.474 60.5703 10.3125C60.8568 10.151 61.0807 9.92448 61.2422 9.63281C61.4036 9.34115 61.4844 9 61.4844 8.60938ZM67.1328 10.6016H68.1641C68.6693 10.6016 69.0859 10.5182 69.4141 10.3516C69.7474 10.1797 69.9948 9.94792 70.1562 9.65625C70.3229 9.35938 70.4062 9.02604 70.4062 8.65625C70.4062 8.21875 70.3333 7.85156 70.1875 7.55469C70.0417 7.25781 69.8229 7.03385 69.5312 6.88281C69.2396 6.73177 68.8698 6.65625 68.4219 6.65625C68.0156 6.65625 67.6562 6.73698 67.3438 6.89844C67.0365 7.05469 66.7943 7.27865 66.6172 7.57031C66.4453 7.86198 66.3594 8.20573 66.3594 8.60156H64.9141C64.9141 8.02344 65.0599 7.4974 65.3516 7.02344C65.6432 6.54948 66.0521 6.17188 66.5781 5.89062C67.1094 5.60938 67.724 5.46875 68.4219 5.46875C69.1094 5.46875 69.7109 5.59115 70.2266 5.83594C70.7422 6.07552 71.1432 6.4349 71.4297 6.91406C71.7161 7.38802 71.8594 7.97917 71.8594 8.6875C71.8594 8.97396 71.7917 9.28125 71.6562 9.60938C71.526 9.93229 71.3203 10.2344 71.0391 10.5156C70.763 10.7969 70.4036 11.0286 69.9609 11.2109C69.5182 11.388 68.987 11.4766 68.3672 11.4766H67.1328V10.6016ZM67.1328 11.7891V10.9219H68.3672C69.0911 10.9219 69.6901 11.0078 70.1641 11.1797C70.638 11.3516 71.0104 11.5807 71.2812 11.8672C71.5573 12.1536 71.75 12.4688 71.8594 12.8125C71.974 13.151 72.0312 13.4896 72.0312 13.8281C72.0312 14.3594 71.9401 14.8307 71.7578 15.2422C71.5807 15.6536 71.3281 16.0026 71 16.2891C70.6771 16.5755 70.2969 16.7917 69.8594 16.9375C69.4219 17.0833 68.9453 17.1562 68.4297 17.1562C67.9349 17.1562 67.4688 17.0859 67.0312 16.9453C66.599 16.8047 66.2161 16.6016 65.8828 16.3359C65.5495 16.0651 65.2891 15.7344 65.1016 15.3438C64.9141 14.9479 64.8203 14.4974 64.8203 13.9922H66.2656C66.2656 14.388 66.3516 14.7344 66.5234 15.0312C66.7005 15.3281 66.9505 15.5599 67.2734 15.7266C67.6016 15.888 67.987 15.9688 68.4297 15.9688C68.8724 15.9688 69.2526 15.8932 69.5703 15.7422C69.8932 15.5859 70.1406 15.3516 70.3125 15.0391C70.4896 14.7266 70.5781 14.3333 70.5781 13.8594C70.5781 13.3854 70.4792 12.9974 70.2812 12.6953C70.0833 12.388 69.8021 12.1615 69.4375 12.0156C69.0781 11.8646 68.6536 11.7891 68.1641 11.7891H67.1328ZM76.1328 10.6016H77.1641C77.6693 10.6016 78.0859 10.5182 78.4141 10.3516C78.7474 10.1797 78.9948 9.94792 79.1562 9.65625C79.3229 9.35938 79.4062 9.02604 79.4062 8.65625C79.4062 8.21875 79.3333 7.85156 79.1875 7.55469C79.0417 7.25781 78.8229 7.03385 78.5312 6.88281C78.2396 6.73177 77.8698 6.65625 77.4219 6.65625C77.0156 6.65625 76.6562 6.73698 76.3438 6.89844C76.0365 7.05469 75.7943 7.27865 75.6172 7.57031C75.4453 7.86198 75.3594 8.20573 75.3594 8.60156H73.9141C73.9141 8.02344 74.0599 7.4974 74.3516 7.02344C74.6432 6.54948 75.0521 6.17188 75.5781 5.89062C76.1094 5.60938 76.724 5.46875 77.4219 5.46875C78.1094 5.46875 78.7109 5.59115 79.2266 5.83594C79.7422 6.07552 80.1432 6.4349 80.4297 6.91406C80.7161 7.38802 80.8594 7.97917 80.8594 8.6875C80.8594 8.97396 80.7917 9.28125 80.6562 9.60938C80.526 9.93229 80.3203 10.2344 80.0391 10.5156C79.763 10.7969 79.4036 11.0286 78.9609 11.2109C78.5182 11.388 77.987 11.4766 77.3672 11.4766H76.1328V10.6016ZM76.1328 11.7891V10.9219H77.3672C78.0911 10.9219 78.6901 11.0078 79.1641 11.1797C79.638 11.3516 80.0104 11.5807 80.2812 11.8672C80.5573 12.1536 80.75 12.4688 80.8594 12.8125C80.974 13.151 81.0312 13.4896 81.0312 13.8281C81.0312 14.3594 80.9401 14.8307 80.7578 15.2422C80.5807 15.6536 80.3281 16.0026 80 16.2891C79.6771 16.5755 79.2969 16.7917 78.8594 16.9375C78.4219 17.0833 77.9453 17.1562 77.4297 17.1562C76.9349 17.1562 76.4688 17.0859 76.0312 16.9453C75.599 16.8047 75.2161 16.6016 74.8828 16.3359C74.5495 16.0651 74.2891 15.7344 74.1016 15.3438C73.9141 14.9479 73.8203 14.4974 73.8203 13.9922H75.2656C75.2656 14.388 75.3516 14.7344 75.5234 15.0312C75.7005 15.3281 75.9505 15.5599 76.2734 15.7266C76.6016 15.888 76.987 15.9688 77.4297 15.9688C77.8724 15.9688 78.2526 15.8932 78.5703 15.7422C78.8932 15.5859 79.1406 15.3516 79.3125 15.0391C79.4896 14.7266 79.5781 14.3333 79.5781 13.8594C79.5781 13.3854 79.4792 12.9974 79.2812 12.6953C79.0833 12.388 78.8021 12.1615 78.4375 12.0156C78.0781 11.8646 77.6536 11.7891 77.1641 11.7891H76.1328ZM88.5703 5.60938H88.6953V6.83594H88.5703C87.8047 6.83594 87.1641 6.96094 86.6484 7.21094C86.1328 7.45573 85.724 7.78646 85.4219 8.20312C85.1198 8.61458 84.901 9.07812 84.7656 9.59375C84.6354 10.1094 84.5703 10.6328 84.5703 11.1641V12.8359C84.5703 13.3411 84.6302 13.7891 84.75 14.1797C84.8698 14.5651 85.0339 14.8906 85.2422 15.1562C85.4505 15.4219 85.6849 15.6224 85.9453 15.7578C86.2109 15.8932 86.487 15.9609 86.7734 15.9609C87.1068 15.9609 87.4036 15.8984 87.6641 15.7734C87.9245 15.6432 88.1432 15.4635 88.3203 15.2344C88.5026 15 88.6406 14.724 88.7344 14.4062C88.8281 14.0885 88.875 13.7396 88.875 13.3594C88.875 13.0208 88.8333 12.6953 88.75 12.3828C88.6667 12.0651 88.5391 11.7839 88.3672 11.5391C88.1953 11.2891 87.9792 11.0938 87.7188 10.9531C87.4635 10.8073 87.1589 10.7344 86.8047 10.7344C86.4036 10.7344 86.0286 10.8333 85.6797 11.0312C85.3359 11.224 85.0521 11.4792 84.8281 11.7969C84.6094 12.1094 84.4844 12.4505 84.4531 12.8203L83.6875 12.8125C83.7604 12.2292 83.8958 11.7318 84.0938 11.3203C84.2969 10.9036 84.5469 10.5651 84.8438 10.3047C85.1458 10.0391 85.4818 9.84635 85.8516 9.72656C86.2266 9.60156 86.6224 9.53906 87.0391 9.53906C87.6068 9.53906 88.0964 9.64583 88.5078 9.85938C88.9193 10.0729 89.2578 10.3594 89.5234 10.7188C89.7891 11.0729 89.9844 11.474 90.1094 11.9219C90.2396 12.3646 90.3047 12.8203 90.3047 13.2891C90.3047 13.8255 90.2292 14.3281 90.0781 14.7969C89.9271 15.2656 89.7005 15.6771 89.3984 16.0312C89.1016 16.3854 88.7344 16.6615 88.2969 16.8594C87.8594 17.0573 87.3516 17.1562 86.7734 17.1562C86.1589 17.1562 85.6224 17.0312 85.1641 16.7812C84.7057 16.526 84.3255 16.1875 84.0234 15.7656C83.7214 15.3438 83.4948 14.875 83.3438 14.3594C83.1927 13.8438 83.1172 13.3203 83.1172 12.7891V12.1094C83.1172 11.3073 83.1979 10.5208 83.3594 9.75C83.5208 8.97917 83.7995 8.28125 84.1953 7.65625C84.5964 7.03125 85.151 6.53385 85.8594 6.16406C86.5677 5.79427 87.4714 5.60938 88.5703 5.60938ZM93.4609 15.7891H93.6094C94.4427 15.7891 95.1198 15.6719 95.6406 15.4375C96.1615 15.2031 96.5625 14.888 96.8438 14.4922C97.125 14.0964 97.3177 13.651 97.4219 13.1562C97.526 12.6562 97.5781 12.1432 97.5781 11.6172V9.875C97.5781 9.35938 97.5182 8.90104 97.3984 8.5C97.2839 8.09896 97.1224 7.76302 96.9141 7.49219C96.7109 7.22135 96.4792 7.01562 96.2188 6.875C95.9583 6.73438 95.6823 6.66406 95.3906 6.66406C95.0573 6.66406 94.7578 6.73177 94.4922 6.86719C94.2318 6.9974 94.0104 7.18229 93.8281 7.42188C93.651 7.66146 93.5156 7.94271 93.4219 8.26562C93.3281 8.58854 93.2812 8.9401 93.2812 9.32031C93.2812 9.65885 93.3229 9.98698 93.4062 10.3047C93.4896 10.6224 93.6172 10.9089 93.7891 11.1641C93.9609 11.4193 94.1745 11.6224 94.4297 11.7734C94.6901 11.9193 94.9948 11.9922 95.3438 11.9922C95.6667 11.9922 95.9688 11.9297 96.25 11.8047C96.5365 11.6745 96.7891 11.5 97.0078 11.2812C97.2318 11.0573 97.4089 10.8047 97.5391 10.5234C97.6745 10.2422 97.7526 9.94792 97.7734 9.64062H98.4609C98.4609 10.0729 98.375 10.5 98.2031 10.9219C98.0365 11.3385 97.8021 11.7188 97.5 12.0625C97.1979 12.4062 96.8438 12.6823 96.4375 12.8906C96.0312 13.0938 95.5885 13.1953 95.1094 13.1953C94.5469 13.1953 94.0599 13.0859 93.6484 12.8672C93.237 12.6484 92.8984 12.3568 92.6328 11.9922C92.3724 11.6276 92.1771 11.2214 92.0469 10.7734C91.9219 10.3203 91.8594 9.86198 91.8594 9.39844C91.8594 8.85677 91.9349 8.34896 92.0859 7.875C92.237 7.40104 92.4609 6.98438 92.7578 6.625C93.0547 6.26042 93.4219 5.97656 93.8594 5.77344C94.3021 5.57031 94.8125 5.46875 95.3906 5.46875C96.0417 5.46875 96.5964 5.59896 97.0547 5.85938C97.513 6.11979 97.8854 6.46875 98.1719 6.90625C98.4635 7.34375 98.6771 7.83594 98.8125 8.38281C98.9479 8.92969 99.0156 9.49219 99.0156 10.0703V10.5938C99.0156 11.1823 98.9766 11.7812 98.8984 12.3906C98.8255 12.9948 98.6823 13.5729 98.4688 14.125C98.2604 14.6771 97.9557 15.1719 97.5547 15.6094C97.1536 16.0417 96.6302 16.3854 95.9844 16.6406C95.3438 16.8906 94.5521 17.0156 93.6094 17.0156H93.4609V15.7891ZM102.852 11.5859L101.695 11.2891L102.266 5.625H108.102V6.96094H103.492L103.148 10.0547C103.357 9.9349 103.62 9.82292 103.938 9.71875C104.26 9.61458 104.63 9.5625 105.047 9.5625C105.573 9.5625 106.044 9.65365 106.461 9.83594C106.878 10.013 107.232 10.2682 107.523 10.6016C107.82 10.9349 108.047 11.3359 108.203 11.8047C108.359 12.2734 108.438 12.7969 108.438 13.375C108.438 13.9219 108.362 14.4245 108.211 14.8828C108.065 15.3411 107.844 15.7422 107.547 16.0859C107.25 16.4245 106.875 16.6875 106.422 16.875C105.974 17.0625 105.445 17.1562 104.836 17.1562C104.378 17.1562 103.943 17.0938 103.531 16.9688C103.125 16.8385 102.76 16.6432 102.438 16.3828C102.12 16.1172 101.859 15.7891 101.656 15.3984C101.458 15.0026 101.333 14.5391 101.281 14.0078H102.656C102.719 14.4349 102.844 14.7943 103.031 15.0859C103.219 15.3776 103.464 15.599 103.766 15.75C104.073 15.8958 104.43 15.9688 104.836 15.9688C105.18 15.9688 105.484 15.9089 105.75 15.7891C106.016 15.6693 106.24 15.4974 106.422 15.2734C106.604 15.0495 106.742 14.7786 106.836 14.4609C106.935 14.1432 106.984 13.7865 106.984 13.3906C106.984 13.0312 106.935 12.6979 106.836 12.3906C106.737 12.0833 106.589 11.8151 106.391 11.5859C106.198 11.3568 105.961 11.1797 105.68 11.0547C105.398 10.9245 105.076 10.8594 104.711 10.8594C104.227 10.8594 103.859 10.9245 103.609 11.0547C103.365 11.1849 103.112 11.362 102.852 11.5859ZM111.461 15.7891H111.609C112.443 15.7891 113.12 15.6719 113.641 15.4375C114.161 15.2031 114.562 14.888 114.844 14.4922C115.125 14.0964 115.318 13.651 115.422 13.1562C115.526 12.6562 115.578 12.1432 115.578 11.6172V9.875C115.578 9.35938 115.518 8.90104 115.398 8.5C115.284 8.09896 115.122 7.76302 114.914 7.49219C114.711 7.22135 114.479 7.01562 114.219 6.875C113.958 6.73438 113.682 6.66406 113.391 6.66406C113.057 6.66406 112.758 6.73177 112.492 6.86719C112.232 6.9974 112.01 7.18229 111.828 7.42188C111.651 7.66146 111.516 7.94271 111.422 8.26562C111.328 8.58854 111.281 8.9401 111.281 9.32031C111.281 9.65885 111.323 9.98698 111.406 10.3047C111.49 10.6224 111.617 10.9089 111.789 11.1641C111.961 11.4193 112.174 11.6224 112.43 11.7734C112.69 11.9193 112.995 11.9922 113.344 11.9922C113.667 11.9922 113.969 11.9297 114.25 11.8047C114.536 11.6745 114.789 11.5 115.008 11.2812C115.232 11.0573 115.409 10.8047 115.539 10.5234C115.674 10.2422 115.753 9.94792 115.773 9.64062H116.461C116.461 10.0729 116.375 10.5 116.203 10.9219C116.036 11.3385 115.802 11.7188 115.5 12.0625C115.198 12.4062 114.844 12.6823 114.438 12.8906C114.031 13.0938 113.589 13.1953 113.109 13.1953C112.547 13.1953 112.06 13.0859 111.648 12.8672C111.237 12.6484 110.898 12.3568 110.633 11.9922C110.372 11.6276 110.177 11.2214 110.047 10.7734C109.922 10.3203 109.859 9.86198 109.859 9.39844C109.859 8.85677 109.935 8.34896 110.086 7.875C110.237 7.40104 110.461 6.98438 110.758 6.625C111.055 6.26042 111.422 5.97656 111.859 5.77344C112.302 5.57031 112.812 5.46875 113.391 5.46875C114.042 5.46875 114.596 5.59896 115.055 5.85938C115.513 6.11979 115.885 6.46875 116.172 6.90625C116.464 7.34375 116.677 7.83594 116.812 8.38281C116.948 8.92969 117.016 9.49219 117.016 10.0703V10.5938C117.016 11.1823 116.977 11.7812 116.898 12.3906C116.826 12.9948 116.682 13.5729 116.469 14.125C116.26 14.6771 115.956 15.1719 115.555 15.6094C115.154 16.0417 114.63 16.3854 113.984 16.6406C113.344 16.8906 112.552 17.0156 111.609 17.0156H111.461V15.7891ZM124.57 5.60938H124.695V6.83594H124.57C123.805 6.83594 123.164 6.96094 122.648 7.21094C122.133 7.45573 121.724 7.78646 121.422 8.20312C121.12 8.61458 120.901 9.07812 120.766 9.59375C120.635 10.1094 120.57 10.6328 120.57 11.1641V12.8359C120.57 13.3411 120.63 13.7891 120.75 14.1797C120.87 14.5651 121.034 14.8906 121.242 15.1562C121.451 15.4219 121.685 15.6224 121.945 15.7578C122.211 15.8932 122.487 15.9609 122.773 15.9609C123.107 15.9609 123.404 15.8984 123.664 15.7734C123.924 15.6432 124.143 15.4635 124.32 15.2344C124.503 15 124.641 14.724 124.734 14.4062C124.828 14.0885 124.875 13.7396 124.875 13.3594C124.875 13.0208 124.833 12.6953 124.75 12.3828C124.667 12.0651 124.539 11.7839 124.367 11.5391C124.195 11.2891 123.979 11.0938 123.719 10.9531C123.464 10.8073 123.159 10.7344 122.805 10.7344C122.404 10.7344 122.029 10.8333 121.68 11.0312C121.336 11.224 121.052 11.4792 120.828 11.7969C120.609 12.1094 120.484 12.4505 120.453 12.8203L119.688 12.8125C119.76 12.2292 119.896 11.7318 120.094 11.3203C120.297 10.9036 120.547 10.5651 120.844 10.3047C121.146 10.0391 121.482 9.84635 121.852 9.72656C122.227 9.60156 122.622 9.53906 123.039 9.53906C123.607 9.53906 124.096 9.64583 124.508 9.85938C124.919 10.0729 125.258 10.3594 125.523 10.7188C125.789 11.0729 125.984 11.474 126.109 11.9219C126.24 12.3646 126.305 12.8203 126.305 13.2891C126.305 13.8255 126.229 14.3281 126.078 14.7969C125.927 15.2656 125.701 15.6771 125.398 16.0312C125.102 16.3854 124.734 16.6615 124.297 16.8594C123.859 17.0573 123.352 17.1562 122.773 17.1562C122.159 17.1562 121.622 17.0312 121.164 16.7812C120.706 16.526 120.326 16.1875 120.023 15.7656C119.721 15.3438 119.495 14.875 119.344 14.3594C119.193 13.8438 119.117 13.3203 119.117 12.7891V12.1094C119.117 11.3073 119.198 10.5208 119.359 9.75C119.521 8.97917 119.799 8.28125 120.195 7.65625C120.596 7.03125 121.151 6.53385 121.859 6.16406C122.568 5.79427 123.471 5.60938 124.57 5.60938ZM129.852 11.5859L128.695 11.2891L129.266 5.625H135.102V6.96094H130.492L130.148 10.0547C130.357 9.9349 130.62 9.82292 130.938 9.71875C131.26 9.61458 131.63 9.5625 132.047 9.5625C132.573 9.5625 133.044 9.65365 133.461 9.83594C133.878 10.013 134.232 10.2682 134.523 10.6016C134.82 10.9349 135.047 11.3359 135.203 11.8047C135.359 12.2734 135.438 12.7969 135.438 13.375C135.438 13.9219 135.362 14.4245 135.211 14.8828C135.065 15.3411 134.844 15.7422 134.547 16.0859C134.25 16.4245 133.875 16.6875 133.422 16.875C132.974 17.0625 132.445 17.1562 131.836 17.1562C131.378 17.1562 130.943 17.0938 130.531 16.9688C130.125 16.8385 129.76 16.6432 129.438 16.3828C129.12 16.1172 128.859 15.7891 128.656 15.3984C128.458 15.0026 128.333 14.5391 128.281 14.0078H129.656C129.719 14.4349 129.844 14.7943 130.031 15.0859C130.219 15.3776 130.464 15.599 130.766 15.75C131.073 15.8958 131.43 15.9688 131.836 15.9688C132.18 15.9688 132.484 15.9089 132.75 15.7891C133.016 15.6693 133.24 15.4974 133.422 15.2734C133.604 15.0495 133.742 14.7786 133.836 14.4609C133.935 14.1432 133.984 13.7865 133.984 13.3906C133.984 13.0312 133.935 12.6979 133.836 12.3906C133.737 12.0833 133.589 11.8151 133.391 11.5859C133.198 11.3568 132.961 11.1797 132.68 11.0547C132.398 10.9245 132.076 10.8594 131.711 10.8594C131.227 10.8594 130.859 10.9245 130.609 11.0547C130.365 11.1849 130.112 11.362 129.852 11.5859ZM144.164 10.4062V12.1406C144.164 13.0729 144.081 13.8594 143.914 14.5C143.747 15.1406 143.508 15.6562 143.195 16.0469C142.883 16.4375 142.505 16.7214 142.062 16.8984C141.625 17.0703 141.13 17.1562 140.578 17.1562C140.141 17.1562 139.737 17.1016 139.367 16.9922C138.997 16.8828 138.664 16.7083 138.367 16.4688C138.076 16.224 137.826 15.9062 137.617 15.5156C137.409 15.125 137.25 14.651 137.141 14.0938C137.031 13.5365 136.977 12.8854 136.977 12.1406V10.4062C136.977 9.47396 137.06 8.69271 137.227 8.0625C137.398 7.43229 137.641 6.92708 137.953 6.54688C138.266 6.16146 138.641 5.88542 139.078 5.71875C139.521 5.55208 140.016 5.46875 140.562 5.46875C141.005 5.46875 141.411 5.52344 141.781 5.63281C142.156 5.73698 142.49 5.90625 142.781 6.14062C143.073 6.36979 143.32 6.67708 143.523 7.0625C143.732 7.44271 143.891 7.90885 144 8.46094C144.109 9.01302 144.164 9.66146 144.164 10.4062ZM142.711 12.375V10.1641C142.711 9.65365 142.68 9.20573 142.617 8.82031C142.56 8.42969 142.474 8.09635 142.359 7.82031C142.245 7.54427 142.099 7.32031 141.922 7.14844C141.75 6.97656 141.549 6.85156 141.32 6.77344C141.096 6.6901 140.844 6.64844 140.562 6.64844C140.219 6.64844 139.914 6.71354 139.648 6.84375C139.383 6.96875 139.159 7.16927 138.977 7.44531C138.799 7.72135 138.664 8.08333 138.57 8.53125C138.477 8.97917 138.43 9.52344 138.43 10.1641V12.375C138.43 12.8854 138.458 13.3359 138.516 13.7266C138.578 14.1172 138.669 14.4557 138.789 14.7422C138.909 15.0234 139.055 15.2552 139.227 15.4375C139.398 15.6198 139.596 15.7552 139.82 15.8438C140.049 15.9271 140.302 15.9688 140.578 15.9688C140.932 15.9688 141.242 15.901 141.508 15.7656C141.773 15.6302 141.995 15.4193 142.172 15.1328C142.354 14.8411 142.49 14.4688 142.578 14.0156C142.667 13.5573 142.711 13.0104 142.711 12.375Z" fill="white"/>
<path d="M19.231 15.2617L16.691 14.9717C16.081 14.9017 15.481 15.1117 15.051 15.5417L13.211 17.3817C10.381 15.9417 8.06102 13.6317 6.62102 10.7917L8.47102 8.94172C8.90102 8.51172 9.11102 7.91172 9.04102 7.30172L8.75102 4.78172C8.63102 3.77172 7.78102 3.01172 6.76102 3.01172H5.03102C3.90102 3.01172 2.96102 3.95172 3.03102 5.08172C3.56102 13.6217 10.391 20.4417 18.921 20.9717C20.051 21.0417 20.991 20.1017 20.991 18.9717V17.2417C21.001 16.2317 20.241 15.3817 19.231 15.2617Z" fill="white"/>
</svg>
