<svg width="70" height="24" viewBox="0 0 70 24" fill="none" xmlns="http://www.w3.org/2000/svg">
<path d="M2.9375 5.625V17H1.42969V5.625H2.9375ZM6.89844 10.2266V17H5.44531V8.54688H6.82031L6.89844 10.2266ZM6.60156 12.4531L5.92969 12.4297C5.9349 11.8516 6.01042 11.3177 6.15625 10.8281C6.30208 10.3333 6.51823 9.90365 6.80469 9.53906C7.09115 9.17448 7.44792 8.89323 7.875 8.69531C8.30208 8.49219 8.79688 8.39062 9.35938 8.39062C9.75521 8.39062 10.1198 8.44792 10.4531 8.5625C10.7865 8.67188 11.0755 8.84635 11.3203 9.08594C11.5651 9.32552 11.7552 9.63281 11.8906 10.0078C12.026 10.3828 12.0938 10.8359 12.0938 11.3672V17H10.6484V11.4375C10.6484 10.9948 10.5729 10.6406 10.4219 10.375C10.276 10.1094 10.0677 9.91667 9.79688 9.79688C9.52604 9.67188 9.20833 9.60938 8.84375 9.60938C8.41667 9.60938 8.0599 9.6849 7.77344 9.83594C7.48698 9.98698 7.25781 10.1953 7.08594 10.4609C6.91406 10.7266 6.78906 11.0312 6.71094 11.375C6.63802 11.7135 6.60156 12.0729 6.60156 12.4531ZM12.0781 11.6562L11.1094 11.9531C11.1146 11.4896 11.1901 11.0443 11.3359 10.6172C11.487 10.1901 11.7031 9.8099 11.9844 9.47656C12.2708 9.14323 12.6224 8.88021 13.0391 8.6875C13.4557 8.48958 13.9323 8.39062 14.4688 8.39062C14.9219 8.39062 15.3229 8.45052 15.6719 8.57031C16.026 8.6901 16.3229 8.875 16.5625 9.125C16.8073 9.36979 16.9922 9.6849 17.1172 10.0703C17.2422 10.4557 17.3047 10.9141 17.3047 11.4453V17H15.8516V11.4297C15.8516 10.9557 15.776 10.5885 15.625 10.3281C15.4792 10.0625 15.2708 9.8776 15 9.77344C14.7344 9.66406 14.4167 9.60938 14.0469 9.60938C13.7292 9.60938 13.4479 9.66406 13.2031 9.77344C12.9583 9.88281 12.7526 10.0339 12.5859 10.2266C12.4193 10.4141 12.2917 10.6302 12.2031 10.875C12.1198 11.1198 12.0781 11.3802 12.0781 11.6562ZM23.0312 8.54688V9.65625H18.4609V8.54688H23.0312ZM20.0078 6.49219H21.4531V14.9062C21.4531 15.1927 21.4974 15.4089 21.5859 15.5547C21.6745 15.7005 21.7891 15.7969 21.9297 15.8438C22.0703 15.8906 22.2214 15.9141 22.3828 15.9141C22.5026 15.9141 22.6276 15.9036 22.7578 15.8828C22.8932 15.8568 22.9948 15.8359 23.0625 15.8203L23.0703 17C22.9557 17.0365 22.8047 17.0703 22.6172 17.1016C22.4349 17.138 22.2135 17.1562 21.9531 17.1562C21.599 17.1562 21.2734 17.0859 20.9766 16.9453C20.6797 16.8047 20.4427 16.5703 20.2656 16.2422C20.0938 15.9089 20.0078 15.4609 20.0078 14.8984V6.49219ZM26.2969 8.54688V17H24.8438V8.54688H26.2969ZM24.7344 6.30469C24.7344 6.07031 24.8047 5.8724 24.9453 5.71094C25.0911 5.54948 25.3047 5.46875 25.5859 5.46875C25.862 5.46875 26.0729 5.54948 26.2188 5.71094C26.3698 5.8724 26.4453 6.07031 26.4453 6.30469C26.4453 6.52865 26.3698 6.72135 26.2188 6.88281C26.0729 7.03906 25.862 7.11719 25.5859 7.11719C25.3047 7.11719 25.0911 7.03906 24.9453 6.88281C24.8047 6.72135 24.7344 6.52865 24.7344 6.30469ZM30.9922 16.125L33.3438 8.54688H34.8906L31.5 18.3047C31.4219 18.513 31.3177 18.737 31.1875 18.9766C31.0625 19.2214 30.901 19.4531 30.7031 19.6719C30.5052 19.8906 30.2656 20.0677 29.9844 20.2031C29.7083 20.3438 29.3776 20.4141 28.9922 20.4141C28.8776 20.4141 28.7318 20.3984 28.5547 20.3672C28.3776 20.3359 28.2526 20.3099 28.1797 20.2891L28.1719 19.1172C28.2135 19.1224 28.2786 19.1276 28.3672 19.1328C28.4609 19.1432 28.526 19.1484 28.5625 19.1484C28.8906 19.1484 29.1693 19.1042 29.3984 19.0156C29.6276 18.9323 29.8203 18.7891 29.9766 18.5859C30.138 18.388 30.276 18.1146 30.3906 17.7656L30.9922 16.125ZM29.2656 8.54688L31.4609 15.1094L31.8359 16.6328L30.7969 17.1641L27.6875 8.54688H29.2656ZM35.6875 12.8672V12.6875C35.6875 12.0781 35.776 11.513 35.9531 10.9922C36.1302 10.4661 36.3854 10.0104 36.7188 9.625C37.0521 9.23438 37.4557 8.93229 37.9297 8.71875C38.4036 8.5 38.9349 8.39062 39.5234 8.39062C40.1172 8.39062 40.651 8.5 41.125 8.71875C41.6042 8.93229 42.0104 9.23438 42.3438 9.625C42.6823 10.0104 42.9401 10.4661 43.1172 10.9922C43.2943 11.513 43.3828 12.0781 43.3828 12.6875V12.8672C43.3828 13.4766 43.2943 14.0417 43.1172 14.5625C42.9401 15.0833 42.6823 15.5391 42.3438 15.9297C42.0104 16.3151 41.6068 16.6172 41.1328 16.8359C40.6641 17.0495 40.1328 17.1562 39.5391 17.1562C38.9453 17.1562 38.4115 17.0495 37.9375 16.8359C37.4635 16.6172 37.0573 16.3151 36.7188 15.9297C36.3854 15.5391 36.1302 15.0833 35.9531 14.5625C35.776 14.0417 35.6875 13.4766 35.6875 12.8672ZM37.1328 12.6875V12.8672C37.1328 13.2891 37.1823 13.6875 37.2812 14.0625C37.3802 14.4323 37.5286 14.7604 37.7266 15.0469C37.9297 15.3333 38.1823 15.5599 38.4844 15.7266C38.7865 15.888 39.138 15.9688 39.5391 15.9688C39.9349 15.9688 40.2812 15.888 40.5781 15.7266C40.8802 15.5599 41.1302 15.3333 41.3281 15.0469C41.526 14.7604 41.6745 14.4323 41.7734 14.0625C41.8776 13.6875 41.9297 13.2891 41.9297 12.8672V12.6875C41.9297 12.2708 41.8776 11.8776 41.7734 11.5078C41.6745 11.1328 41.5234 10.8021 41.3203 10.5156C41.1224 10.224 40.8724 9.99479 40.5703 9.82812C40.2734 9.66146 39.9245 9.57812 39.5234 9.57812C39.1276 9.57812 38.7786 9.66146 38.4766 9.82812C38.1797 9.99479 37.9297 10.224 37.7266 10.5156C37.5286 10.8021 37.3802 11.1328 37.2812 11.5078C37.1823 11.8776 37.1328 12.2708 37.1328 12.6875ZM51.3672 15.8125V17H45.2188V15.8125H51.3672ZM51.1406 9.57031L45.5469 17H44.6641V15.9375L50.2188 8.54688H51.1406V9.57031ZM50.5 8.54688V9.74219H44.7266V8.54688H50.5ZM54.5781 5V17H53.125V5H54.5781ZM61.8828 15.5547V11.2031C61.8828 10.8698 61.8151 10.5807 61.6797 10.3359C61.5495 10.0859 61.3516 9.89323 61.0859 9.75781C60.8203 9.6224 60.4922 9.55469 60.1016 9.55469C59.737 9.55469 59.4167 9.61719 59.1406 9.74219C58.8698 9.86719 58.6562 10.0312 58.5 10.2344C58.349 10.4375 58.2734 10.6562 58.2734 10.8906H56.8281C56.8281 10.5885 56.9062 10.2891 57.0625 9.99219C57.2188 9.69531 57.4427 9.42708 57.7344 9.1875C58.0312 8.94271 58.3854 8.75 58.7969 8.60938C59.2135 8.46354 59.6771 8.39062 60.1875 8.39062C60.8021 8.39062 61.3438 8.49479 61.8125 8.70312C62.2865 8.91146 62.6562 9.22656 62.9219 9.64844C63.1927 10.0651 63.3281 10.5885 63.3281 11.2188V15.1562C63.3281 15.4375 63.3516 15.737 63.3984 16.0547C63.4505 16.3724 63.526 16.6458 63.625 16.875V17H62.1172C62.0443 16.8333 61.987 16.612 61.9453 16.3359C61.9036 16.0547 61.8828 15.7943 61.8828 15.5547ZM62.1328 11.875L62.1484 12.8906H60.6875C60.276 12.8906 59.9089 12.9245 59.5859 12.9922C59.263 13.0547 58.9922 13.151 58.7734 13.2812C58.5547 13.4115 58.388 13.5755 58.2734 13.7734C58.1589 13.9661 58.1016 14.1927 58.1016 14.4531C58.1016 14.7188 58.1615 14.9609 58.2812 15.1797C58.401 15.3984 58.5807 15.5729 58.8203 15.7031C59.0651 15.8281 59.3646 15.8906 59.7188 15.8906C60.1615 15.8906 60.5521 15.7969 60.8906 15.6094C61.2292 15.4219 61.4974 15.1927 61.6953 14.9219C61.8984 14.651 62.0078 14.388 62.0234 14.1328L62.6406 14.8281C62.6042 15.0469 62.5052 15.2891 62.3438 15.5547C62.1823 15.8203 61.9661 16.0755 61.6953 16.3203C61.4297 16.5599 61.112 16.7604 60.7422 16.9219C60.3776 17.0781 59.9661 17.1562 59.5078 17.1562C58.9349 17.1562 58.4323 17.0443 58 16.8203C57.5729 16.5964 57.2396 16.2969 57 15.9219C56.7656 15.5417 56.6484 15.1172 56.6484 14.6484C56.6484 14.1953 56.737 13.7969 56.9141 13.4531C57.0911 13.1042 57.3464 12.8151 57.6797 12.5859C58.013 12.3516 58.4141 12.1745 58.8828 12.0547C59.3516 11.9349 59.875 11.875 60.4531 11.875H62.1328ZM67.0469 9.875V17H65.6016V8.54688H67.0078L67.0469 9.875ZM69.6875 8.5L69.6797 9.84375C69.5599 9.81771 69.4453 9.80208 69.3359 9.79688C69.2318 9.78646 69.112 9.78125 68.9766 9.78125C68.6432 9.78125 68.349 9.83333 68.0938 9.9375C67.8385 10.0417 67.6224 10.1875 67.4453 10.375C67.2682 10.5625 67.1276 10.7865 67.0234 11.0469C66.9245 11.3021 66.8594 11.5833 66.8281 11.8906L66.4219 12.125C66.4219 11.6146 66.4714 11.1354 66.5703 10.6875C66.6745 10.2396 66.8333 9.84375 67.0469 9.5C67.2604 9.15104 67.5312 8.88021 67.8594 8.6875C68.1927 8.48958 68.5885 8.39062 69.0469 8.39062C69.151 8.39062 69.2708 8.40365 69.4062 8.42969C69.5417 8.45052 69.6354 8.47396 69.6875 8.5Z" fill="white"/>
</svg>
