<svg width="76" height="144" viewBox="0 0 76 144" fill="none" xmlns="http://www.w3.org/2000/svg">
<path d="M6.28418 6.9082L2.46094 18H0.149414L4.96582 5.20312H6.44238L6.28418 6.9082ZM9.4834 18L5.65137 6.9082L5.48438 5.20312H6.96973L11.8037 18H9.4834ZM9.29883 13.2539V15.0029H2.33789V13.2539H9.29883ZM18.3604 15.4248C18.3604 15.2139 18.3076 15.0234 18.2021 14.8535C18.0967 14.6777 17.8945 14.5195 17.5957 14.3789C17.3027 14.2383 16.8691 14.1094 16.2949 13.9922C15.791 13.8809 15.3281 13.749 14.9062 13.5967C14.4902 13.4385 14.1328 13.248 13.834 13.0254C13.5352 12.8027 13.3037 12.5391 13.1396 12.2344C12.9756 11.9297 12.8936 11.5781 12.8936 11.1797C12.8936 10.793 12.9785 10.4268 13.1484 10.0811C13.3184 9.73535 13.5615 9.43066 13.8779 9.16699C14.1943 8.90332 14.5781 8.69531 15.0293 8.54297C15.4863 8.39062 15.9961 8.31445 16.5586 8.31445C17.3555 8.31445 18.0381 8.44922 18.6064 8.71875C19.1807 8.98242 19.6201 9.34277 19.9248 9.7998C20.2295 10.251 20.3818 10.7607 20.3818 11.3291H18.2637C18.2637 11.0771 18.1992 10.8428 18.0703 10.626C17.9473 10.4033 17.7598 10.2246 17.5078 10.0898C17.2559 9.94922 16.9395 9.87891 16.5586 9.87891C16.1953 9.87891 15.8936 9.9375 15.6533 10.0547C15.4189 10.166 15.2432 10.3125 15.126 10.4941C15.0146 10.6758 14.959 10.875 14.959 11.0918C14.959 11.25 14.9883 11.3936 15.0469 11.5225C15.1113 11.6455 15.2168 11.7598 15.3633 11.8652C15.5098 11.9648 15.709 12.0586 15.9609 12.1465C16.2188 12.2344 16.541 12.3193 16.9277 12.4014C17.6543 12.5537 18.2783 12.75 18.7998 12.9902C19.3271 13.2246 19.7314 13.5293 20.0127 13.9043C20.2939 14.2734 20.4346 14.7422 20.4346 15.3105C20.4346 15.7324 20.3438 16.1191 20.1621 16.4707C19.9863 16.8164 19.7285 17.1182 19.3887 17.376C19.0488 17.6279 18.6416 17.8242 18.167 17.9648C17.6982 18.1055 17.1709 18.1758 16.585 18.1758C15.7236 18.1758 14.9941 18.0234 14.3965 17.7188C13.7988 17.4082 13.3447 17.0127 13.0342 16.5322C12.7295 16.0459 12.5771 15.542 12.5771 15.0205H14.625C14.6484 15.4131 14.7568 15.7266 14.9502 15.9609C15.1494 16.1895 15.3955 16.3564 15.6885 16.4619C15.9873 16.5615 16.2949 16.6113 16.6113 16.6113C16.9922 16.6113 17.3115 16.5615 17.5693 16.4619C17.8271 16.3564 18.0234 16.2158 18.1582 16.04C18.293 15.8584 18.3604 15.6533 18.3604 15.4248ZM21.8848 13.3506V13.1484C21.8848 12.4629 21.9844 11.8271 22.1836 11.2412C22.3828 10.6494 22.6699 10.1367 23.0449 9.70312C23.4258 9.26367 23.8887 8.92383 24.4336 8.68359C24.9844 8.4375 25.6055 8.31445 26.2969 8.31445C26.9941 8.31445 27.6152 8.4375 28.1602 8.68359C28.7109 8.92383 29.1768 9.26367 29.5576 9.70312C29.9385 10.1367 30.2285 10.6494 30.4277 11.2412C30.627 11.8271 30.7266 12.4629 30.7266 13.1484V13.3506C30.7266 14.0361 30.627 14.6719 30.4277 15.2578C30.2285 15.8438 29.9385 16.3564 29.5576 16.7959C29.1768 17.2295 28.7139 17.5693 28.1689 17.8154C27.624 18.0557 27.0059 18.1758 26.3145 18.1758C25.6172 18.1758 24.9932 18.0557 24.4424 17.8154C23.8975 17.5693 23.4346 17.2295 23.0537 16.7959C22.6729 16.3564 22.3828 15.8438 22.1836 15.2578C21.9844 14.6719 21.8848 14.0361 21.8848 13.3506ZM24.0029 13.1484V13.3506C24.0029 13.7783 24.0469 14.1826 24.1348 14.5635C24.2227 14.9443 24.3604 15.2783 24.5479 15.5654C24.7354 15.8525 24.9756 16.0781 25.2686 16.2422C25.5615 16.4062 25.9102 16.4883 26.3145 16.4883C26.707 16.4883 27.0469 16.4062 27.334 16.2422C27.627 16.0781 27.8672 15.8525 28.0547 15.5654C28.2422 15.2783 28.3799 14.9443 28.4678 14.5635C28.5615 14.1826 28.6084 13.7783 28.6084 13.3506V13.1484C28.6084 12.7266 28.5615 12.3281 28.4678 11.9531C28.3799 11.5723 28.2393 11.2354 28.0459 10.9424C27.8584 10.6494 27.6182 10.4209 27.3252 10.2568C27.0381 10.0869 26.6953 10.002 26.2969 10.002C25.8984 10.002 25.5527 10.0869 25.2598 10.2568C24.9727 10.4209 24.7354 10.6494 24.5479 10.9424C24.3604 11.2354 24.2227 11.5723 24.1348 11.9531C24.0469 12.3281 24.0029 12.7266 24.0029 13.1484ZM37.8369 15.4248C37.8369 15.2139 37.7842 15.0234 37.6787 14.8535C37.5732 14.6777 37.3711 14.5195 37.0723 14.3789C36.7793 14.2383 36.3457 14.1094 35.7715 13.9922C35.2676 13.8809 34.8047 13.749 34.3828 13.5967C33.9668 13.4385 33.6094 13.248 33.3105 13.0254C33.0117 12.8027 32.7803 12.5391 32.6162 12.2344C32.4521 11.9297 32.3701 11.5781 32.3701 11.1797C32.3701 10.793 32.4551 10.4268 32.625 10.0811C32.7949 9.73535 33.0381 9.43066 33.3545 9.16699C33.6709 8.90332 34.0547 8.69531 34.5059 8.54297C34.9629 8.39062 35.4727 8.31445 36.0352 8.31445C36.832 8.31445 37.5146 8.44922 38.083 8.71875C38.6572 8.98242 39.0967 9.34277 39.4014 9.7998C39.7061 10.251 39.8584 10.7607 39.8584 11.3291H37.7402C37.7402 11.0771 37.6758 10.8428 37.5469 10.626C37.4238 10.4033 37.2363 10.2246 36.9844 10.0898C36.7324 9.94922 36.416 9.87891 36.0352 9.87891C35.6719 9.87891 35.3701 9.9375 35.1299 10.0547C34.8955 10.166 34.7197 10.3125 34.6025 10.4941C34.4912 10.6758 34.4355 10.875 34.4355 11.0918C34.4355 11.25 34.4648 11.3936 34.5234 11.5225C34.5879 11.6455 34.6934 11.7598 34.8398 11.8652C34.9863 11.9648 35.1855 12.0586 35.4375 12.1465C35.6953 12.2344 36.0176 12.3193 36.4043 12.4014C37.1309 12.5537 37.7549 12.75 38.2764 12.9902C38.8037 13.2246 39.208 13.5293 39.4893 13.9043C39.7705 14.2734 39.9111 14.7422 39.9111 15.3105C39.9111 15.7324 39.8203 16.1191 39.6387 16.4707C39.4629 16.8164 39.2051 17.1182 38.8652 17.376C38.5254 17.6279 38.1182 17.8242 37.6436 17.9648C37.1748 18.1055 36.6475 18.1758 36.0615 18.1758C35.2002 18.1758 34.4707 18.0234 33.873 17.7188C33.2754 17.4082 32.8213 17.0127 32.5107 16.5322C32.2061 16.0459 32.0537 15.542 32.0537 15.0205H34.1016C34.125 15.4131 34.2334 15.7266 34.4268 15.9609C34.626 16.1895 34.8721 16.3564 35.165 16.4619C35.4639 16.5615 35.7715 16.6113 36.0879 16.6113C36.4688 16.6113 36.7881 16.5615 37.0459 16.4619C37.3037 16.3564 37.5 16.2158 37.6348 16.04C37.7695 15.8584 37.8369 15.6533 37.8369 15.4248ZM44.0332 8.49023V18H41.9062V8.49023H44.0332ZM41.7656 5.99414C41.7656 5.67187 41.8711 5.40527 42.082 5.19434C42.2988 4.97754 42.5977 4.86914 42.9785 4.86914C43.3535 4.86914 43.6494 4.97754 43.8662 5.19434C44.083 5.40527 44.1914 5.67187 44.1914 5.99414C44.1914 6.31055 44.083 6.57422 43.8662 6.78516C43.6494 6.99609 43.3535 7.10156 42.9785 7.10156C42.5977 7.10156 42.2988 6.99609 42.082 6.78516C41.8711 6.57422 41.7656 6.31055 41.7656 5.99414ZM51.6885 15.4248C51.6885 15.2139 51.6357 15.0234 51.5303 14.8535C51.4248 14.6777 51.2227 14.5195 50.9238 14.3789C50.6309 14.2383 50.1973 14.1094 49.623 13.9922C49.1191 13.8809 48.6562 13.749 48.2344 13.5967C47.8184 13.4385 47.4609 13.248 47.1621 13.0254C46.8633 12.8027 46.6318 12.5391 46.4678 12.2344C46.3037 11.9297 46.2217 11.5781 46.2217 11.1797C46.2217 10.793 46.3066 10.4268 46.4766 10.0811C46.6465 9.73535 46.8896 9.43066 47.2061 9.16699C47.5225 8.90332 47.9062 8.69531 48.3574 8.54297C48.8145 8.39062 49.3242 8.31445 49.8867 8.31445C50.6836 8.31445 51.3662 8.44922 51.9346 8.71875C52.5088 8.98242 52.9482 9.34277 53.2529 9.7998C53.5576 10.251 53.71 10.7607 53.71 11.3291H51.5918C51.5918 11.0771 51.5273 10.8428 51.3984 10.626C51.2754 10.4033 51.0879 10.2246 50.8359 10.0898C50.584 9.94922 50.2676 9.87891 49.8867 9.87891C49.5234 9.87891 49.2217 9.9375 48.9814 10.0547C48.7471 10.166 48.5713 10.3125 48.4541 10.4941C48.3428 10.6758 48.2871 10.875 48.2871 11.0918C48.2871 11.25 48.3164 11.3936 48.375 11.5225C48.4395 11.6455 48.5449 11.7598 48.6914 11.8652C48.8379 11.9648 49.0371 12.0586 49.2891 12.1465C49.5469 12.2344 49.8691 12.3193 50.2559 12.4014C50.9824 12.5537 51.6064 12.75 52.1279 12.9902C52.6553 13.2246 53.0596 13.5293 53.3408 13.9043C53.6221 14.2734 53.7627 14.7422 53.7627 15.3105C53.7627 15.7324 53.6719 16.1191 53.4902 16.4707C53.3145 16.8164 53.0566 17.1182 52.7168 17.376C52.377 17.6279 51.9697 17.8242 51.4951 17.9648C51.0264 18.1055 50.499 18.1758 49.9131 18.1758C49.0518 18.1758 48.3223 18.0234 47.7246 17.7188C47.127 17.4082 46.6729 17.0127 46.3623 16.5322C46.0576 16.0459 45.9053 15.542 45.9053 15.0205H47.9531C47.9766 15.4131 48.085 15.7266 48.2783 15.9609C48.4775 16.1895 48.7236 16.3564 49.0166 16.4619C49.3154 16.5615 49.623 16.6113 49.9395 16.6113C50.3203 16.6113 50.6396 16.5615 50.8975 16.4619C51.1553 16.3564 51.3516 16.2158 51.4863 16.04C51.6211 15.8584 51.6885 15.6533 51.6885 15.4248ZM58.377 16.9629L60.9609 8.49023H63.2285L59.4141 19.4502C59.3262 19.6846 59.2119 19.9395 59.0713 20.2148C58.9307 20.4902 58.7461 20.751 58.5176 20.9971C58.2949 21.249 58.0166 21.4512 57.6826 21.6035C57.3486 21.7617 56.9443 21.8408 56.4697 21.8408C56.2822 21.8408 56.1006 21.8232 55.9248 21.7881C55.7549 21.7588 55.5938 21.7266 55.4414 21.6914L55.4326 20.0742C55.4912 20.0801 55.5615 20.0859 55.6436 20.0918C55.7314 20.0977 55.8018 20.1006 55.8545 20.1006C56.2061 20.1006 56.499 20.0566 56.7334 19.9688C56.9678 19.8867 57.1582 19.752 57.3047 19.5645C57.457 19.377 57.5859 19.125 57.6914 18.8086L58.377 16.9629ZM56.918 8.49023L59.1768 15.6094L59.5547 17.8418L58.0869 18.2197L54.6328 8.49023H56.918Z" fill="white"/>
<path d="M2.9375 53.625V65H1.42969V53.625H2.9375ZM6.89844 58.2266V65H5.44531V56.5469H6.82031L6.89844 58.2266ZM6.60156 60.4531L5.92969 60.4297C5.9349 59.8516 6.01042 59.3177 6.15625 58.8281C6.30208 58.3333 6.51823 57.9036 6.80469 57.5391C7.09115 57.1745 7.44792 56.8932 7.875 56.6953C8.30208 56.4922 8.79688 56.3906 9.35938 56.3906C9.75521 56.3906 10.1198 56.4479 10.4531 56.5625C10.7865 56.6719 11.0755 56.8464 11.3203 57.0859C11.5651 57.3255 11.7552 57.6328 11.8906 58.0078C12.026 58.3828 12.0938 58.8359 12.0938 59.3672V65H10.6484V59.4375C10.6484 58.9948 10.5729 58.6406 10.4219 58.375C10.276 58.1094 10.0677 57.9167 9.79688 57.7969C9.52604 57.6719 9.20833 57.6094 8.84375 57.6094C8.41667 57.6094 8.0599 57.6849 7.77344 57.8359C7.48698 57.987 7.25781 58.1953 7.08594 58.4609C6.91406 58.7266 6.78906 59.0312 6.71094 59.375C6.63802 59.7135 6.60156 60.0729 6.60156 60.4531ZM12.0781 59.6562L11.1094 59.9531C11.1146 59.4896 11.1901 59.0443 11.3359 58.6172C11.487 58.1901 11.7031 57.8099 11.9844 57.4766C12.2708 57.1432 12.6224 56.8802 13.0391 56.6875C13.4557 56.4896 13.9323 56.3906 14.4688 56.3906C14.9219 56.3906 15.3229 56.4505 15.6719 56.5703C16.026 56.6901 16.3229 56.875 16.5625 57.125C16.8073 57.3698 16.9922 57.6849 17.1172 58.0703C17.2422 58.4557 17.3047 58.9141 17.3047 59.4453V65H15.8516V59.4297C15.8516 58.9557 15.776 58.5885 15.625 58.3281C15.4792 58.0625 15.2708 57.8776 15 57.7734C14.7344 57.6641 14.4167 57.6094 14.0469 57.6094C13.7292 57.6094 13.4479 57.6641 13.2031 57.7734C12.9583 57.8828 12.7526 58.0339 12.5859 58.2266C12.4193 58.4141 12.2917 58.6302 12.2031 58.875C12.1198 59.1198 12.0781 59.3802 12.0781 59.6562ZM23.0312 56.5469V57.6562H18.4609V56.5469H23.0312ZM20.0078 54.4922H21.4531V62.9062C21.4531 63.1927 21.4974 63.4089 21.5859 63.5547C21.6745 63.7005 21.7891 63.7969 21.9297 63.8438C22.0703 63.8906 22.2214 63.9141 22.3828 63.9141C22.5026 63.9141 22.6276 63.9036 22.7578 63.8828C22.8932 63.8568 22.9948 63.8359 23.0625 63.8203L23.0703 65C22.9557 65.0365 22.8047 65.0703 22.6172 65.1016C22.4349 65.138 22.2135 65.1562 21.9531 65.1562C21.599 65.1562 21.2734 65.0859 20.9766 64.9453C20.6797 64.8047 20.4427 64.5703 20.2656 64.2422C20.0938 63.9089 20.0078 63.4609 20.0078 62.8984V54.4922ZM26.2969 56.5469V65H24.8438V56.5469H26.2969ZM24.7344 54.3047C24.7344 54.0703 24.8047 53.8724 24.9453 53.7109C25.0911 53.5495 25.3047 53.4688 25.5859 53.4688C25.862 53.4688 26.0729 53.5495 26.2188 53.7109C26.3698 53.8724 26.4453 54.0703 26.4453 54.3047C26.4453 54.5286 26.3698 54.7214 26.2188 54.8828C26.0729 55.0391 25.862 55.1172 25.5859 55.1172C25.3047 55.1172 25.0911 55.0391 24.9453 54.8828C24.8047 54.7214 24.7344 54.5286 24.7344 54.3047ZM30.9922 64.125L33.3438 56.5469H34.8906L31.5 66.3047C31.4219 66.513 31.3177 66.737 31.1875 66.9766C31.0625 67.2214 30.901 67.4531 30.7031 67.6719C30.5052 67.8906 30.2656 68.0677 29.9844 68.2031C29.7083 68.3438 29.3776 68.4141 28.9922 68.4141C28.8776 68.4141 28.7318 68.3984 28.5547 68.3672C28.3776 68.3359 28.2526 68.3099 28.1797 68.2891L28.1719 67.1172C28.2135 67.1224 28.2786 67.1276 28.3672 67.1328C28.4609 67.1432 28.526 67.1484 28.5625 67.1484C28.8906 67.1484 29.1693 67.1042 29.3984 67.0156C29.6276 66.9323 29.8203 66.7891 29.9766 66.5859C30.138 66.388 30.276 66.1146 30.3906 65.7656L30.9922 64.125ZM29.2656 56.5469L31.4609 63.1094L31.8359 64.6328L30.7969 65.1641L27.6875 56.5469H29.2656ZM35.6875 60.8672V60.6875C35.6875 60.0781 35.776 59.513 35.9531 58.9922C36.1302 58.4661 36.3854 58.0104 36.7188 57.625C37.0521 57.2344 37.4557 56.9323 37.9297 56.7188C38.4036 56.5 38.9349 56.3906 39.5234 56.3906C40.1172 56.3906 40.651 56.5 41.125 56.7188C41.6042 56.9323 42.0104 57.2344 42.3438 57.625C42.6823 58.0104 42.9401 58.4661 43.1172 58.9922C43.2943 59.513 43.3828 60.0781 43.3828 60.6875V60.8672C43.3828 61.4766 43.2943 62.0417 43.1172 62.5625C42.9401 63.0833 42.6823 63.5391 42.3438 63.9297C42.0104 64.3151 41.6068 64.6172 41.1328 64.8359C40.6641 65.0495 40.1328 65.1562 39.5391 65.1562C38.9453 65.1562 38.4115 65.0495 37.9375 64.8359C37.4635 64.6172 37.0573 64.3151 36.7188 63.9297C36.3854 63.5391 36.1302 63.0833 35.9531 62.5625C35.776 62.0417 35.6875 61.4766 35.6875 60.8672ZM37.1328 60.6875V60.8672C37.1328 61.2891 37.1823 61.6875 37.2812 62.0625C37.3802 62.4323 37.5286 62.7604 37.7266 63.0469C37.9297 63.3333 38.1823 63.5599 38.4844 63.7266C38.7865 63.888 39.138 63.9688 39.5391 63.9688C39.9349 63.9688 40.2812 63.888 40.5781 63.7266C40.8802 63.5599 41.1302 63.3333 41.3281 63.0469C41.526 62.7604 41.6745 62.4323 41.7734 62.0625C41.8776 61.6875 41.9297 61.2891 41.9297 60.8672V60.6875C41.9297 60.2708 41.8776 59.8776 41.7734 59.5078C41.6745 59.1328 41.5234 58.8021 41.3203 58.5156C41.1224 58.224 40.8724 57.9948 40.5703 57.8281C40.2734 57.6615 39.9245 57.5781 39.5234 57.5781C39.1276 57.5781 38.7786 57.6615 38.4766 57.8281C38.1797 57.9948 37.9297 58.224 37.7266 58.5156C37.5286 58.8021 37.3802 59.1328 37.2812 59.5078C37.1823 59.8776 37.1328 60.2708 37.1328 60.6875ZM51.3672 63.8125V65H45.2188V63.8125H51.3672ZM51.1406 57.5703L45.5469 65H44.6641V63.9375L50.2188 56.5469H51.1406V57.5703ZM50.5 56.5469V57.7422H44.7266V56.5469H50.5ZM54.5781 53V65H53.125V53H54.5781ZM61.8828 63.5547V59.2031C61.8828 58.8698 61.8151 58.5807 61.6797 58.3359C61.5495 58.0859 61.3516 57.8932 61.0859 57.7578C60.8203 57.6224 60.4922 57.5547 60.1016 57.5547C59.737 57.5547 59.4167 57.6172 59.1406 57.7422C58.8698 57.8672 58.6562 58.0312 58.5 58.2344C58.349 58.4375 58.2734 58.6562 58.2734 58.8906H56.8281C56.8281 58.5885 56.9062 58.2891 57.0625 57.9922C57.2188 57.6953 57.4427 57.4271 57.7344 57.1875C58.0312 56.9427 58.3854 56.75 58.7969 56.6094C59.2135 56.4635 59.6771 56.3906 60.1875 56.3906C60.8021 56.3906 61.3438 56.4948 61.8125 56.7031C62.2865 56.9115 62.6562 57.2266 62.9219 57.6484C63.1927 58.0651 63.3281 58.5885 63.3281 59.2188V63.1562C63.3281 63.4375 63.3516 63.737 63.3984 64.0547C63.4505 64.3724 63.526 64.6458 63.625 64.875V65H62.1172C62.0443 64.8333 61.987 64.612 61.9453 64.3359C61.9036 64.0547 61.8828 63.7943 61.8828 63.5547ZM62.1328 59.875L62.1484 60.8906H60.6875C60.276 60.8906 59.9089 60.9245 59.5859 60.9922C59.263 61.0547 58.9922 61.151 58.7734 61.2812C58.5547 61.4115 58.388 61.5755 58.2734 61.7734C58.1589 61.9661 58.1016 62.1927 58.1016 62.4531C58.1016 62.7188 58.1615 62.9609 58.2812 63.1797C58.401 63.3984 58.5807 63.5729 58.8203 63.7031C59.0651 63.8281 59.3646 63.8906 59.7188 63.8906C60.1615 63.8906 60.5521 63.7969 60.8906 63.6094C61.2292 63.4219 61.4974 63.1927 61.6953 62.9219C61.8984 62.651 62.0078 62.388 62.0234 62.1328L62.6406 62.8281C62.6042 63.0469 62.5052 63.2891 62.3438 63.5547C62.1823 63.8203 61.9661 64.0755 61.6953 64.3203C61.4297 64.5599 61.112 64.7604 60.7422 64.9219C60.3776 65.0781 59.9661 65.1562 59.5078 65.1562C58.9349 65.1562 58.4323 65.0443 58 64.8203C57.5729 64.5964 57.2396 64.2969 57 63.9219C56.7656 63.5417 56.6484 63.1172 56.6484 62.6484C56.6484 62.1953 56.737 61.7969 56.9141 61.4531C57.0911 61.1042 57.3464 60.8151 57.6797 60.5859C58.013 60.3516 58.4141 60.1745 58.8828 60.0547C59.3516 59.9349 59.875 59.875 60.4531 59.875H62.1328ZM67.0469 57.875V65H65.6016V56.5469H67.0078L67.0469 57.875ZM69.6875 56.5L69.6797 57.8438C69.5599 57.8177 69.4453 57.8021 69.3359 57.7969C69.2318 57.7865 69.112 57.7812 68.9766 57.7812C68.6432 57.7812 68.349 57.8333 68.0938 57.9375C67.8385 58.0417 67.6224 58.1875 67.4453 58.375C67.2682 58.5625 67.1276 58.7865 67.0234 59.0469C66.9245 59.3021 66.8594 59.5833 66.8281 59.8906L66.4219 60.125C66.4219 59.6146 66.4714 59.1354 66.5703 58.6875C66.6745 58.2396 66.8333 57.8438 67.0469 57.5C67.2604 57.151 67.5312 56.8802 67.8594 56.6875C68.1927 56.4896 68.5885 56.3906 69.0469 56.3906C69.151 56.3906 69.2708 56.4036 69.4062 56.4297C69.5417 56.4505 69.6354 56.474 69.6875 56.5Z" fill="white"/>
<path d="M1.84375 89.625L4.79688 95.3359L7.75781 89.625H9.46875L5.54688 96.75V101H4.03906V96.75L0.117188 89.625H1.84375ZM15.1172 99.5547V95.2031C15.1172 94.8698 15.0495 94.5807 14.9141 94.3359C14.7839 94.0859 14.5859 93.8932 14.3203 93.7578C14.0547 93.6224 13.7266 93.5547 13.3359 93.5547C12.9714 93.5547 12.651 93.6172 12.375 93.7422C12.1042 93.8672 11.8906 94.0312 11.7344 94.2344C11.5833 94.4375 11.5078 94.6562 11.5078 94.8906H10.0625C10.0625 94.5885 10.1406 94.2891 10.2969 93.9922C10.4531 93.6953 10.6771 93.4271 10.9688 93.1875C11.2656 92.9427 11.6198 92.75 12.0312 92.6094C12.4479 92.4635 12.9115 92.3906 13.4219 92.3906C14.0365 92.3906 14.5781 92.4948 15.0469 92.7031C15.5208 92.9115 15.8906 93.2266 16.1562 93.6484C16.4271 94.0651 16.5625 94.5885 16.5625 95.2188V99.1562C16.5625 99.4375 16.5859 99.737 16.6328 100.055C16.6849 100.372 16.7604 100.646 16.8594 100.875V101H15.3516C15.2786 100.833 15.2214 100.612 15.1797 100.336C15.138 100.055 15.1172 99.7943 15.1172 99.5547ZM15.3672 95.875L15.3828 96.8906H13.9219C13.5104 96.8906 13.1432 96.9245 12.8203 96.9922C12.4974 97.0547 12.2266 97.151 12.0078 97.2812C11.7891 97.4115 11.6224 97.5755 11.5078 97.7734C11.3932 97.9661 11.3359 98.1927 11.3359 98.4531C11.3359 98.7188 11.3958 98.9609 11.5156 99.1797C11.6354 99.3984 11.8151 99.5729 12.0547 99.7031C12.2995 99.8281 12.599 99.8906 12.9531 99.8906C13.3958 99.8906 13.7865 99.7969 14.125 99.6094C14.4635 99.4219 14.7318 99.1927 14.9297 98.9219C15.1328 98.651 15.2422 98.388 15.2578 98.1328L15.875 98.8281C15.8385 99.0469 15.7396 99.2891 15.5781 99.5547C15.4167 99.8203 15.2005 100.076 14.9297 100.32C14.6641 100.56 14.3464 100.76 13.9766 100.922C13.612 101.078 13.2005 101.156 12.7422 101.156C12.1693 101.156 11.6667 101.044 11.2344 100.82C10.8073 100.596 10.474 100.297 10.2344 99.9219C10 99.5417 9.88281 99.1172 9.88281 98.6484C9.88281 98.1953 9.97135 97.7969 10.1484 97.4531C10.3255 97.1042 10.5807 96.8151 10.9141 96.5859C11.2474 96.3516 11.6484 96.1745 12.1172 96.0547C12.5859 95.9349 13.1094 95.875 13.6875 95.875H15.3672ZM20.2812 94.3516V101H18.8359V92.5469H20.2031L20.2812 94.3516ZM19.9375 96.4531L19.3359 96.4297C19.3411 95.8516 19.4271 95.3177 19.5938 94.8281C19.7604 94.3333 19.9948 93.9036 20.2969 93.5391C20.599 93.1745 20.9583 92.8932 21.375 92.6953C21.7969 92.4922 22.263 92.3906 22.7734 92.3906C23.1901 92.3906 23.5651 92.4479 23.8984 92.5625C24.2318 92.6719 24.5156 92.849 24.75 93.0938C24.9896 93.3385 25.1719 93.6562 25.2969 94.0469C25.4219 94.4323 25.4844 94.9036 25.4844 95.4609V101H24.0312V95.4453C24.0312 95.0026 23.9661 94.6484 23.8359 94.3828C23.7057 94.112 23.5156 93.9167 23.2656 93.7969C23.0156 93.6719 22.7083 93.6094 22.3438 93.6094C21.9844 93.6094 21.6562 93.6849 21.3594 93.8359C21.0677 93.987 20.8151 94.1953 20.6016 94.4609C20.3932 94.7266 20.2292 95.0312 20.1094 95.375C19.9948 95.7135 19.9375 96.0729 19.9375 96.4531ZM33.1562 92.5469H34.4688V100.82C34.4688 101.565 34.3177 102.201 34.0156 102.727C33.7135 103.253 33.2917 103.651 32.75 103.922C32.2135 104.198 31.5938 104.336 30.8906 104.336C30.599 104.336 30.2552 104.289 29.8594 104.195C29.4688 104.107 29.0833 103.953 28.7031 103.734C28.3281 103.521 28.013 103.232 27.7578 102.867L28.5156 102.008C28.8698 102.435 29.2396 102.732 29.625 102.898C30.0156 103.065 30.401 103.148 30.7812 103.148C31.2396 103.148 31.6354 103.062 31.9688 102.891C32.3021 102.719 32.5599 102.464 32.7422 102.125C32.9297 101.792 33.0234 101.38 33.0234 100.891V94.4062L33.1562 92.5469ZM27.3359 96.8672V96.7031C27.3359 96.0573 27.4115 95.4714 27.5625 94.9453C27.7188 94.4141 27.9401 93.9583 28.2266 93.5781C28.5182 93.1979 28.8698 92.9062 29.2812 92.7031C29.6927 92.4948 30.1562 92.3906 30.6719 92.3906C31.2031 92.3906 31.6667 92.4844 32.0625 92.6719C32.4635 92.8542 32.8021 93.1224 33.0781 93.4766C33.3594 93.8255 33.5807 94.2474 33.7422 94.7422C33.9036 95.237 34.0156 95.7969 34.0781 96.4219V97.1406C34.0208 97.7604 33.9089 98.3177 33.7422 98.8125C33.5807 99.3073 33.3594 99.7292 33.0781 100.078C32.8021 100.427 32.4635 100.695 32.0625 100.883C31.6615 101.065 31.1927 101.156 30.6562 101.156C30.151 101.156 29.6927 101.049 29.2812 100.836C28.875 100.622 28.526 100.323 28.2344 99.9375C27.9427 99.5521 27.7188 99.099 27.5625 98.5781C27.4115 98.0521 27.3359 97.4818 27.3359 96.8672ZM28.7812 96.7031V96.8672C28.7812 97.2891 28.8229 97.6849 28.9062 98.0547C28.9948 98.4245 29.1276 98.75 29.3047 99.0312C29.487 99.3125 29.7188 99.5339 30 99.6953C30.2812 99.8516 30.6172 99.9297 31.0078 99.9297C31.487 99.9297 31.8828 99.8281 32.1953 99.625C32.5078 99.4219 32.7552 99.1536 32.9375 98.8203C33.125 98.487 33.2708 98.125 33.375 97.7344V95.8516C33.3177 95.5651 33.2292 95.2891 33.1094 95.0234C32.9948 94.7526 32.8438 94.513 32.6562 94.3047C32.474 94.0911 32.2474 93.9219 31.9766 93.7969C31.7057 93.6719 31.388 93.6094 31.0234 93.6094C30.6276 93.6094 30.2865 93.6927 30 93.8594C29.7188 94.0208 29.487 94.2448 29.3047 94.5312C29.1276 94.8125 28.9948 95.1406 28.9062 95.5156C28.8229 95.8854 28.7812 96.2812 28.7812 96.7031ZM38.2344 92.5469V101H36.7812V92.5469H38.2344ZM36.6719 90.3047C36.6719 90.0703 36.7422 89.8724 36.8828 89.7109C37.0286 89.5495 37.2422 89.4688 37.5234 89.4688C37.7995 89.4688 38.0104 89.5495 38.1562 89.7109C38.3073 89.8724 38.3828 90.0703 38.3828 90.3047C38.3828 90.5286 38.3073 90.7214 38.1562 90.8828C38.0104 91.0391 37.7995 91.1172 37.5234 91.1172C37.2422 91.1172 37.0286 91.0391 36.8828 90.8828C36.7422 90.7214 36.6719 90.5286 36.6719 90.3047ZM42.125 89V101H40.6719V89H42.125ZM45.8984 89V101H44.4453V89H45.8984ZM51.0625 92.5469L47.375 96.4922L45.3125 98.6328L45.1953 97.0938L46.6719 95.3281L49.2969 92.5469H51.0625ZM49.7422 101L46.7266 96.9688L47.4766 95.6797L51.4453 101H49.7422ZM54.125 89V101H52.6719V89H54.125ZM61.4297 99.5547V95.2031C61.4297 94.8698 61.362 94.5807 61.2266 94.3359C61.0964 94.0859 60.8984 93.8932 60.6328 93.7578C60.3672 93.6224 60.0391 93.5547 59.6484 93.5547C59.2839 93.5547 58.9635 93.6172 58.6875 93.7422C58.4167 93.8672 58.2031 94.0312 58.0469 94.2344C57.8958 94.4375 57.8203 94.6562 57.8203 94.8906H56.375C56.375 94.5885 56.4531 94.2891 56.6094 93.9922C56.7656 93.6953 56.9896 93.4271 57.2812 93.1875C57.5781 92.9427 57.9323 92.75 58.3438 92.6094C58.7604 92.4635 59.224 92.3906 59.7344 92.3906C60.349 92.3906 60.8906 92.4948 61.3594 92.7031C61.8333 92.9115 62.2031 93.2266 62.4688 93.6484C62.7396 94.0651 62.875 94.5885 62.875 95.2188V99.1562C62.875 99.4375 62.8984 99.737 62.9453 100.055C62.9974 100.372 63.0729 100.646 63.1719 100.875V101H61.6641C61.5911 100.833 61.5339 100.612 61.4922 100.336C61.4505 100.055 61.4297 99.7943 61.4297 99.5547ZM61.6797 95.875L61.6953 96.8906H60.2344C59.8229 96.8906 59.4557 96.9245 59.1328 96.9922C58.8099 97.0547 58.5391 97.151 58.3203 97.2812C58.1016 97.4115 57.9349 97.5755 57.8203 97.7734C57.7057 97.9661 57.6484 98.1927 57.6484 98.4531C57.6484 98.7188 57.7083 98.9609 57.8281 99.1797C57.9479 99.3984 58.1276 99.5729 58.3672 99.7031C58.612 99.8281 58.9115 99.8906 59.2656 99.8906C59.7083 99.8906 60.099 99.7969 60.4375 99.6094C60.776 99.4219 61.0443 99.1927 61.2422 98.9219C61.4453 98.651 61.5547 98.388 61.5703 98.1328L62.1875 98.8281C62.151 99.0469 62.0521 99.2891 61.8906 99.5547C61.7292 99.8203 61.513 100.076 61.2422 100.32C60.9766 100.56 60.6589 100.76 60.2891 100.922C59.9245 101.078 59.513 101.156 59.0547 101.156C58.4818 101.156 57.9792 101.044 57.5469 100.82C57.1198 100.596 56.7865 100.297 56.5469 99.9219C56.3125 99.5417 56.1953 99.1172 56.1953 98.6484C56.1953 98.1953 56.2839 97.7969 56.4609 97.4531C56.638 97.1042 56.8932 96.8151 57.2266 96.5859C57.5599 96.3516 57.9609 96.1745 58.4297 96.0547C58.8984 95.9349 59.4219 95.875 60 95.875H61.6797ZM66.5938 93.875V101H65.1484V92.5469H66.5547L66.5938 93.875ZM69.2344 92.5L69.2266 93.8438C69.1068 93.8177 68.9922 93.8021 68.8828 93.7969C68.7786 93.7865 68.6589 93.7812 68.5234 93.7812C68.1901 93.7812 67.8958 93.8333 67.6406 93.9375C67.3854 94.0417 67.1693 94.1875 66.9922 94.375C66.8151 94.5625 66.6745 94.7865 66.5703 95.0469C66.4714 95.3021 66.4062 95.5833 66.375 95.8906L65.9688 96.125C65.9688 95.6146 66.0182 95.1354 66.1172 94.6875C66.2214 94.2396 66.3802 93.8438 66.5938 93.5C66.8073 93.151 67.0781 92.8802 67.4062 92.6875C67.7396 92.4896 68.1354 92.3906 68.5938 92.3906C68.6979 92.3906 68.8177 92.4036 68.9531 92.4297C69.0885 92.4505 69.1823 92.474 69.2344 92.5Z" fill="white"/>
<path d="M7.38281 134.125C7.38281 133.859 7.34115 133.625 7.25781 133.422C7.17969 133.214 7.03906 133.026 6.83594 132.859C6.63802 132.693 6.36198 132.534 6.00781 132.383C5.65885 132.232 5.21615 132.078 4.67969 131.922C4.11719 131.755 3.60938 131.57 3.15625 131.367C2.70312 131.159 2.3151 130.922 1.99219 130.656C1.66927 130.391 1.42188 130.086 1.25 129.742C1.07812 129.398 0.992188 129.005 0.992188 128.562C0.992188 128.12 1.08333 127.711 1.26562 127.336C1.44792 126.961 1.70833 126.635 2.04688 126.359C2.39062 126.078 2.79948 125.859 3.27344 125.703C3.7474 125.547 4.27604 125.469 4.85938 125.469C5.71354 125.469 6.4375 125.633 7.03125 125.961C7.63021 126.284 8.08594 126.708 8.39844 127.234C8.71094 127.755 8.86719 128.312 8.86719 128.906H7.36719C7.36719 128.479 7.27604 128.102 7.09375 127.773C6.91146 127.44 6.63542 127.18 6.26562 126.992C5.89583 126.799 5.42708 126.703 4.85938 126.703C4.32292 126.703 3.88021 126.784 3.53125 126.945C3.18229 127.107 2.92188 127.326 2.75 127.602C2.58333 127.878 2.5 128.193 2.5 128.547C2.5 128.786 2.54948 129.005 2.64844 129.203C2.7526 129.396 2.91146 129.576 3.125 129.742C3.34375 129.909 3.61979 130.062 3.95312 130.203C4.29167 130.344 4.69531 130.479 5.16406 130.609C5.8099 130.792 6.36719 130.995 6.83594 131.219C7.30469 131.443 7.6901 131.695 7.99219 131.977C8.29948 132.253 8.52604 132.568 8.67188 132.922C8.82292 133.271 8.89844 133.667 8.89844 134.109C8.89844 134.573 8.80469 134.992 8.61719 135.367C8.42969 135.742 8.16146 136.062 7.8125 136.328C7.46354 136.594 7.04427 136.799 6.55469 136.945C6.07031 137.086 5.52865 137.156 4.92969 137.156C4.40365 137.156 3.88542 137.083 3.375 136.938C2.86979 136.792 2.40885 136.573 1.99219 136.281C1.58073 135.99 1.25 135.63 1 135.203C0.755208 134.771 0.632812 134.271 0.632812 133.703H2.13281C2.13281 134.094 2.20833 134.43 2.35938 134.711C2.51042 134.987 2.71615 135.216 2.97656 135.398C3.24219 135.581 3.54167 135.716 3.875 135.805C4.21354 135.888 4.5651 135.93 4.92969 135.93C5.45573 135.93 5.90104 135.857 6.26562 135.711C6.63021 135.565 6.90625 135.357 7.09375 135.086C7.28646 134.815 7.38281 134.495 7.38281 134.125ZM15.5859 135.555V131.203C15.5859 130.87 15.5182 130.581 15.3828 130.336C15.2526 130.086 15.0547 129.893 14.7891 129.758C14.5234 129.622 14.1953 129.555 13.8047 129.555C13.4401 129.555 13.1198 129.617 12.8438 129.742C12.5729 129.867 12.3594 130.031 12.2031 130.234C12.0521 130.438 11.9766 130.656 11.9766 130.891H10.5312C10.5312 130.589 10.6094 130.289 10.7656 129.992C10.9219 129.695 11.1458 129.427 11.4375 129.188C11.7344 128.943 12.0885 128.75 12.5 128.609C12.9167 128.464 13.3802 128.391 13.8906 128.391C14.5052 128.391 15.0469 128.495 15.5156 128.703C15.9896 128.911 16.3594 129.227 16.625 129.648C16.8958 130.065 17.0312 130.589 17.0312 131.219V135.156C17.0312 135.438 17.0547 135.737 17.1016 136.055C17.1536 136.372 17.2292 136.646 17.3281 136.875V137H15.8203C15.7474 136.833 15.6901 136.612 15.6484 136.336C15.6068 136.055 15.5859 135.794 15.5859 135.555ZM15.8359 131.875L15.8516 132.891H14.3906C13.9792 132.891 13.612 132.924 13.2891 132.992C12.9661 133.055 12.6953 133.151 12.4766 133.281C12.2578 133.411 12.0911 133.576 11.9766 133.773C11.862 133.966 11.8047 134.193 11.8047 134.453C11.8047 134.719 11.8646 134.961 11.9844 135.18C12.1042 135.398 12.2839 135.573 12.5234 135.703C12.7682 135.828 13.0677 135.891 13.4219 135.891C13.8646 135.891 14.2552 135.797 14.5938 135.609C14.9323 135.422 15.2005 135.193 15.3984 134.922C15.6016 134.651 15.7109 134.388 15.7266 134.133L16.3438 134.828C16.3073 135.047 16.2083 135.289 16.0469 135.555C15.8854 135.82 15.6693 136.076 15.3984 136.32C15.1328 136.56 14.8151 136.76 14.4453 136.922C14.0807 137.078 13.6693 137.156 13.2109 137.156C12.638 137.156 12.1354 137.044 11.7031 136.82C11.276 136.596 10.9427 136.297 10.7031 135.922C10.4688 135.542 10.3516 135.117 10.3516 134.648C10.3516 134.195 10.4401 133.797 10.6172 133.453C10.7943 133.104 11.0495 132.815 11.3828 132.586C11.7161 132.352 12.1172 132.174 12.5859 132.055C13.0547 131.935 13.5781 131.875 14.1562 131.875H15.8359ZM22.8438 128.547V129.656H18.2734V128.547H22.8438ZM19.8203 126.492H21.2656V134.906C21.2656 135.193 21.3099 135.409 21.3984 135.555C21.487 135.701 21.6016 135.797 21.7422 135.844C21.8828 135.891 22.0339 135.914 22.1953 135.914C22.3151 135.914 22.4401 135.904 22.5703 135.883C22.7057 135.857 22.8073 135.836 22.875 135.82L22.8828 137C22.7682 137.036 22.6172 137.07 22.4297 137.102C22.2474 137.138 22.026 137.156 21.7656 137.156C21.4115 137.156 21.0859 137.086 20.7891 136.945C20.4922 136.805 20.2552 136.57 20.0781 136.242C19.9062 135.909 19.8203 135.461 19.8203 134.898V126.492ZM29.5234 135.555V131.203C29.5234 130.87 29.4557 130.581 29.3203 130.336C29.1901 130.086 28.9922 129.893 28.7266 129.758C28.4609 129.622 28.1328 129.555 27.7422 129.555C27.3776 129.555 27.0573 129.617 26.7812 129.742C26.5104 129.867 26.2969 130.031 26.1406 130.234C25.9896 130.438 25.9141 130.656 25.9141 130.891H24.4688C24.4688 130.589 24.5469 130.289 24.7031 129.992C24.8594 129.695 25.0833 129.427 25.375 129.188C25.6719 128.943 26.026 128.75 26.4375 128.609C26.8542 128.464 27.3177 128.391 27.8281 128.391C28.4427 128.391 28.9844 128.495 29.4531 128.703C29.9271 128.911 30.2969 129.227 30.5625 129.648C30.8333 130.065 30.9688 130.589 30.9688 131.219V135.156C30.9688 135.438 30.9922 135.737 31.0391 136.055C31.0911 136.372 31.1667 136.646 31.2656 136.875V137H29.7578C29.6849 136.833 29.6276 136.612 29.5859 136.336C29.5443 136.055 29.5234 135.794 29.5234 135.555ZM29.7734 131.875L29.7891 132.891H28.3281C27.9167 132.891 27.5495 132.924 27.2266 132.992C26.9036 133.055 26.6328 133.151 26.4141 133.281C26.1953 133.411 26.0286 133.576 25.9141 133.773C25.7995 133.966 25.7422 134.193 25.7422 134.453C25.7422 134.719 25.8021 134.961 25.9219 135.18C26.0417 135.398 26.2214 135.573 26.4609 135.703C26.7057 135.828 27.0052 135.891 27.3594 135.891C27.8021 135.891 28.1927 135.797 28.5312 135.609C28.8698 135.422 29.138 135.193 29.3359 134.922C29.5391 134.651 29.6484 134.388 29.6641 134.133L30.2812 134.828C30.2448 135.047 30.1458 135.289 29.9844 135.555C29.8229 135.82 29.6068 136.076 29.3359 136.32C29.0703 136.56 28.7526 136.76 28.3828 136.922C28.0182 137.078 27.6068 137.156 27.1484 137.156C26.5755 137.156 26.0729 137.044 25.6406 136.82C25.2135 136.596 24.8802 136.297 24.6406 135.922C24.4062 135.542 24.2891 135.117 24.2891 134.648C24.2891 134.195 24.3776 133.797 24.5547 133.453C24.7318 133.104 24.987 132.815 25.3203 132.586C25.6536 132.352 26.0547 132.174 26.5234 132.055C26.9922 131.935 27.5156 131.875 28.0938 131.875H29.7734ZM38.1641 134.758C38.1641 134.549 38.1172 134.357 38.0234 134.18C37.9349 133.997 37.75 133.833 37.4688 133.688C37.1927 133.536 36.776 133.406 36.2188 133.297C35.75 133.198 35.3255 133.081 34.9453 132.945C34.5703 132.81 34.25 132.646 33.9844 132.453C33.724 132.26 33.5234 132.034 33.3828 131.773C33.2422 131.513 33.1719 131.208 33.1719 130.859C33.1719 130.526 33.2448 130.211 33.3906 129.914C33.5417 129.617 33.7526 129.354 34.0234 129.125C34.2995 128.896 34.6302 128.716 35.0156 128.586C35.401 128.456 35.8307 128.391 36.3047 128.391C36.9818 128.391 37.5599 128.51 38.0391 128.75C38.5182 128.99 38.8854 129.31 39.1406 129.711C39.3958 130.107 39.5234 130.547 39.5234 131.031H38.0781C38.0781 130.797 38.0078 130.57 37.8672 130.352C37.7318 130.128 37.5312 129.943 37.2656 129.797C37.0052 129.651 36.6849 129.578 36.3047 129.578C35.9036 129.578 35.5781 129.641 35.3281 129.766C35.0833 129.885 34.9036 130.039 34.7891 130.227C34.6797 130.414 34.625 130.612 34.625 130.82C34.625 130.977 34.651 131.117 34.7031 131.242C34.7604 131.362 34.8594 131.474 35 131.578C35.1406 131.677 35.3385 131.771 35.5938 131.859C35.849 131.948 36.1745 132.036 36.5703 132.125C37.263 132.281 37.8333 132.469 38.2812 132.688C38.7292 132.906 39.0625 133.174 39.2812 133.492C39.5 133.81 39.6094 134.195 39.6094 134.648C39.6094 135.018 39.5312 135.357 39.375 135.664C39.224 135.971 39.0026 136.237 38.7109 136.461C38.4245 136.68 38.0807 136.852 37.6797 136.977C37.2839 137.096 36.8385 137.156 36.3438 137.156C35.599 137.156 34.9688 137.023 34.4531 136.758C33.9375 136.492 33.5469 136.148 33.2812 135.727C33.0156 135.305 32.8828 134.859 32.8828 134.391H34.3359C34.3568 134.786 34.4714 135.102 34.6797 135.336C34.888 135.565 35.1432 135.729 35.4453 135.828C35.7474 135.922 36.0469 135.969 36.3438 135.969C36.7396 135.969 37.0703 135.917 37.3359 135.812C37.6068 135.708 37.8125 135.565 37.9531 135.383C38.0938 135.201 38.1641 134.992 38.1641 134.758ZM45.0469 128.547V129.656H40.4766V128.547H45.0469ZM42.0234 126.492H43.4688V134.906C43.4688 135.193 43.513 135.409 43.6016 135.555C43.6901 135.701 43.8047 135.797 43.9453 135.844C44.0859 135.891 44.237 135.914 44.3984 135.914C44.5182 135.914 44.6432 135.904 44.7734 135.883C44.9089 135.857 45.0104 135.836 45.0781 135.82L45.0859 137C44.9714 137.036 44.8203 137.07 44.6328 137.102C44.4505 137.138 44.2292 137.156 43.9688 137.156C43.6146 137.156 43.2891 137.086 42.9922 136.945C42.6953 136.805 42.4583 136.57 42.2812 136.242C42.1094 135.909 42.0234 135.461 42.0234 134.898V126.492ZM48.3125 128.547V137H46.8594V128.547H48.3125ZM46.75 126.305C46.75 126.07 46.8203 125.872 46.9609 125.711C47.1068 125.549 47.3203 125.469 47.6016 125.469C47.8776 125.469 48.0885 125.549 48.2344 125.711C48.3854 125.872 48.4609 126.07 48.4609 126.305C48.4609 126.529 48.3854 126.721 48.2344 126.883C48.0885 127.039 47.8776 127.117 47.6016 127.117C47.3203 127.117 47.1068 127.039 46.9609 126.883C46.8203 126.721 46.75 126.529 46.75 126.305ZM54.1719 128.547V129.656H49.6016V128.547H54.1719ZM51.1484 126.492H52.5938V134.906C52.5938 135.193 52.638 135.409 52.7266 135.555C52.8151 135.701 52.9297 135.797 53.0703 135.844C53.2109 135.891 53.362 135.914 53.5234 135.914C53.6432 135.914 53.7682 135.904 53.8984 135.883C54.0339 135.857 54.1354 135.836 54.2031 135.82L54.2109 137C54.0964 137.036 53.9453 137.07 53.7578 137.102C53.5755 137.138 53.3542 137.156 53.0938 137.156C52.7396 137.156 52.4141 137.086 52.1172 136.945C51.8203 136.805 51.5833 136.57 51.4062 136.242C51.2344 135.909 51.1484 135.461 51.1484 134.898V126.492ZM57.4375 128.547V137H55.9844V128.547H57.4375ZM55.875 126.305C55.875 126.07 55.9453 125.872 56.0859 125.711C56.2318 125.549 56.4453 125.469 56.7266 125.469C57.0026 125.469 57.2135 125.549 57.3594 125.711C57.5104 125.872 57.5859 126.07 57.5859 126.305C57.5859 126.529 57.5104 126.721 57.3594 126.883C57.2135 127.039 57.0026 127.117 56.7266 127.117C56.4453 127.117 56.2318 127.039 56.0859 126.883C55.9453 126.721 55.875 126.529 55.875 126.305ZM61.2109 125V137H59.7578V125H61.2109ZM66.375 128.547L62.6875 132.492L60.625 134.633L60.5078 133.094L61.9844 131.328L64.6094 128.547H66.375ZM65.0547 137L62.0391 132.969L62.7891 131.68L66.7578 137H65.0547ZM72.8516 135.555V131.203C72.8516 130.87 72.7839 130.581 72.6484 130.336C72.5182 130.086 72.3203 129.893 72.0547 129.758C71.7891 129.622 71.4609 129.555 71.0703 129.555C70.7057 129.555 70.3854 129.617 70.1094 129.742C69.8385 129.867 69.625 130.031 69.4688 130.234C69.3177 130.438 69.2422 130.656 69.2422 130.891H67.7969C67.7969 130.589 67.875 130.289 68.0312 129.992C68.1875 129.695 68.4115 129.427 68.7031 129.188C69 128.943 69.3542 128.75 69.7656 128.609C70.1823 128.464 70.6458 128.391 71.1562 128.391C71.7708 128.391 72.3125 128.495 72.7812 128.703C73.2552 128.911 73.625 129.227 73.8906 129.648C74.1615 130.065 74.2969 130.589 74.2969 131.219V135.156C74.2969 135.438 74.3203 135.737 74.3672 136.055C74.4193 136.372 74.4948 136.646 74.5938 136.875V137H73.0859C73.013 136.833 72.9557 136.612 72.9141 136.336C72.8724 136.055 72.8516 135.794 72.8516 135.555ZM73.1016 131.875L73.1172 132.891H71.6562C71.2448 132.891 70.8776 132.924 70.5547 132.992C70.2318 133.055 69.9609 133.151 69.7422 133.281C69.5234 133.411 69.3568 133.576 69.2422 133.773C69.1276 133.966 69.0703 134.193 69.0703 134.453C69.0703 134.719 69.1302 134.961 69.25 135.18C69.3698 135.398 69.5495 135.573 69.7891 135.703C70.0339 135.828 70.3333 135.891 70.6875 135.891C71.1302 135.891 71.5208 135.797 71.8594 135.609C72.1979 135.422 72.4661 135.193 72.6641 134.922C72.8672 134.651 72.9766 134.388 72.9922 134.133L73.6094 134.828C73.5729 135.047 73.474 135.289 73.3125 135.555C73.151 135.82 72.9349 136.076 72.6641 136.32C72.3984 136.56 72.0807 136.76 71.7109 136.922C71.3464 137.078 70.9349 137.156 70.4766 137.156C69.9036 137.156 69.401 137.044 68.9688 136.82C68.5417 136.596 68.2083 136.297 67.9688 135.922C67.7344 135.542 67.6172 135.117 67.6172 134.648C67.6172 134.195 67.7057 133.797 67.8828 133.453C68.0599 133.104 68.3151 132.815 68.6484 132.586C68.9818 132.352 69.3828 132.174 69.8516 132.055C70.3203 131.935 70.8438 131.875 71.4219 131.875H73.1016Z" fill="white"/>
</svg>
